<svg version="1.1" xmlns="http://www.w3.org/2000/svg" xmlns:xlink="http://www.w3.org/1999/xlink" width="37.38032" height="109.07773" viewBox="0,0,37.38032,109.07773"><defs><linearGradient x1="240.49123" y1="70.98519" x2="240.49123" y2="92.89976" gradientUnits="userSpaceOnUse" id="color-1"><stop offset="0" stop-color="#b3a788"/><stop offset="1" stop-color="#f2e2b8"/></linearGradient><linearGradient x1="245.18515" y1="91.14774" x2="245.18515" y2="106.23854" gradientUnits="userSpaceOnUse" id="color-2"><stop offset="0" stop-color="#396fbf"/><stop offset="1" stop-color="#8e2e99"/></linearGradient></defs><g transform="translate(-221.86216,-69.06254)"><g data-paper-data="{&quot;isPaintingLayer&quot;:true}" fill-rule="nonzero" stroke-width="0" stroke-linejoin="miter" stroke-miterlimit="10" stroke-dasharray="" stroke-dashoffset="0" style="mix-blend-mode: normal"><g stroke="#113c86" stroke-linecap="round"><path d="M228.95242,126.87389l0.08517,1.02034l-2.1613,3.63826l-4.31643,-1.45462l-0.61669,-3.28913l0.43498,-0.79921z" data-paper-data="{&quot;index&quot;:null}" fill="#f7e5b4"/><path d="M236.78519,101.96603l-2.27701,8.20126l-4.76214,16.79587l-4.61779,-0.19617l-3.26609,-0.92114l1.56851,-9.24861l5.56735,-18.04785l3.72848,-3.91646l5.3314,-0.79277z" data-paper-data="{&quot;index&quot;:null}" fill="#234175"/><path d="M236.78519,101.96603l-2.27701,8.20126l-4.62875,16.85447l-3.56959,-0.25499l4.2385,-17.50226l7.05322,-15.19046z" data-paper-data="{&quot;index&quot;:null}" fill="#264780"/></g><g data-paper-data="{&quot;index&quot;:null}" stroke="#113c86" stroke-linecap="round"><path d="M232.78344,127.3129l11.45938,-1.88299l1.77433,6.49157l5.1802,17.6903l5.29283,18.01332l1.50087,6.26001l-11.1717,3.78026l-1.96782,-6.72317l-5.10605,-18.37506z" fill="#264780"/><path d="M238.39732,126.69371l5.84546,-1.26378l1.77433,6.49157l5.1802,17.6903l5.29283,18.01332l1.50087,6.26001l-5.72563,1.93743l-1.75268,-6.44726l-5.4013,-19.53258l-4.72915,-16.65212z" fill="#234175"/><path d="M256.34302,164.1964l0.78994,3.44098l2.10268,3.539l-0.59216,2.74947l-12.45477,4.21442l-2.00104,-7.216l9.4987,-4.14046z" fill="#6b7880"/><path d="M259.24248,171.16669l-0.45705,2.72045l-12.47001,4.23105l-0.74329,-2.21017z" fill="#4f5863"/></g><g data-paper-data="{&quot;index&quot;:null}" stroke="#113c86" stroke-linecap="round"><path d="M244.31901,152.35078l-3.60979,18.56346l-1.19223,6.60912l-11.70228,-2.98621l5.68226,-24.50749l4.27297,-17.28646l-0.50873,-7.71285l11.59526,1.74494z" data-paper-data="{&quot;index&quot;:null}" fill="#264780"/><path d="M244.44012,152.38168l-3.7309,18.53255l-1.19223,6.60912l-5.50905,-1.40581l1.20696,-6.11145l3.59138,-18.22033l5.42822,-25.69303l4.622,0.68257z" data-paper-data="{&quot;index&quot;:null}" fill="#234175"/><path d="M241.8623,168.11063l-0.49063,3.42961l0.79089,4.07561l-2.48901,2.41977l-12.40842,-3.16641l1.60719,-7.30611l8.36744,1.28829z" fill="#6b7880"/><path d="M241.98522,175.62755l-2.25146,2.42088l-12.46834,-3.18169l0.50413,-2.22178z" fill="#4f5863"/></g><path d="M248.99647,129.36672l-16.12502,-0.18295l-0.40504,-28.68221l0.67861,-5.95846l7.56772,-3.1775l8.21216,3.69571z" data-paper-data="{&quot;index&quot;:null}" fill="#7a8799" stroke="#113c86" stroke-linecap="round"/><path d="M248.59816,122.33465l-0.48457,7.06477l-3.07195,-0.06116l-0.34156,-6.5298l-0.13925,-13.54651l2.10934,-7.83642l2.04841,9.84766z" fill="#626b7a" stroke="#113c86" stroke-linecap="round"/><g stroke="#113c86" stroke-linecap="round"><path d="M258.45644,128.5852l0.27721,0.465l-0.82048,2.58889l-3.98198,1.33699l-1.94247,-3.62056l0.15878,-0.47118z" data-paper-data="{&quot;index&quot;:null}" fill="#f7e5b4"/><path d="M242.67153,96.3019l4.37425,0.83584l5.87617,6.70672l5.07223,16.80979l1.12048,7.87911l-3.23899,0.84678l-4.47947,-0.14497l-5.76288,-21.49977l-2.25313,-6.65353z" fill="#234175"/><path d="M242.67153,96.3019l4.37425,0.83584l5.87617,6.70672l5.07223,16.80979l1.12048,7.87911l-3.23899,0.84678l-1.02127,-7.94003l-5.30899,-16.2754z" fill="#264780"/></g><path d="" fill="#340000" stroke="none" stroke-linecap="round"/><path d="" fill="#340000" stroke="none" stroke-linecap="round"/><path d="M242.00826,70.98519l4.34511,1.3747l2.38937,3.56877l1.33877,4.51975l-1.95002,7.80208l-1.89274,2.71368l-3.24482,1.93559l-7.02943,-2.02854l-3.69649,-3.42814l-1.36707,-4.41185l0.44899,-6.20758l2.12206,-2.97694l3.61443,-2.2511z" data-paper-data="{&quot;index&quot;:null}" fill="url(#color-1)" stroke="#000000" stroke-linecap="round"/><path d="M236.16797,92.89484v-2.33889h6.28501v2.33889z" data-paper-data="{&quot;index&quot;:null}" fill="#eddcae" stroke="#000000" stroke-linecap="butt"/><path d="M242.69609,91.60117l4.22228,0.46459l5.01558,7.44153l0.81489,5.91894l-5.59359,-5.32223l-4.05353,-1.56896l-6.2557,-4.80786l-0.95147,-2.20914l2.4445,0.40726z" data-paper-data="{&quot;index&quot;:null}" fill="url(#color-2)" stroke="#eb0095" stroke-linecap="round"/><path d="M248.52982,72.98371l1.98083,4.30191l0.057,5.6762l-0.60935,-0.73305l-0.6206,4.08341l-0.46528,-1.85194l-2.12748,5.52878l-0.48072,-5.84242l-0.64392,0.03412l-0.7391,3.93621l-0.54954,-0.36954l-1.45148,2.85528l-3.13343,1.39584l-0.09257,-0.88178l-2.26317,1.41683l-1.48898,-1.53238l-0.13904,0.64992l-1.59533,-1.72397l-0.39828,0.6757l-1.57903,-3.57325l-0.36678,1.46523l-0.77452,-3.24399l-0.37767,1.26488l-0.93906,-5.2365l0.61223,-4.82392l1.95348,-3.66188l2.50409,-1.79848l-0.77193,-0.24797l6.27455,-1.68441l4.76057,1.21477z" data-paper-data="{&quot;index&quot;:null}" fill="#332c23" stroke="#a8ccff" stroke-linecap="round"/></g></g></svg>