<svg version="1.1" xmlns="http://www.w3.org/2000/svg" xmlns:xlink="http://www.w3.org/1999/xlink" width="640" height="360" viewBox="0,0,640,360"><g transform="translate(80,0)"><g data-paper-data="{&quot;isPaintingLayer&quot;:true}" fill-rule="nonzero" stroke-linejoin="miter" stroke-miterlimit="10" stroke-dasharray="" stroke-dashoffset="0" style="mix-blend-mode: normal"><path d="M-80,0h640v360h-640z" fill="#000000" stroke="none" stroke-width="1.00207" stroke-linecap="butt"/><text transform="translate(173.9077,35.66506) scale(0.47209,0.47209)" font-size="40" xml:space="preserve" fill="#ebebeb" fill-rule="nonzero" stroke="#e6e6e6" stroke-width="0" stroke-linecap="butt" stroke-linejoin="miter" stroke-miterlimit="10" stroke-dasharray="" stroke-dashoffset="0" font-family="Sans Serif" font-weight="normal" text-anchor="start" style="mix-blend-mode: normal"><tspan x="0" dy="0">设置屏幕分辨率</tspan></text><text transform="translate(200.69899,194.45504) scale(0.28792,0.28792)" font-size="40" xml:space="preserve" data-paper-data="{&quot;index&quot;:null}" fill="#e6e6e6" fill-rule="nonzero" stroke="#e6e6e6" stroke-width="0" stroke-linecap="butt" stroke-linejoin="miter" stroke-miterlimit="10" stroke-dasharray="" stroke-dashoffset="0" font-family="Sans Serif" font-weight="normal" text-anchor="start" style="mix-blend-mode: normal"><tspan x="0" dy="0">480 × 360 (4:3)</tspan></text><text transform="translate(197.40521,172.45504) scale(0.28792,0.28792)" font-size="40" xml:space="preserve" data-paper-data="{&quot;index&quot;:null}" fill="#e6e6e6" fill-rule="nonzero" stroke="#e6e6e6" stroke-width="0" stroke-linecap="butt" stroke-linejoin="miter" stroke-miterlimit="10" stroke-dasharray="" stroke-dashoffset="0" font-family="Sans Serif" font-weight="normal" text-anchor="start" style="mix-blend-mode: normal"><tspan x="0" dy="0">640 × 360 (16:9)</tspan></text><path d="M196.48553,354.58282c-3.06633,0 -5.02216,-1.74036 -5.02216,-4.67586c0,-1.61967 0.10952,-9.56729 0.10952,-9.56729c0,0 3.20612,-1.46885 4.8672,-1.47322c1.66108,-0.00437 4.93786,1.45066 4.93786,1.45066c0,0 0.12974,7.96266 0.12974,9.58986c0,2.9355 -1.95583,4.67586 -5.02216,4.67586z" fill="none" stroke-opacity="0.25098" stroke="#ebebeb" stroke-width="0.75" stroke-linecap="butt"/><text transform="translate(206.6463,350.21208) scale(0.25619,0.25619)" font-size="40" xml:space="preserve" data-paper-data="{&quot;index&quot;:null}" fill="#ebebeb" fill-rule="nonzero" stroke="#e6e6e6" stroke-width="0" stroke-linecap="butt" stroke-linejoin="miter" stroke-miterlimit="10" stroke-dasharray="" stroke-dashoffset="0" font-family="Sans Serif" font-weight="normal" text-anchor="start" style="mix-blend-mode: normal"><tspan x="0" dy="0">选择</tspan></text><path d="M194.70596,354.58282c-3.06633,0 -5.02216,-1.74036 -5.02216,-4.67586c0,-1.61967 0.10952,-9.56729 0.10952,-9.56729c0,0 3.20612,-1.46885 4.8672,-1.47322c1.66108,-0.00437 4.93786,1.45066 4.93786,1.45066c0,0 0.12974,7.96266 0.12974,9.58986c0,2.9355 -1.95583,4.67586 -5.02216,4.67586z" fill="none" stroke-opacity="0.50196" stroke="#ebebeb" stroke-width="0.75" stroke-linecap="butt"/><text transform="translate(271.60081,350.21208) scale(0.25619,0.25619)" font-size="40" xml:space="preserve" data-paper-data="{&quot;index&quot;:null}" fill="#ebebeb" fill-rule="nonzero" stroke="#e6e6e6" stroke-width="0" stroke-linecap="butt" stroke-linejoin="miter" stroke-miterlimit="10" stroke-dasharray="" stroke-dashoffset="0" font-family="Sans Serif" font-weight="normal" text-anchor="start" style="mix-blend-mode: normal"><tspan x="0" dy="0">确认</tspan></text><path d="M192.92638,354.58282c-3.06633,0 -5.02216,-1.74036 -5.02216,-4.67586c0,-1.61967 0.10952,-9.56729 0.10952,-9.56729c0,0 3.20612,-1.46886 4.8672,-1.47323c1.66108,-0.00437 4.93786,1.45067 4.93786,1.45067c0,0 0.12974,7.96266 0.12974,9.58986c0,2.9355 -1.95583,4.67586 -5.02216,4.67586z" fill="none" stroke="#ebebeb" stroke-width="0.75" stroke-linecap="butt"/><path d="M192.92641,345.03144v-3.58227" fill="none" stroke="#ebebeb" stroke-width="0.75" stroke-linecap="round"/><path d="M259.66048,354.58282c-3.06633,0 -5.02216,-1.74036 -5.02216,-4.67586c0,-1.61967 0.10952,-9.56729 0.10952,-9.56729c0,0 3.20613,-1.46885 4.8672,-1.47322c1.66108,-0.00437 4.93786,1.45066 4.93786,1.45066c0,0 0.12974,7.96266 0.12974,9.58986c0,2.9355 -1.95584,4.67586 -5.02216,4.67586z" fill="none" stroke="#ebebeb" stroke-width="0.75" stroke-linecap="butt"/><path d="M259.66048,341.44919v3.58227" fill="none" stroke="#ebebeb" stroke-width="0.75" stroke-linecap="round"/><path d="M255.72101,346.70119l0.01348,-5.58666l3.00291,-1.06576l-0.08201,6.3701z" fill="#ebebeb" stroke="none" stroke-width="0" stroke-linecap="butt"/></g></g></svg>