<svg version="1.1" xmlns="http://www.w3.org/2000/svg" xmlns:xlink="http://www.w3.org/1999/xlink" width="155.32105" height="92.48695" viewBox="0,0,155.32105,92.48695"><g transform="translate(-179.33959,-48.56435)"><g data-paper-data="{&quot;isPaintingLayer&quot;:true}" fill-rule="nonzero" stroke-linecap="butt" stroke-linejoin="miter" stroke-miterlimit="10" stroke-dasharray="" stroke-dashoffset="0" style="mix-blend-mode: normal"><path d="M212.10805,62.34826v-13.78391h13.7839v13.78391z" fill-opacity="0.00392" fill="#000000" stroke="none" stroke-width="NaN"/><path d="M179.71459,136.34425c0,-2.76692 0,-58.1293 0,-59.75176c0,-1.81509 1.6537,-4.35764 3.31117,-4.35764c1.65932,0 32.79021,0 32.79021,0l3.44938,-5.5067l3.21924,5.5067c0,0 105.32141,0 108.49764,0c2.03003,0 3.30341,2.01734 3.30341,4.40898c0,3.34855 0,59.43084 0,59.73726c0,1.79566 -1.26304,4.29521 -3.27551,4.29521c-7.15241,0 -144.95636,0 -147.98437,0c-1.65748,0 -3.31117,-1.9443 -3.31117,-4.33205z" fill="#333333" stroke="#ebebeb" stroke-width="0.75"/><path d="M214.64126,55.4563c0,-2.40729 1.95149,-4.35878 4.35878,-4.35878c2.40729,0 4.35878,1.95149 4.35878,4.35878c0,2.40729 -1.95149,4.35878 -4.35878,4.35878c-2.40729,0 -4.35878,-1.95149 -4.35878,-4.35878z" fill-opacity="0.30196" fill="#ffffff" stroke="#ebebeb" stroke-width="0.75"/><text transform="translate(215.22211,57.96902) scale(0.1889,0.1889)" font-size="40" xml:space="preserve" fill="#ebebeb" fill-rule="nonzero" stroke="none" stroke-width="1" stroke-linecap="butt" stroke-linejoin="miter" stroke-miterlimit="10" stroke-dasharray="" stroke-dashoffset="0" font-family="Sans Serif" font-weight="normal" text-anchor="start" style="mix-blend-mode: normal"><tspan x="0" dy="0">？</tspan></text><text transform="translate(187.89932,88.92702) scale(0.28792,0.28792)" font-size="40" xml:space="preserve" data-paper-data="{&quot;index&quot;:null}" fill="#ebebeb" fill-rule="nonzero" stroke="#e6e6e6" stroke-width="0" stroke-linecap="butt" stroke-linejoin="miter" stroke-miterlimit="10" stroke-dasharray="" stroke-dashoffset="0" font-family="Sans Serif" font-weight="normal" text-anchor="start" style="mix-blend-mode: normal"><tspan x="0" dy="0">通过在角色的运动中插入帧</tspan><tspan x="0" dy="48px">使角色运动看起来更平滑。</tspan><tspan x="0" dy="48px">启用此功能可能会导致显示</tspan><tspan x="0" dy="48px">错误。</tspan></text></g></g></svg>