<svg version="1.1" xmlns="http://www.w3.org/2000/svg" xmlns:xlink="http://www.w3.org/1999/xlink" width="24.06126" height="107.81397" viewBox="0,0,24.06126,107.81397"><defs><linearGradient x1="235.91041" y1="92.08001" x2="235.91041" y2="102.4371" gradientUnits="userSpaceOnUse" id="color-1"><stop offset="0" stop-color="#396fbf"/><stop offset="1" stop-color="#8e2e99"/></linearGradient><linearGradient x1="237.95771" y1="92.2538" x2="237.95771" y2="99.72291" gradientUnits="userSpaceOnUse" id="color-2"><stop offset="0" stop-color="#396fbf"/><stop offset="1" stop-color="#8e2e99"/></linearGradient><linearGradient x1="239.57716" y1="69.9628" x2="239.57716" y2="93.45412" gradientUnits="userSpaceOnUse" id="color-3"><stop offset="0" stop-color="#b3a788"/><stop offset="1" stop-color="#f2e2b8"/></linearGradient><linearGradient x1="239.50983" y1="84.83703" x2="239.50983" y2="87.18833" gradientUnits="userSpaceOnUse" id="color-4"><stop offset="0" stop-color="#332c23" stop-opacity="0.70196"/><stop offset="1" stop-color="#332c23" stop-opacity="0"/></linearGradient><linearGradient x1="232.58979" y1="84.86046" x2="232.58979" y2="87.15036" gradientUnits="userSpaceOnUse" id="color-5"><stop offset="0" stop-color="#332c23" stop-opacity="0.70196"/><stop offset="1" stop-color="#332c23" stop-opacity="0"/></linearGradient></defs><g transform="translate(-227.78972,-69.28064)"><g data-paper-data="{&quot;isPaintingLayer&quot;:true}" fill-rule="nonzero" stroke-linejoin="miter" stroke-miterlimit="10" stroke-dasharray="" stroke-dashoffset="0" style="mix-blend-mode: normal"><path d="M236.7594,127.10928l0.16987,1.19541l-0.62365,3.13732l-2.65674,1.57289l-1.47317,-1.66179l-0.59777,0.31514l-1.2122,-2.24272l-0.10486,-0.98507z" data-paper-data="{&quot;index&quot;:null}" fill="#f7e5b4" stroke="#113c86" stroke-width="0" stroke-linecap="round"/><g data-paper-data="{&quot;index&quot;:null}" stroke="#113c86" stroke-width="0" stroke-linecap="round"><path d="M239.11719,98.53429l-0.9839,5.28463l-1.26182,10.69405l0.37851,12.80352l-4.40115,1.51253l-3.16988,0.14471l-0.87296,-7.75911l1.17916,-17.57152l3.20846,-8.85989l5.09334,-1.03915z" fill="#1c458c"/><path d="M233.32036,104.11694l-1.5928,17.09114l1.12125,7.6209l-3.16988,0.14471l-0.87296,-7.75911l1.17916,-17.57152l3.20846,-9.57418l5.09334,-0.32486z" fill="#234175"/></g><g data-paper-data="{&quot;index&quot;:null}" stroke="#113c86" stroke-width="0" stroke-linecap="round"><path d="M232.76534,126.57052l12,1.23258l-1.70448,24.85363l-0.56219,23.97024h-12.6l-1.47413,-2.3803l1.95308,-4.17477l1.12333,-18.26772z" data-paper-data="{&quot;index&quot;:null}" fill="#113c86"/><path d="M232.76539,126.57052l4.98058,0.55267l-0.88274,25.75868l-0.81455,17.65833l-0.34163,6.08676h-5.80831l-1.47413,-2.3803l1.95308,-4.17477l1.28999,-18.26772z" data-paper-data="{&quot;index&quot;:null}" fill="#234175"/><path d="M234.53885,168.7775l8.98981,0.82063l-0.61285,7.47665h-13.30606l-1.81342,-2.96006l1.77407,-3.75351l0.37261,-3.44444z" fill="#6b7880"/><path d="M243.01691,175.37818l-0.12248,1.68323l-13.34616,0.02174l-1.75855,-2.96461l1.74698,-3.70818z" fill="#4f5863"/></g><g data-paper-data="{&quot;index&quot;:null}" stroke="#113c86" stroke-width="0" stroke-linecap="round"><path d="M248.32972,151.39336l0.69469,18.58993l0.29094,6.84913h-12.7l-1.35888,-2.13779l0.77407,-4.13555l-0.29405,-18.3132l0.02885,-14.39085l-0.4,-9.84649l12,-1.84887z" fill="#264780"/><path d="M241.22397,133.99123l0.35136,17.11896l0.37956,19.1963l0.4063,6.52591h-5.74583l-1.35888,-2.13779l0.77407,-4.13555l-0.29405,-18.3132l0.02885,-17.66357l-0.4,-6.57376l5.3707,-0.8018z" fill="#234175"/><path d="M238.61455,168.72072l10.57315,0.87744l0.23563,7.47667h-13.21515l-1.35887,-2.4146l0.77407,-4.02624l-0.35466,-3.51263z" fill="#6b7880"/><path d="M249.48946,175.357l-0.06813,1.73761l-13.23492,-0.03261l-1.35887,-2.43634l0.77846,-3.92884z" fill="#4f5863"/></g><path d="M233.52945,93.85199c0,0 6.19491,-1.43046 8.04213,-1.62924c3.49445,-0.37606 7.0829,5.31728 7.0829,5.31728l-0.75933,32.86594l-15.40647,-2.4333z" data-paper-data="{&quot;index&quot;:null}" fill="#7a8799" stroke="#113c86" stroke-width="0" stroke-linecap="round"/><path d="M242.02121,111.27319l2.38581,-9.84766l2.63915,7.83642l-0.17423,13.54651l-0.25026,7.38301l-4.19771,-0.69167l-0.34064,-7.16515z" data-paper-data="{&quot;index&quot;:null}" fill="#626b7a" stroke="#113c86" stroke-width="0" stroke-linecap="round"/><path d="" fill="#340000" stroke="none" stroke-width="0" stroke-linecap="round"/><path d="" fill="#340000" stroke="none" stroke-width="0" stroke-linecap="round"/><path d="M235.09759,128.34018c0,0 -0.11804,-17.31378 0.05118,-23.67932c0.1573,-5.91683 0.69489,-10.7771 0.69489,-10.7771h0.82452c0,0 -0.53736,4.8513 -0.69459,10.76602c-0.16927,6.36711 -0.05148,23.80944 -0.05148,23.80944z" data-paper-data="{&quot;index&quot;:null}" fill="#c8c8c8" stroke="none" stroke-width="0" stroke-linecap="butt"/><path d="M250.84023,129.40496l-0.16433,1.1962l-1.45974,2.84618l-2.98614,0.7844l-0.96123,-2.00196l-0.66125,0.13921l-0.551,-2.48909l0.16917,-0.97608z" data-paper-data="{&quot;index&quot;:null}" fill="#f7e5b4" stroke="#113c86" stroke-width="0" stroke-linecap="round"/><g data-paper-data="{&quot;index&quot;:null}" stroke="#113c86" stroke-width="0" stroke-linecap="round"><path d="M242.29546,95.35217l4.5461,-0.2206l1.56549,1.72349l2.4258,6.49272l1.01813,17.36751l-0.2986,9.12716l-3.25079,0.23956l-4.89924,-0.95183l-0.51325,-17.33306l-1.06357,-8.50826z" data-paper-data="{&quot;index&quot;:null}" fill="#264780"/><path d="M242.31983,95.15347l3.11752,-0.0063l1.75393,8.02708l1.04421,13.34351l-1.08067,13.35421l-3.89608,-0.68336l-0.36965,-17.39144l-1.06357,-8.50826z" data-paper-data="{&quot;index&quot;:null}" fill="#234175"/></g><path d="M248.39919,82.35344l0.35911,4.22817l-0.74728,2.86425l-0.44432,-0.79717l-0.2591,0.84734l-0.48169,0.99644l-0.28636,-0.24367l-1.03345,1.36379l0.0861,-1.25009l-0.96452,1.60382l-0.21395,-0.9939l-0.92671,1.09323l-3.9093,0.59251l-2.99596,0.83078l-0.76103,-1.56374l-1.33491,0.88306l-0.19488,-1.41768l-0.75303,0.56905l-0.37585,-7.20471l-1.28169,5.74594l-1.81592,-7.6097l7.7915,-7.16773l7.9936,-0.68491z" data-paper-data="{&quot;index&quot;:null}" fill-opacity="0.65098" fill="#332c23" stroke="#000000" stroke-width="0" stroke-linecap="round"/><path d="M237.23898,93.44922v-2.33889h6.28501v2.33889z" data-paper-data="{&quot;index&quot;:null}" fill="#eddcae" stroke="#000000" stroke-width="0" stroke-linecap="butt"/><path d="M238.2993,95.4371l-5.5,4.28572l-3.02896,2.66496l1.10039,-6.45068l2.42857,-3.21429l2.21429,-0.64285l2.21428,0.5l5.86507,-0.33517z" fill="url(#color-1)" stroke="#000000" stroke-width="0" stroke-linecap="round"/><path d="M244.1161,92.31909l0.13026,1.03128l-5.84885,2.18502l-3.45535,3.75893l-2.14285,0.42858l4.50987,-5.06762l6.50655,-3.11307z" fill="url(#color-2)" stroke="#000000" stroke-width="0" stroke-linecap="round"/><path d="M243.07369,70.75144l3.49515,2.20427l2.13686,2.95435l0.59661,6.62137l-2.00265,5.22929l-3.72228,3.57686l-7.07846,2.11654l-3.10408,-2.18884l-1.74257,-2.57748l-1.80025,-8.2252l0.85798,-4.57135l2.40604,-3.57185l5.00146,-2.20487z" data-paper-data="{&quot;index&quot;:null}" fill="url(#color-3)" stroke="#000000" stroke-width="0" stroke-linecap="round"/><path d="M235.31126,90.79537h1.19599" data-paper-data="{&quot;index&quot;:null}" fill="none" stroke="#000000" stroke-width="0.15" stroke-linecap="round"/><path d="M235.09389,88.87494v-0.3384" data-paper-data="{&quot;index&quot;:null}" fill="none" stroke-opacity="0.45098" stroke="#332c23" stroke-width="0.15" stroke-linecap="round"/><path d="M234.38182,84.13122l-3.3184,-0.00516l0.44981,-0.1211l2.39565,-0.01281z" data-paper-data="{&quot;index&quot;:null}" fill-opacity="0.70196" fill="#332c23" stroke="none" stroke-width="0" stroke-linecap="round"/><path d="M234.10839,87.32061l-2.5346,-0.18508l-0.44981,-2.26936l3.00432,0.01219z" data-paper-data="{&quot;index&quot;:null}" fill="#fafafa" stroke="none" stroke-width="0" stroke-linecap="round"/><path d="M233.62671,87.26615l-1.46974,-0.08596l-0.13303,-1.03856l-0.05653,-1.25593l1.67978,0.0087l0.03417,1.22118z" data-paper-data="{&quot;index&quot;:null}" fill="#3f0000" stroke="none" stroke-width="0" stroke-linecap="round"/><path d="M237.58051,83.99216l3.62766,0.0128l0.68115,0.1211l-5.02496,0.00516z" data-paper-data="{&quot;index&quot;:null}" fill-opacity="0.70196" fill="#332c23" stroke="none" stroke-width="0" stroke-linecap="round"/><path d="M236.86435,84.87834l5.02496,-0.01219l-0.68115,2.33266l-4.17391,0.12178z" data-paper-data="{&quot;index&quot;:null}" fill="#fafafa" stroke="none" stroke-width="0" stroke-linecap="round"/><path d="M237.65643,86.11558l0.11149,-1.22118l2.26909,-0.0087l0.06708,1.25593l-0.20147,1.07021l-2.16346,0.05431z" data-paper-data="{&quot;index&quot;:null}" fill="#3f0000" stroke="none" stroke-width="0" stroke-linecap="round"/><path d="M238.13186,69.28064l5.87393,0.66263l-0.54499,0.32715l4.80261,2.74791l-0.45816,0.17372l1.27418,1.95441l1.32056,4.237l-0.475,-0.27477l0.14495,6.02336l-0.34361,-0.77264l-1.01116,3.87808l-0.41576,-0.92334l-3.29045,3.72931l0.04156,-2.84831l-0.42,0.55867l-0.07876,-3.69313l-0.69101,0.25711l-1.44393,5.17779l-0.81042,-6.53997l-1.64326,-1.92525l0.30165,1.24532l-2.32778,-0.85488l0.17816,0.77376l-1.93588,-0.38747l-0.1543,1.87869l-0.85916,-1.48323l0.05175,1.03428l-0.75632,-0.87607l-0.30608,-1.08502l-0.08449,1.08306l-0.84908,-1.06109l-0.87173,0.70899l-0.21566,-0.63872l-0.734,2.52256l-0.11915,-0.87862l-1.03085,1.87327l-0.20775,-0.8847l-0.41697,0.84277l-0.11373,-2.16602l-0.34535,-3.06398l-0.55053,0.7764l1.13773,-5.20953l-0.28544,-0.11167l2.97217,-4.19515l-0.668,-0.19204z" data-paper-data="{&quot;index&quot;:null}" fill="#332c23" stroke="#a8ccff" stroke-width="0" stroke-linecap="round"/><path d="M244.09475,85.38394l1.4381,-0.09924l-0.57152,1.75779l-1.59078,1.96252z" data-paper-data="{&quot;index&quot;:null}" fill="#dccca1" stroke="#000000" stroke-width="0" stroke-linecap="round"/><path d="M242.06542,84.83703l-0.86134,2.3513l0.57798,-2.18093l-4.82781,-0.15376z" data-paper-data="{&quot;index&quot;:null}" fill="url(#color-4)" stroke-opacity="0.50196" stroke="#332c23" stroke-width="0" stroke-linecap="round"/><path d="M234.099,84.87935l-2.88007,0.09008l0.3448,2.18093l-0.48314,-2.2899z" data-paper-data="{&quot;index&quot;:null}" fill="url(#color-5)" stroke-opacity="0.50196" stroke="#332c23" stroke-width="0" stroke-linecap="round"/><path d="" data-paper-data="{&quot;index&quot;:null}" fill="#3f0000" stroke="none" stroke-width="0" stroke-linecap="round"/></g></g></svg>