<svg version="1.1" xmlns="http://www.w3.org/2000/svg" xmlns:xlink="http://www.w3.org/1999/xlink" width="54.32105" height="19.19145" viewBox="0,0,54.32105,19.19145"><defs><linearGradient x1="392.2148" y1="74.31312" x2="392.2148" y2="85.68719" gradientUnits="userSpaceOnUse" id="color-1"><stop offset="0" stop-color="#85f218"/><stop offset="1" stop-color="#40e617"/></linearGradient></defs><g transform="translate(-365.05429,-70.40447)"><g data-paper-data="{&quot;isPaintingLayer&quot;:true}" fill-rule="nonzero" stroke-linecap="butt" stroke-linejoin="miter" stroke-miterlimit="10" stroke-dasharray="" stroke-dashoffset="0" style="mix-blend-mode: normal"><path d="M365.42929,84.88887c0,-2.76692 0,-8.1293 0,-9.75176c0,-1.81509 1.6537,-4.35764 3.31117,-4.35764c3.86967,0 39.97734,0 46.95647,0c2.03003,0 3.30341,2.01734 3.30341,4.40898c0,3.34855 0,9.43084 0,9.73726c0,1.79566 -1.26304,4.29521 -3.27551,4.29521c-7.15241,0 -43.95636,0 -46.98437,0c-1.65748,0 -3.31117,-1.9443 -3.31117,-4.33205z" fill-opacity="0.05098" fill="#ffffff" stroke="#ebebeb" stroke-width="0.75"/><path d="M397.28764,75.58701v5.73253c0,0.11374 -0.0455,0.22748 -0.13649,0.27297c-0.72794,0.63695 -1.63786,0.95542 -2.57054,0.95542c-0.93267,0 -1.8426,-0.34122 -2.57054,-0.95542c-0.59145,-0.50046 -1.3194,-0.79618 -2.09283,-0.79618c-0.70519,0 -1.38763,0.22747 -1.95634,0.68244v3.79894c0,0.22748 -0.18198,0.40947 -0.40947,0.40947c-0.22748,0 -0.40947,-0.18198 -0.40947,-0.40947v-9.6907c0,-0.18198 0.11374,-0.29573 0.22748,-0.36398c0.72794,-0.59145 1.59237,-0.90992 2.5023,-0.90992c0.93267,0 1.86535,0.34122 2.59329,0.95542c0.59145,0.50046 1.31939,0.77344 2.09283,0.77344c0.77344,0 1.50137,-0.27298 2.09283,-0.77344c0.13648,-0.09099 0.29572,-0.11375 0.43221,-0.0455c0.13648,0.06825 0.20473,0.20473 0.20473,0.36398z" fill="url(#color-1)" stroke="#549a10" stroke-width="0"/></g></g></svg>