<svg version="1.1" xmlns="http://www.w3.org/2000/svg" xmlns:xlink="http://www.w3.org/1999/xlink" width="38.19421" height="109.1039" viewBox="0,0,38.19421,109.1039"><defs><linearGradient x1="245.51388" y1="91.28205" x2="244.90037" y2="106.55406" gradientUnits="userSpaceOnUse" id="color-1"><stop offset="0" stop-color="#396fbf"/><stop offset="1" stop-color="#8e2e99"/></linearGradient><linearGradient x1="239.49161" y1="70.91305" x2="239.49161" y2="92.82762" gradientUnits="userSpaceOnUse" id="color-2"><stop offset="0" stop-color="#b3a788"/><stop offset="1" stop-color="#f2e2b8"/></linearGradient></defs><g transform="translate(-220.13859,-68.9904)"><g data-paper-data="{&quot;isPaintingLayer&quot;:true}" fill-rule="nonzero" stroke-width="0" stroke-linejoin="miter" stroke-miterlimit="10" stroke-dasharray="" stroke-dashoffset="0" style="mix-blend-mode: normal"><g data-paper-data="{&quot;index&quot;:null}" stroke="#113c86" stroke-linecap="round"><path d="M257.81818,126.68636l0.44248,0.79508l-0.58568,3.29479l-4.30254,1.49521l-2.19546,-3.61775l0.07556,-1.0211z" data-paper-data="{&quot;index&quot;:null}" fill="#f7e5b4"/><path d="M241.83637,94.68611l5.33863,0.74252l3.76519,3.88117l5.73707,17.99462l1.65554,9.23343l-3.25727,0.95186l-4.61574,0.23965l-4.92011,-16.75028l-2.35414,-8.17945z" data-paper-data="{&quot;index&quot;:null}" fill="#234175"/><path d="M242.29488,94.91568l7.19596,15.12337l4.40314,17.46157l-3.56703,0.28859l-4.78727,-16.81013l-2.35414,-8.17945z" data-paper-data="{&quot;index&quot;:null}" fill="#264780"/></g><g data-paper-data="{&quot;index&quot;:null}" stroke="#113c86" stroke-linecap="round"><path d="M241.0489,152.57346l-5.25271,18.33367l-2.02149,6.70722l-11.14113,-3.8694l1.55084,-6.24781l5.43661,-17.97044l5.32139,-17.64833l1.82615,-6.47718l10.80303,1.8384l-0.23806,3.93211z" fill="#264780"/><path d="M240.56698,133.19243l-4.86205,16.61381l-5.55721,19.4888l-1.80415,6.43306l-5.70996,-1.98312l1.55084,-6.24781l5.4366,-17.97044l5.3214,-17.64833l1.82614,-6.47719l5.83517,1.31046z" fill="#234175"/><path d="M226.99486,166.67829l9.46532,4.21623l-2.05864,7.19978l-12.42069,-4.31381l-0.57018,-2.75411l2.13089,-3.52208l0.81741,-3.43456z" fill="#6b7880"/><path d="M235.03592,175.8671l-0.76092,2.20417l-12.4358,-4.33057l-0.4353,-2.72401z" fill="#4f5863"/></g><g data-paper-data="{&quot;index&quot;:null}" stroke="#113c86" stroke-linecap="round"><path d="M232.09039,127.09732l11.51855,-2.19498l0.77596,7.46325l3.95855,17.37059l6.63193,24.26773l-11.57716,3.43946l-1.44859,-6.5577l-4.32964,-18.40888z" data-paper-data="{&quot;index&quot;:null}" fill="#264780"/><path d="M232.09039,127.09733l4.59192,-0.86197l6.42422,25.46226l4.2979,18.06672l1.44393,6.05984l-5.45016,1.61919l-1.44858,-6.55769l-4.44947,-18.37328z" data-paper-data="{&quot;index&quot;:null}" fill="#234175"/><path d="M245.33615,168.68936l8.31096,-1.61303l1.89038,7.23801l-12.27577,3.64702l-2.58131,-2.32104l0.63166,-4.10332l-0.62376,-3.40793z" fill="#6b7880"/><path d="M254.94686,172.11136l0.59022,2.20047l-12.33505,3.66463l-2.34398,-2.3314z" fill="#4f5863"/></g><path d="M231.93375,95.06131l8.21216,-3.69571l7.56772,3.1775l0.67861,5.95846l-0.40504,28.68221l-16.12502,0.18295z" data-paper-data="{&quot;index&quot;:null}" fill="#7a8799" stroke="#113c86" stroke-linecap="round"/><path d="M232.45897,111.2732l2.04841,-9.84766l2.10934,7.83642l-0.13925,13.54651l-0.34156,6.5298l-3.07195,0.06116l-0.48457,-7.06477z" data-paper-data="{&quot;index&quot;:null}" fill="#626b7a" stroke="#113c86" stroke-linecap="round"/><g data-paper-data="{&quot;index&quot;:null}" stroke="#113c86" stroke-linecap="round"><path d="M227.07675,127.63343l0.13317,0.47905l-2.13463,3.51069l-3.9042,-1.5495l-0.67986,-2.62932l0.30185,-0.44939z" data-paper-data="{&quot;index&quot;:null}" fill="#f7e5b4"/><path d="M237.17632,98.36724l-2.62193,8.6836l-6.74633,20.97341l-4.48077,-0.09648l-3.18869,-1.01999l1.54319,-7.80733l5.97017,-16.51223l4.17728,-7.4972l3.28874,0.00524z" fill="#234175"/><path d="M230.95249,104.08842l-6.17781,15.96586l-1.4474,7.8735l-3.18869,-1.01999l1.54319,-7.80733l5.97017,-16.51223l4.19066,-7.47364l3.27535,-0.01831z" fill="#264780"/></g><path d="" fill="#340000" stroke="none" stroke-linecap="round"/><path d="" fill="#340000" stroke="none" stroke-linecap="round"/><path d="M236.16797,92.89485v-2.33889h6.28501v2.33889z" data-paper-data="{&quot;index&quot;:null}" fill="#eddcae" stroke="#000000" stroke-linecap="butt"/><path d="M247.68661,93.45231l2.26249,2.4219l2.09056,3.60229l0.70525,7.05686l-5.81845,-7.22048l-7.69717,-4.00312l-4.4728,-1.38926l1.14011,-1.74192l6.23971,-0.09488l2.58369,-0.57652z" fill="url(#color-1)" stroke="#eb0095" stroke-linecap="round"/><path d="M242.89641,71.52347l3.61443,2.2511l2.12206,2.97694l0.44899,6.20758l-1.36707,4.41185l-3.69649,3.42814l-7.02943,2.02854l-3.24482,-1.93559l-1.89274,-2.71368l-1.95002,-7.80208l1.33877,-4.51975l2.38937,-3.56877l4.34511,-1.3747z" data-paper-data="{&quot;index&quot;:null}" fill="url(#color-2)" stroke="#000000" stroke-linecap="round"/><path d="M234.95453,70.20517l4.79258,-1.21477l6.31674,1.68441l-0.77712,0.24797l2.52093,1.79848l1.96661,3.66188l0.61635,4.82392l-0.94537,5.2365l-0.38021,-1.26488l-0.77973,3.24399l-0.36925,-1.46523l-1.58965,3.57325l-0.40096,-0.6757l-1.60606,1.72397l-0.13997,-0.64992l-1.49899,1.53238l-2.27839,-1.41683l-0.09319,0.88179l-3.1545,-1.39584l-1.46124,-2.85528l-0.55323,0.36954l-0.74407,-3.93621l-0.64825,-0.03412l-0.68254,5.84242l-1.94404,-5.52878l-0.46757,1.60149l-0.62477,-3.83296l-0.61345,0.73305l0.05738,-5.6762l1.99415,-4.30191z" data-paper-data="{&quot;index&quot;:null}" fill="#332c23" stroke="#a8ccff" stroke-linecap="round"/></g></g></svg>