<svg version="1.1" xmlns="http://www.w3.org/2000/svg" xmlns:xlink="http://www.w3.org/1999/xlink" width="25.26335" height="107.59145" viewBox="0,0,25.26335,107.59145"><defs><linearGradient x1="237.09589" y1="92.3203" x2="237.09589" y2="108.82637" gradientUnits="userSpaceOnUse" id="color-1"><stop offset="0" stop-color="#396fbf"/><stop offset="1" stop-color="#8e2e99"/></linearGradient><linearGradient x1="236.45564" y1="92.31027" x2="236.45564" y2="108.83415" gradientUnits="userSpaceOnUse" id="color-2"><stop offset="0" stop-color="#396fbf"/><stop offset="1" stop-color="#8e2e99"/></linearGradient><linearGradient x1="240.7849" y1="69.98156" x2="240.7849" y2="93.47288" gradientUnits="userSpaceOnUse" id="color-3"><stop offset="0" stop-color="#b3a788"/><stop offset="1" stop-color="#f2e2b8"/></linearGradient><linearGradient x1="240.69025" y1="84.86281" x2="240.69025" y2="87.2141" gradientUnits="userSpaceOnUse" id="color-4"><stop offset="0" stop-color="#332c23" stop-opacity="0.70196"/><stop offset="1" stop-color="#332c23" stop-opacity="0"/></linearGradient><linearGradient x1="247.80374" y1="84.8605" x2="247.80374" y2="87.15041" gradientUnits="userSpaceOnUse" id="color-5"><stop offset="0" stop-color="#332c23" stop-opacity="0.70196"/><stop offset="1" stop-color="#332c23" stop-opacity="0"/></linearGradient></defs><g transform="translate(-228.01691,-69.5032)"><g data-paper-data="{&quot;isPaintingLayer&quot;:true}" fill-rule="nonzero" stroke-linejoin="miter" stroke-miterlimit="10" stroke-dasharray="" stroke-dashoffset="0" style="mix-blend-mode: normal"><g stroke="#113c86" stroke-width="0" stroke-linecap="round"><path d="M243.03302,94.11902l5.09334,1.03915l3.46761,8.85989l1.56788,17.57152l-1.52083,7.75911l-3.16988,-0.14471l-4.40115,-1.51253l0.37851,-12.80352l-1.26182,-10.69405l-0.9839,-5.28463z" fill="#193f80"/><path d="M243.03302,94.11902l5.09334,0.32486l3.46761,9.57418l1.56788,17.57152l-1.52083,7.75911l-3.16988,-0.14471l1.12125,-7.6209l-1.5928,-17.09114z" fill="#264780"/><path d="M251.04724,129.36452l0.15788,0.51782l-1.41616,2.31733l-4.18623,0.34524l-1.0196,-3.9802l0.26693,-0.41949z" data-paper-data="{&quot;index&quot;:null}" fill="#f7e5b4"/></g><g stroke="#113c86" stroke-width="0" stroke-linecap="round"><path d="M249.56907,151.80426l1.12333,18.26772l1.95308,4.17477l-1.47413,2.3803h-12.6l-0.56219,-23.97024l-1.70448,-24.85363l12,-1.23258z" data-paper-data="{&quot;index&quot;:null}" fill="#113c86"/><path d="M249.40236,151.80426l1.28999,18.26772l1.95308,4.17477l-1.47413,2.3803h-5.80831l-0.34163,-6.08676l-0.81455,-17.65833l-0.88274,-25.75868l4.98058,-0.55267z" data-paper-data="{&quot;index&quot;:null}" fill="#264780"/><path d="M251.12701,166.9169l0.37261,3.44444l1.77407,3.75351l-1.81342,2.96006h-13.30606l-0.61285,-7.47665l8.98981,-0.82063z" fill="#6b7880"/><path d="M251.53328,170.41045l1.74698,3.70818l-1.75855,2.96461l-13.34616,-0.02174l-0.12248,-1.68323z" fill="#4f5863"/></g><g stroke="#113c86" stroke-width="0" stroke-linecap="round"><path d="M233.32965,126.15976l12,1.84887l-0.4,9.84649l0.02885,14.39085l-0.29405,18.3132l0.77407,4.13555l-1.35888,2.13779h-12.7l0.29094,-6.84913l0.69469,-18.58993z" fill="#234175"/><path d="M239.95895,127.20679l5.3707,0.8018l-0.4,6.57376l0.02885,17.66357l-0.29405,18.3132l0.77407,4.13555l-1.35888,2.13779h-5.74583l0.4063,-6.52591l0.37956,-19.1963l0.35136,-17.11896z" fill="#264780"/><path d="M245.42627,167.12143l-0.35466,3.51263l0.77407,4.02624l-1.35887,2.4146h-13.21515l0.23563,-7.47667l10.57315,-0.87744z" fill="#6b7880"/><path d="M245.08896,170.69687l0.77846,3.92884l-1.35887,2.43634l-13.23492,0.03261l-0.06813,-1.73761z" fill="#4f5863"/></g><path d="M248.45628,127.97288l-15.40647,2.4333l-0.75933,-32.86594l7.0829,-5.31728l8.04213,1.62924z" fill="#7a8799" stroke="#113c86" stroke-width="0" stroke-linecap="round"/><path d="M239.09904,122.33468l-0.38848,7.16515l-4.78726,0.69167l-0.28541,-7.38301l-0.1987,-13.54651l3.00981,-7.83642l2.72089,9.84766z" fill="#626b7a" stroke="#113c86" stroke-width="0" stroke-linecap="round"/><path d="" fill="#340000" stroke="none" stroke-width="0" stroke-linecap="round"/><path d="" fill="#340000" stroke="none" stroke-width="0" stroke-linecap="round"/><path d="M245.02288,128.45927c0,0 0.11779,-17.44233 -0.05148,-23.80944c-0.15723,-5.91472 -0.69459,-10.76602 -0.69459,-10.76602h0.82452c0,0 0.53759,4.86027 0.69489,10.7771c0.16922,6.36554 0.05118,23.67932 0.05118,23.67932z" fill="#c8c8c8" stroke="none" stroke-width="0" stroke-linecap="butt"/><g stroke="#113c86" stroke-width="0" stroke-linecap="round"><path d="M236.31345,128.97534l0.32847,0.96977l-1.22118,4.05178l-4.53973,-0.37195l-1.39088,-3.0437l0.22964,-0.88046z" data-paper-data="{&quot;index&quot;:null}" fill="#f7e5b4"/><path d="M238.38398,102.91387l-0.70305,8.50826l-0.51325,17.33306l-4.89924,0.95183l-3.25079,-0.23956l-0.30432,-9.12716l0.91675,-17.36751l5.45553,-8.14479l4.13302,1.54218z" data-paper-data="{&quot;index&quot;:null}" fill="#234175"/><path d="M238.38398,102.91387l-0.70305,8.50826l-0.36965,17.39144l-3.89608,0.68336l0.20504,-17.99707l2.15528,-14.94202l3.29246,0.92512z" data-paper-data="{&quot;index&quot;:null}" fill="#264780"/></g><path d="M234.76973,75.34625l7.69737,0.39593l7.7915,7.16773l-1.81592,7.6097l-1.28169,-5.74594l-0.37585,7.20471l-0.75303,-0.56905l-0.19488,1.41768l-1.33491,-0.88306l-0.76103,1.56374l-2.99596,-0.83078l-3.9093,-0.59251l-0.92671,-1.09323l-0.21395,0.9939l-0.96452,-1.60382l0.0861,1.25009l-1.03345,-1.36379l-0.28636,0.24367l-0.48169,-0.99644l-0.2591,-0.84734l-0.44432,0.79717l-0.74728,-2.86425l0.35911,-4.08368z" data-paper-data="{&quot;index&quot;:null}" fill-opacity="0.65098" fill="#332c23" stroke="#000000" stroke-width="0" stroke-linecap="round"/><path d="M236.79906,93.46795v-2.33889h6.28501v2.33889z" data-paper-data="{&quot;index&quot;:null}" fill="#eddcae" stroke="#000000" stroke-width="0" stroke-linecap="butt"/><g stroke="#eb0095" stroke-width="0" stroke-linecap="round"><path d="M239.30267,92.99016l5.5827,-0.66987l1.17565,0.19504l0.11386,0.98387l-3.81516,2.25881l-4.62753,5.5751l-4.14277,2.44528l-5.57251,5.0478l0.8849,-5.03325z" fill="url(#color-1)"/><path d="M239.30267,92.99025l5.56681,-0.67999l-5.3411,3.16773l-3.10151,3.89148l-3.85189,2.17593l-4.53317,7.28857l1.62731,-10.2369l3.46808,-4.61651l3.72108,-1.51649z" fill="url(#color-2)"/></g><path d="M242.20555,70.27781l5.00146,1.91589l2.26155,3.71634l0.78427,4.57134l-1.58205,8.2252l-1.74257,2.57748l-3.10408,2.18884l-7.07846,-2.11654l-3.72228,-3.57686l-2.00265,-5.22929l0.7411,-6.33239l2.1441,-2.81711l3.34341,-2.34151z" data-paper-data="{&quot;index&quot;:null}" fill="url(#color-3)" stroke="#000000" stroke-width="0" stroke-linecap="round"/><path d="M245.01179,90.81412h-1.19599" data-paper-data="{&quot;index&quot;:null}" fill="none" stroke="#000000" stroke-width="0.15" stroke-linecap="round"/><path d="M245.22916,88.55533v0.3384" data-paper-data="{&quot;index&quot;:null}" fill="none" stroke-opacity="0.45098" stroke="#332c23" stroke-width="0.15" stroke-linecap="round"/><path d="M246.45024,84.01093l2.43136,0.01281l0.45652,0.1211l-3.36787,0.00516z" data-paper-data="{&quot;index&quot;:null}" fill-opacity="0.70196" fill="#332c23" stroke="none" stroke-width="0" stroke-linecap="round"/><path d="M246.22755,84.89713l3.04911,-0.01219l-0.45652,2.26936l-2.57238,0.18508z" data-paper-data="{&quot;index&quot;:null}" fill="#fafafa" stroke="none" stroke-width="0" stroke-linecap="round"/><path d="M246.68114,86.13432l0.04425,-1.22118l1.69527,-0.0087l-0.05737,1.25593l-0.135,1.03856l-1.49165,0.08596z" data-paper-data="{&quot;index&quot;:null}" fill="#3f0000" stroke="none" stroke-width="0" stroke-linecap="round"/><path d="M243.31766,84.14999l-5.02496,-0.00516l0.68115,-0.1211l3.62766,-0.0128z" data-paper-data="{&quot;index&quot;:null}" fill-opacity="0.70196" fill="#332c23" stroke="none" stroke-width="0" stroke-linecap="round"/><path d="M243.14777,87.33937l-4.17391,-0.12178l-0.68115,-2.33266l5.02496,0.01219z" data-paper-data="{&quot;index&quot;:null}" fill="#fafafa" stroke="none" stroke-width="0" stroke-linecap="round"/><path d="M242.44286,87.28493l-2.16346,-0.05431l-0.20147,-1.07021l0.06708,-1.25593l2.26909,0.0087l0.11149,1.22118z" data-paper-data="{&quot;index&quot;:null}" fill="#3f0000" stroke="none" stroke-width="0" stroke-linecap="round"/><path d="M248.54319,71.75937l-0.68099,0.19204l2.86118,4.19515l-0.44568,0.11167l1.19312,5.20953l-0.44707,-0.7764l-0.32174,3.06398l-0.11594,2.16602l-0.46999,-0.84277l-0.21474,0.8847l-0.71283,-1.87327l-0.20499,0.7951l-0.66475,-2.43904l-0.37002,0.63872l-1.41428,-0.6339l-0.64033,0.986l-0.76191,-1.08306l-0.17595,1.08502l0.00801,0.7165l-0.62771,-0.71515l0.17534,1.32366l-1.96877,-1.95378l-0.32162,0.46256l-1.24502,-0.77376l-1.69726,0.85488l-1.04403,-1.32041l0.4272,2.00034l-0.82618,6.53997l-1.47201,-5.17779l-0.70445,-0.25711l-0.08029,3.69313l-0.42817,-0.55867l0.04237,2.84831l-3.35443,-3.72931l-0.42384,0.92334l-0.67941,-3.87808l-0.35029,0.77264l0.25561,-5.76822l-0.78772,0.12303l1.80146,-4.237l1.11711,-1.64761l-0.46707,-0.17372l4.28127,-3.05471l-0.55559,-0.32715l6.17372,-0.62154z" data-paper-data="{&quot;index&quot;:null}" fill="#332c23" stroke="#a8ccff" stroke-width="0" stroke-linecap="round"/><path d="M236.92802,89.02374l-1.59078,-1.96252l-0.57152,-1.75779l1.43809,0.09924z" data-paper-data="{&quot;index&quot;:null}" fill="#dccca1" stroke="#000000" stroke-width="0" stroke-linecap="round"/><path d="M243.24584,84.89326l-4.82781,0.13992l0.57798,2.18093l-0.86134,-2.3513z" data-paper-data="{&quot;index&quot;:null}" fill="url(#color-4)" stroke-opacity="0.50196" stroke="#332c23" stroke-width="0" stroke-linecap="round"/><path d="M249.31295,84.8605l-0.48314,2.2899l0.3448,-2.18093l-2.88007,-0.07624z" fill="url(#color-5)" stroke-opacity="0.50196" stroke="#332c23" stroke-width="0" stroke-linecap="round"/></g></g></svg>