<svg version="1.1" xmlns="http://www.w3.org/2000/svg" xmlns:xlink="http://www.w3.org/1999/xlink" width="33.20611" height="111.01665" viewBox="0,0,33.20611,111.01665"><defs><linearGradient x1="276.56089" y1="128.37868" x2="276.56089" y2="154.38745" gradientUnits="userSpaceOnUse" id="color-1"><stop offset="0" stop-color="#000000"/><stop offset="1" stop-color="#000000" stop-opacity="0"/></linearGradient><linearGradient x1="276.56089" y1="156.04539" x2="276.56089" y2="182.05414" gradientUnits="userSpaceOnUse" id="color-2"><stop offset="0" stop-color="#000000"/><stop offset="1" stop-color="#000000" stop-opacity="0"/></linearGradient><linearGradient x1="276.56089" y1="183.71208" x2="276.56089" y2="209.7208" gradientUnits="userSpaceOnUse" id="color-3"><stop offset="0" stop-color="#000000"/><stop offset="1" stop-color="#000000" stop-opacity="0"/></linearGradient><linearGradient x1="276.89423" y1="211.37873" x2="276.89423" y2="237.38749" gradientUnits="userSpaceOnUse" id="color-4"><stop offset="0" stop-color="#000000"/><stop offset="1" stop-color="#000000" stop-opacity="0"/></linearGradient><linearGradient x1="233.19932" y1="91.14773" x2="233.19932" y2="106.23853" gradientUnits="userSpaceOnUse" id="color-5"><stop offset="0" stop-color="#396fbf"/><stop offset="1" stop-color="#8e2e99"/></linearGradient><linearGradient x1="240.62738" y1="69.80184" x2="240.62738" y2="93.46271" gradientUnits="userSpaceOnUse" id="color-6"><stop offset="0" stop-color="#b3a788"/><stop offset="1" stop-color="#f2e2b8"/></linearGradient><linearGradient x1="238.2597" y1="91.94405" x2="238.2597" y2="101.50968" gradientUnits="userSpaceOnUse" id="color-7"><stop offset="0" stop-color="#396fbf"/><stop offset="1" stop-color="#8e2e99"/></linearGradient><linearGradient x1="244.82127" y1="84.89458" x2="244.82127" y2="87.24588" gradientUnits="userSpaceOnUse" id="color-8"><stop offset="0" stop-color="#332c23" stop-opacity="0.70196"/><stop offset="1" stop-color="#332c23" stop-opacity="0"/></linearGradient><linearGradient x1="236.41569" y1="84.89461" x2="236.41569" y2="87.2459" gradientUnits="userSpaceOnUse" id="color-9"><stop offset="0" stop-color="#332c23" stop-opacity="0.70196"/><stop offset="1" stop-color="#332c23" stop-opacity="0"/></linearGradient></defs><g transform="translate(-224.18316,-69.2652)"><g data-paper-data="{&quot;isPaintingLayer&quot;:true}" fill-rule="nonzero" stroke-linejoin="miter" stroke-miterlimit="10" stroke-dasharray="" stroke-dashoffset="0" style="mix-blend-mode: normal"><g stroke="#113c86" stroke-width="0" stroke-linecap="round"><path d="M251.61292,146.94074l1.46727,18.87961l0.47895,6.69869h-12.07728l-0.92886,-25.15151l-0.34826,-13.70821l-2.4,-7.34758l11.66667,-1.17626z" data-paper-data="{&quot;index&quot;:null}" fill="#234175"/><path d="M251.73792,146.94074l1.34227,18.87961l0.47895,6.69869h-5.68559l-0.34163,-6.22012l-1.68597,-19.54258l-1.02177,-21.13939l4.64725,-0.48145z" data-paper-data="{&quot;index&quot;:null}" fill="#264780"/><path d="M253.50425,162.8187l0.37261,3.44444l1.77407,3.75351l-1.81342,2.96006h-12.80606l-0.24921,-7.47665l8.42617,-0.82063z" fill="#6b7880"/><path d="M253.91056,166.3231l1.73611,3.68644l-1.74768,2.96461h-12.8679l-0.14422,-1.6941z" fill="#4f5863"/></g><path d="M255.49341,132.24529l-0.25587,1.18l-1.6744,2.72544l-3.03763,0.55233l-0.80435,-2.06998l-0.67,0.08792l-0.35787,-2.52412l0.24377,-0.96017z" data-paper-data="{&quot;index&quot;:null}" fill="#f7e5b4" stroke="#113c86" stroke-width="0" stroke-linecap="round"/><path d="M232.86727,124.41806l0.19478,0.96977l-0.44902,2.50638l-0.64112,-0.11668l-0.85986,2.03344l-2.90028,-0.68255l-1.49833,-2.79499l-0.19731,-1.18992z" data-paper-data="{&quot;index&quot;:null}" fill="#f7e5b4" stroke="#113c86" stroke-width="0" stroke-linecap="round"/><path d="M236.41136,98.63271l-1.82967,5.22814l-1.25974,8.30679l0.41399,12.29215l-4.69494,1.20637l-3.02885,-0.11779l-0.9937,-9.49485l0.70061,-12.41707l5.56835,-7.96536l5.04622,-1.62639z" data-paper-data="{&quot;index&quot;:null}" fill="#234175" stroke="#113c86" stroke-width="0" stroke-linecap="round"/><path d="M236.41136,98.63271l-1.82967,5.22814l-1.25974,8.30679l0.54691,12.48534l-3.71366,0.68999l-0.74508,-13.21677l2.49266,-14.70576z" data-paper-data="{&quot;index&quot;:null}" fill="#264780" stroke="#113c86" stroke-width="0" stroke-linecap="round"/><g stroke="#113c86" stroke-width="0" stroke-linecap="round"><path d="M232.65123,124.63227l11.45833,1.88938l-0.4,6.71779l-1.22803,21.6047l-1.87243,18.75942l-0.58481,6.41079h-11.79395l0.29094,-6.99919l1.70035,-19.04221z" fill="#234175"/><path d="M238.73886,125.70229l5.3707,0.81937l-0.4,6.71779l-1.22803,21.6047l-1.87243,18.75942l-0.58481,6.41079h-5.47311l0.4063,-6.66889l1.68522,-19.66187l1.60824,-21.04816z" fill="#264780"/><path d="M241.56869,170.3086l-0.35466,3.51263l0.8574,4.02624l-1.4422,2.4146h-13.14848l0.41745,-7.47667l10.32467,-0.87744z" fill="#6b7880"/><path d="M241.2314,173.86232l0.84368,3.97232l-1.42409,2.43634l-13.16825,0.01087l-0.079,-1.74848z" fill="#4f5863"/></g><path d="M249.97982,127.83747l-17.77914,0.6726l-0.56593,-34.44322l8.21607,-2.53455l9.98016,2.94571z" fill="#7a8799" stroke="#113c86" stroke-width="0" stroke-linecap="round"/><path d="M234.95179,122.33461l-2.75111,6.17548l-0.56593,-31.2826l3.53286,14.04566z" fill="#626b7a" stroke="#113c86" stroke-width="0" stroke-linecap="round"/><path d="M248.69378,122.1984l-0.13565,-11.07154l1.31284,-7.30557l0.10196,22.74319z" fill="#626b7a" stroke="#113c86" stroke-width="0" stroke-linecap="round"/><path d="M249.39181,94.8904l1.5525,0.36586l5.40586,8.89107l1.03908,18.98074l-1.3272,9.1045l-3.09196,1.32924l-4.42965,-2.39811l0.97376,-12.81586l0.00913,-13.29263l0.10409,-5.28622z" fill="#234175" stroke="#113c86" stroke-width="0" stroke-linecap="round"/><path d="M250.91623,95.22883l5.43396,8.91852l1.03908,18.98074l-1.3272,9.1045l-3.09196,1.32924l0.42389,-8.56398l-0.03682,-20.43554z" fill="#264780" stroke="#113c86" stroke-width="0" stroke-linecap="round"/><path d="M241.83573,127.8601c0,0 0.03446,-18.00976 -0.13481,-24.47241c-0.15723,-6.00348 -0.69459,-10.92758 -0.69459,-10.92758h0.82452c0,0 0.53759,4.9332 0.69489,10.93882c0.16922,6.46106 0.13451,24.41673 0.13451,24.41673z" fill="#c8c8c8" stroke="none" stroke-width="0" stroke-linecap="butt"/><path d="" fill="#340000" stroke="none" stroke-width="0" stroke-linecap="round"/><path d="" fill="#340000" stroke="none" stroke-width="0" stroke-linecap="round"/><g stroke-linecap="round"><path d="" data-paper-data="{&quot;index&quot;:null}" fill="#f7e5b5" stroke="#a8ccff" stroke-width="0"/><path d="" data-paper-data="{&quot;index&quot;:null}" fill="url(#color-1)" stroke="#a8ccff" stroke-width="0"/><path d="" data-paper-data="{&quot;index&quot;:null}" fill="none" stroke="#000000" stroke-width="0.5"/><g stroke="none" stroke-width="0"><path d="" fill="#fafafa"/><path d="" fill="#4d0000"/><path d="" fill="#3f0000"/></g><g stroke="none" stroke-width="0"><g data-paper-data="{&quot;index&quot;:null}"><path d="" fill="#fafafa"/><path d="" fill="#340000"/></g><g data-paper-data="{&quot;index&quot;:null}"><path d="" fill="#3f0000"/><path d="" fill="#340000"/></g></g><path d="" data-paper-data="{&quot;index&quot;:null}" fill="#061631" stroke="#a8ccff" stroke-width="0"/></g><g stroke-linecap="round"><path d="" data-paper-data="{&quot;index&quot;:null}" fill="#f7e5b5" stroke="#a8ccff" stroke-width="0"/><path d="" data-paper-data="{&quot;index&quot;:null}" fill="url(#color-2)" stroke="#a8ccff" stroke-width="0"/><path d="" data-paper-data="{&quot;index&quot;:null}" fill="none" stroke="#000000" stroke-width="0.5"/><g stroke="none" stroke-width="0"><path d="" fill="#fafafa"/><path d="" fill="#4d0000"/><path d="" fill="#3f0000"/></g><g stroke="none" stroke-width="0"><g data-paper-data="{&quot;index&quot;:null}"><path d="" fill="#fafafa"/><path d="" fill="#340000"/></g><g data-paper-data="{&quot;index&quot;:null}"><path d="" fill="#3f0000"/><path d="" fill="#340000"/></g></g><path d="" data-paper-data="{&quot;index&quot;:null}" fill="#061631" stroke="#a8ccff" stroke-width="0"/></g><g stroke-linecap="round"><path d="" data-paper-data="{&quot;index&quot;:null}" fill="#f7e5b5" stroke="#a8ccff" stroke-width="0"/><path d="" data-paper-data="{&quot;index&quot;:null}" fill="url(#color-3)" stroke="#a8ccff" stroke-width="0"/><path d="" data-paper-data="{&quot;index&quot;:null}" fill="none" stroke="#000000" stroke-width="0.5"/><g stroke="none" stroke-width="0"><path d="" fill="#fafafa"/><path d="" fill="#4d0000"/><path d="" fill="#3f0000"/></g><g stroke="none" stroke-width="0"><g data-paper-data="{&quot;index&quot;:null}"><path d="" fill="#fafafa"/><path d="" fill="#340000"/></g><g data-paper-data="{&quot;index&quot;:null}"><path d="" fill="#3f0000"/><path d="" fill="#340000"/></g></g><path d="" data-paper-data="{&quot;index&quot;:null}" fill="#061631" stroke="#a8ccff" stroke-width="0"/></g><g stroke-linecap="round"><path d="" data-paper-data="{&quot;index&quot;:null}" fill="#f7e5b5" stroke="#a8ccff" stroke-width="0"/><path d="" data-paper-data="{&quot;index&quot;:null}" fill="url(#color-4)" stroke="#a8ccff" stroke-width="0"/><path d="" data-paper-data="{&quot;index&quot;:null}" fill="none" stroke="#000000" stroke-width="0.5"/><g stroke="none" stroke-width="0"><path d="" fill="#fafafa"/><path d="" fill="#4d0000"/><path d="" fill="#3f0000"/></g><g stroke="none" stroke-width="0"><g data-paper-data="{&quot;index&quot;:null}"><path d="" fill="#fafafa"/><path d="" fill="#340000"/></g><g data-paper-data="{&quot;index&quot;:null}"><path d="" fill="#3f0000"/><path d="" fill="#340000"/></g></g><path d="" data-paper-data="{&quot;index&quot;:null}" fill="#061631" stroke="#a8ccff" stroke-width="0"/></g><path d="M234.48042,98.45971l-3.31922,18.40901l-0.19461,-21.21326l3.49101,-1.7794z" data-paper-data="{&quot;index&quot;:null}" fill="#264780" stroke="#113c86" stroke-width="0" stroke-linecap="round"/><path d="M249.67416,82.7809l-0.13802,4.08368l-0.23078,-0.47421l-0.76838,2.80215l-0.03149,-1.0897l-0.90902,1.67618l-1.36996,1.657l0.34302,-0.90423l-1.38183,1.36379l0.11514,-1.25009l-1.28965,1.60382l-6.75219,0.0236l-2.57023,-1.94819l-0.23392,1.09313l-0.54439,-1.33647l-0.69775,-0.15058l-0.0227,-2.15434l-0.84455,1.56278l-1.09765,-4.76298l4.01758,-8.4559l10.17752,-0.35484z" data-paper-data="{&quot;index&quot;:null}" fill-opacity="0.65098" fill="#332c23" stroke="#332c23" stroke-width="0" stroke-linecap="round"/><path d="M241.36008,93.63298l3.0221,-1.21679l-3.21395,3.02155l-5.88892,4.55l-4.83194,1.56896l-6.26421,4.51517l0.97137,-6.56459l5.97873,-7.44153l5.03309,-0.91801z" fill="url(#color-5)" stroke="#eb0095" stroke-width="0" stroke-linecap="round"/><path d="M237.41101,92.84952l-0.27416,-2.61305h6.65056l-0.27416,2.61305l-1.61575,0.75075l-2.83515,-0.01702z" fill="#c4b68f" stroke="#000000" stroke-width="0" stroke-linecap="butt"/><path d="M245.48803,71.7837l2.77374,4.15669l0.67358,4.43399l-1.10289,5.37201l1.5672,0.24515l-0.88069,1.38915l-1.67891,1.2771l-1.75586,2.70676l-4.6052,2.09816l-4.6253,-2.28695l-1.55336,-2.17776l-1.64398,-1.56629l-0.78249,-1.38004l1.32263,-0.19328l-1.25111,-5.38719l0.94712,-4.60192l2.93993,-3.89315l4.57914,-1.54423z" data-paper-data="{&quot;index&quot;:null}" fill="url(#color-6)" stroke="#332c23" stroke-width="0" stroke-linecap="round"/><path d="M241.25706,90.78574h-1.46818" data-paper-data="{&quot;index&quot;:null}" fill="none" stroke="#000000" stroke-width="0.15" stroke-linecap="round"/><path d="M242.96634,84.01087l3.54917,0.0128l0.66641,0.1211l-4.91624,0.00516z" fill-opacity="0.70196" fill="#332c23" stroke="none" stroke-width="0" stroke-linecap="round"/><path d="M238.97127,84.14993l-4.91624,-0.00516l0.66641,-0.1211l3.54918,-0.01281z" data-paper-data="{&quot;index&quot;:null}" fill-opacity="0.70196" fill="#332c23" stroke="none" stroke-width="0" stroke-linecap="round"/><path d="M240.46415,88.67616v0.3384" fill="none" stroke-opacity="0.45098" stroke="#332c23" stroke-width="0.15" stroke-linecap="round"/><path d="M242.26568,84.98871l4.91624,-0.01219l-0.66641,2.26936l-4.0836,0.18508z" fill="#fafafa" stroke-opacity="0.50196" stroke="#332c23" stroke-width="0" stroke-linecap="round"/><path d="M238.80504,87.43098l-4.0836,-0.18508l-0.66641,-2.26936l4.91624,0.01219z" data-paper-data="{&quot;index&quot;:null}" fill="#fafafa" stroke-opacity="0.50196" stroke="#332c23" stroke-width="0" stroke-linecap="round"/><path d="M238.05849,87.37653l-2.11665,-0.08596l-0.19709,-1.03856l0.06563,-1.25593l2.22,0.0087l0.10908,1.22118z" data-paper-data="{&quot;index&quot;:null}" fill="#3f0000" stroke="none" stroke-width="0" stroke-linecap="round"/><path d="M243.09749,86.22595l0.10908,-1.22118l2.22,-0.0087l0.06563,1.25593l-0.19709,1.03856l-2.11665,0.08596z" data-paper-data="{&quot;index&quot;:null}" fill="#3f0000" stroke="none" stroke-width="0" stroke-linecap="round"/><path d="M240.87527,69.2652l5.26136,1.44995l-0.7362,0.32715l2.42286,1.61069l2.05386,3.23956l0.84587,4.01905l-0.51223,-0.58038l0.11546,5.76848l-0.83731,-1.07003l-0.71547,1.79064l-1.34534,4.7592l-0.72383,-6.54583l-2.21658,-1.92525l0.40751,1.24532l-2.09536,-0.85488l0.12615,0.77376l-1.2772,-0.60469l-0.15316,2.09591l-0.78423,-1.48323l0.23559,1.03428l-1.09679,-0.87607l-1.09867,-1.51467l0.23113,1.83561l-1.48489,-1.74203l-1.46224,1.06703l0.18311,-1.28319l-1.69922,2.7149l-0.16096,-0.87862l-0.81646,6.67497l-1.30333,-4.62085l-0.77863,-0.8847l-0.86028,1.2949l0.11163,-2.34687l-0.17038,-3.06398l-0.59241,0.7764l1.46432,-4.94363l1.39917,-2.11991l-0.83337,-0.96338l3.10185,-1.61729l1.12969,-2.45966l0.35459,0.99811z" data-paper-data="{&quot;index&quot;:null}" fill="#332c23" stroke="#332c23" stroke-width="0" stroke-linecap="round"/><path d="M243.87977,92.21514l1.14585,-0.25488l0.29105,1.55182l-4.14843,1.87865l-5.88892,4.55l-4.83193,1.56896l4.35498,-3.40888l5.39997,-4.25464z" fill="url(#color-7)" stroke="#eb0095" stroke-width="0" stroke-linecap="round"/><path d="M247.37685,84.89458l-0.86134,2.3513l0.57798,-2.18093l-4.82781,-0.07624z" fill="url(#color-8)" stroke-opacity="0.50196" stroke="#332c23" stroke-width="0" stroke-linecap="round"/><path d="M238.97127,84.98873l-4.82781,0.07624l0.57798,2.18093l-0.86134,-2.3513z" data-paper-data="{&quot;index&quot;:null}" fill="url(#color-9)" stroke-opacity="0.50196" stroke="#332c23" stroke-width="0" stroke-linecap="round"/></g></g></svg>