<svg version="1.1" xmlns="http://www.w3.org/2000/svg" xmlns:xlink="http://www.w3.org/1999/xlink" width="25.99184" height="108.03192" viewBox="0,0,25.99184,108.03192"><defs><linearGradient x1="240.49126" y1="70.98519" x2="240.49126" y2="92.89976" gradientUnits="userSpaceOnUse" id="color-1"><stop offset="0" stop-color="#b3a788"/><stop offset="1" stop-color="#f2e2b8"/></linearGradient><linearGradient x1="245.18515" y1="91.14774" x2="245.18515" y2="106.23854" gradientUnits="userSpaceOnUse" id="color-2"><stop offset="0" stop-color="#396fbf"/><stop offset="1" stop-color="#8e2e99"/></linearGradient></defs><g transform="translate(-228.12392,-69.06254)"><g data-paper-data="{&quot;isPaintingLayer&quot;:true}" fill-rule="nonzero" stroke-width="0" stroke-linejoin="miter" stroke-miterlimit="10" stroke-dasharray="" stroke-dashoffset="0" style="mix-blend-mode: normal"><g stroke="#113c86" stroke-linecap="round"><path d="M235.82841,127.38305l0.31391,0.97458l-1.2817,4.03304l-4.53365,-0.43987l-1.34516,-3.06418l0.24279,-0.87692z" data-paper-data="{&quot;index&quot;:null}" fill="#f7e5b4"/><path d="M237.82016,101.34873l-0.3616,8.5038l-0.83689,17.43786l-4.54235,0.85414l-3.38982,-0.15797l-0.56558,-9.36361l1.33782,-18.8396l2.74524,-4.65874l5.0136,-1.97893z" data-paper-data="{&quot;index&quot;:null}" fill="#234175"/><path d="M237.82016,101.34873l-0.3616,8.5038l-0.69369,17.46474l-3.53466,0.55959l0.16695,-18.00739l3.43188,-16.39269z" data-paper-data="{&quot;index&quot;:null}" fill="#264780"/></g><g data-paper-data="{&quot;index&quot;:null}" stroke="#113c86" stroke-linecap="round"><path d="M233.24709,124.63228l11.45833,1.88938l-0.4,6.71779l-0.76329,18.41734l-0.76014,18.75942l-0.58481,6.41079h-11.79395l0.29094,-6.99919l1.05302,-19.04221z" fill="#264780"/><path d="M238.76323,125.84514l5.94213,0.67651l-0.4,6.71779l-0.76329,18.41734l-0.76014,18.75942l-0.58481,6.41079h-6.04454l0.4063,-6.66889l1.14436,-20.2333l0.85779,-17.28937z" fill="#234175"/><path d="M243.74156,167.12125l-0.35466,3.51263l0.8574,4.02624l-1.4422,2.4146h-13.14848l0.41745,-7.47667l10.32467,-0.87744z" fill="#6b7880"/><path d="M244.2539,174.65317l-1.30491,2.43042l-13.16825,0.01087l0.00434,-2.33181z" fill="#4f5863"/></g><g data-paper-data="{&quot;index&quot;:null}" stroke="#113c86" stroke-linecap="round"><path d="M250.45277,151.03874l1.09227,18.87961l0.47895,6.69869h-12.07728l-0.55386,-25.15151l-0.13393,-17.80624l-2.4,-7.34758l11.66667,-1.17626z" data-paper-data="{&quot;index&quot;:null}" fill="#264780"/><path d="M250.57777,151.03873l0.96727,18.87961l0.47895,6.69869h-5.68559l-0.34163,-6.22012l-1.02526,-18.54258l-1.09315,-26.23742l4.64725,-0.48145z" data-paper-data="{&quot;index&quot;:null}" fill="#234175"/><path d="M251.96908,166.91669l0.37261,3.44444l1.77407,3.75351l-1.81342,2.96006h-12.80606l-0.24921,-7.47665l8.42617,-0.82063z" fill="#6b7880"/><path d="M253.94679,174.16977l-1.58297,2.9024h-12.8679l-0.06088,-2.27744z" fill="#4f5863"/></g><path d="M248.99656,129.36673l-16.12502,-0.18295l-0.40504,-28.68221l0.67861,-5.95846l7.56772,-3.1775l8.21216,3.69571z" data-paper-data="{&quot;index&quot;:null}" fill="#7a8799" stroke="#113c86" stroke-linecap="round"/><path d="M248.59818,122.33466l-0.48457,7.06477l-3.07195,-0.06116l-0.34156,-6.5298l-0.13925,-13.54651l2.10934,-7.83642l2.04841,9.84766z" fill="#626b7a" stroke="#113c86" stroke-linecap="round"/><g stroke="#113c86" stroke-linecap="round"><path d="M252.07733,129.7602l0.17186,0.51335l-1.35281,2.35488l-4.17533,0.45863l-1.12717,-3.95109l0.25545,-0.42658z" data-paper-data="{&quot;index&quot;:null}" fill="#f7e5b4"/><path d="M243.52693,94.85656l4.09604,1.7479l4.3137,7.80394l1.37738,17.50427l-0.58256,7.93703l-3.34501,0.13783l-4.34592,-1.09527l-1.05376,-22.23377l-0.78503,-6.98067z" fill="#234175"/><path d="M243.52693,94.85656l4.09604,1.7479l4.3137,7.80394l1.37738,17.50427l-0.58256,7.93703l-3.34501,0.13783l0.69247,-7.97543l-1.72248,-17.03253z" fill="#264780"/></g><path d="" fill="#340000" stroke="none" stroke-linecap="round"/><path d="" fill="#340000" stroke="none" stroke-linecap="round"/><path d="M242.00829,70.98519l4.34511,1.3747l2.38937,3.56877l1.33877,4.51975l-1.95002,7.80208l-1.89274,2.71368l-3.24482,1.93559l-7.02943,-2.02854l-3.69649,-3.42814l-1.36707,-4.41185l0.44899,-6.20758l2.12206,-2.97694l3.61443,-2.2511z" data-paper-data="{&quot;index&quot;:null}" fill="url(#color-1)" stroke="#000000" stroke-linecap="round"/><path d="M236.16802,92.89484v-2.33889h6.28501v2.33889z" data-paper-data="{&quot;index&quot;:null}" fill="#eddcae" stroke="#000000" stroke-linecap="butt"/><path d="M242.69614,91.60117l4.22228,0.46459l5.01558,7.44153l0.81489,5.91894l-5.59359,-5.32223l-4.05353,-1.56896l-6.2557,-4.80786l-0.95147,-2.20914l2.4445,0.40726z" data-paper-data="{&quot;index&quot;:null}" fill="url(#color-2)" stroke="#eb0095" stroke-linecap="round"/><path d="M248.52986,72.98371l1.98083,4.30191l0.057,5.6762l-0.60935,-0.73305l-0.6206,4.08341l-0.46528,-1.85194l-2.12748,5.52878l-0.48072,-5.84242l-0.64392,0.03412l-0.7391,3.93621l-0.54954,-0.36954l-1.45148,2.85528l-3.13343,1.39584l-0.09257,-0.88178l-2.26317,1.41683l-1.48898,-1.53238l-0.13904,0.64992l-1.59533,-1.72397l-0.39828,0.6757l-1.57903,-3.57325l-0.36678,1.46523l-0.77452,-3.24399l-0.37767,1.26488l-0.93906,-5.2365l0.61223,-4.82392l1.95348,-3.66188l2.50409,-1.79848l-0.77193,-0.24797l6.27455,-1.68441l4.76057,1.21477z" data-paper-data="{&quot;index&quot;:null}" fill="#332c23" stroke="#a8ccff" stroke-linecap="round"/></g></g></svg>