<svg version="1.1" xmlns="http://www.w3.org/2000/svg" xmlns:xlink="http://www.w3.org/1999/xlink" width="35.60023" height="109.01652" viewBox="0,0,35.60023,109.01652"><defs><linearGradient x1="235.95094" y1="92.31984" x2="235.95094" y2="102.67693" gradientUnits="userSpaceOnUse" id="color-1"><stop offset="0" stop-color="#396fbf"/><stop offset="1" stop-color="#8e2e99"/></linearGradient><linearGradient x1="237.99826" y1="92.49364" x2="237.99826" y2="99.96275" gradientUnits="userSpaceOnUse" id="color-2"><stop offset="0" stop-color="#396fbf"/><stop offset="1" stop-color="#8e2e99"/></linearGradient><linearGradient x1="239.04835" y1="70.48827" x2="239.04835" y2="93.28122" gradientUnits="userSpaceOnUse" id="color-3"><stop offset="0" stop-color="#b3a788"/><stop offset="1" stop-color="#f2e2b8"/></linearGradient><linearGradient x1="233.34078" y1="84.48212" x2="233.34078" y2="86.74727" gradientUnits="userSpaceOnUse" id="color-4"><stop offset="0" stop-color="#332c23" stop-opacity="0.70196"/><stop offset="1" stop-color="#332c23" stop-opacity="0"/></linearGradient></defs><g transform="translate(-221.06684,-69.11275)"><g data-paper-data="{&quot;isPaintingLayer&quot;:true}" fill-rule="nonzero" stroke-linejoin="miter" stroke-miterlimit="10" stroke-dasharray="" stroke-dashoffset="0" style="mix-blend-mode: normal"><g data-paper-data="{&quot;index&quot;:null}" stroke="#113c86" stroke-width="0" stroke-linecap="round"><path d="M234.62809,94.01683l4.5007,2.19879l-1.08197,9.27437l-5.44507,16.77998l-3.16158,6.91927l-2.85949,-1.37563l-3.32497,-2.38287l3.9568,-12.7415l3.57166,-10.33289z" fill="#193f80"/><path d="M234.62807,94.01683l4.78069,1.54168l-1.36195,9.9315l-5.44507,16.77998l-3.16158,6.91927l-2.85949,-1.37563l2.7398,-6.94875l5.23385,-16.34781z" fill="#264780"/><path d="M228.88769,128.97122l-0.05772,0.53826l-2.21116,1.5768l-3.76113,-0.90924l0.5278,-3.74163l0.40999,-0.28129z" data-paper-data="{&quot;index&quot;:null}" fill="#f7e5b4"/></g><g data-paper-data="{&quot;index&quot;:null}" stroke="#113c86" stroke-width="0" stroke-linecap="round"><path d="M233.70613,128.07776l11.91981,-1.85399l4.82166,24.42988l5.70229,23.28546l-12.18727,3.19852l-2.03008,-1.92813l0.82934,-4.5338l-3.71194,-17.91219z" data-paper-data="{&quot;index&quot;:null}" fill="#234175"/><path d="M233.70616,128.07776l4.95773,-0.72976l5.84623,25.09669l3.85591,17.24437l1.21469,5.97411l-5.61805,1.47444l-2.03008,-1.92813l0.82934,-4.5338l-3.55074,-17.95449z" data-paper-data="{&quot;index&quot;:null}" fill="#264780"/><path d="M246.45824,168.36752l8.90366,-1.48832l1.30517,7.38731l-12.8702,3.37775l-2.50543,-2.40276l0.76313,-4.08091l-0.51397,-3.4262z" fill="#6b7880"/><path d="M256.33418,172.59971l0.30882,1.65919l-12.90347,3.40895l-2.45351,-2.42109l0.74843,-4.03019z" fill="#4f5863"/></g><g data-paper-data="{&quot;index&quot;:null}" stroke="#113c86" stroke-width="0" stroke-linecap="round"><path d="M240.50226,153.14591l-4.50362,18.05671l-1.68459,6.64511l-12.16705,-3.64048l-0.68905,-2.4376l1.92705,-3.74011l4.80813,-17.67675l3.99313,-13.82644l2.4393,-9.54794l12.0264,1.66854z" fill="#234175"/><path d="M238.52338,134.38938l-4.41089,16.54905l-4.97935,18.5473l-1.48142,6.36851l-5.5047,-1.64705l-0.68905,-2.4376l1.92705,-3.74011l4.80813,-17.67675l4.93126,-16.96182l1.50117,-6.41255l5.37516,0.77137z" fill="#264780"/><path d="M226.38755,167.00909l9.87793,3.87143l-1.91746,7.23046l-12.66057,-3.78814l-0.6097,-2.70279l1.89572,-3.63539l0.66713,-3.46688z" fill="#6b7880"/><path d="M234.90382,176.48411l-0.56336,1.64516l-12.67016,-3.82506l-0.60346,-2.72362l1.872,-3.54082z" fill="#4f5863"/></g><path d="M232.88458,101.34644l0.95058,-7.49421l8.32546,-1.26546l3.71408,2.66932l1.75216,2.28418l-0.926,32.86594l-13.57314,-2.09996z" data-paper-data="{&quot;index&quot;:null}" fill="#7a8799" stroke="#113c86" stroke-width="0" stroke-linecap="round"/><path d="M239.80774,111.27323l2.98407,-9.84766l3.30094,7.83642l-0.21792,13.54651l-0.31302,7.38301l-5.25032,-0.69167l-0.42606,-7.16515z" data-paper-data="{&quot;index&quot;:null}" fill="#626b7a" stroke="#113c86" stroke-width="0" stroke-linecap="round"/><path d="" fill="#340000" stroke="none" stroke-width="0" stroke-linecap="round"/><path d="" fill="#340000" stroke="none" stroke-width="0" stroke-linecap="round"/><path d="M234.06994,128.34039c0,0 -0.11804,-17.31378 0.05118,-23.67932c0.1573,-5.91683 0.69489,-10.7771 0.69489,-10.7771h0.82452c0,0 -0.53736,4.8513 -0.69459,10.76602c-0.16927,6.36711 -0.05148,23.80944 -0.05148,23.80944z" data-paper-data="{&quot;index&quot;:null}" fill="#c8c8c8" stroke="none" stroke-width="0" stroke-linecap="butt"/><g data-paper-data="{&quot;index&quot;:null}" stroke="#113c86" stroke-width="0" stroke-linecap="round"><path d="M253.21319,128.92519l0.37995,0.8268l-0.83767,3.2399l-4.40491,1.15943l-1.91034,-3.77608l0.15397,-1.01225z" data-paper-data="{&quot;index&quot;:null}" fill="#f7e5b4"/><path d="M238.64109,96.38055l4.323,-1.31168l3.63199,1.26707l2.02712,6.16221l3.93161,16.87718l1.30895,9.19741l-3.15892,0.80386l-4.99019,-0.08118l-3.53385,-16.97675l-2.5338,-8.19156z" data-paper-data="{&quot;index&quot;:null}" fill="#234175"/><path d="M239.272,97.78403l2.18777,-0.4339l4.73285,14.33559l3.34639,17.68441l-3.95555,0.00789l-3.40266,-17.05933l-2.5338,-8.19156z" data-paper-data="{&quot;index&quot;:null}" fill="#264780"/></g><path d="M248.34789,82.97099l-0.40668,4.05445l-0.62437,2.76249l-0.21185,-0.8369l-0.2639,0.81327l-0.42869,0.93791l-0.16543,-0.27152l-0.65525,1.24464l0.19129,-1.23072l-0.81653,1.48987l-0.03676,-1.00796l-0.73663,0.98746l0.01937,-4.99255z" data-paper-data="{&quot;index&quot;:null}" fill-opacity="0.65098" fill="#332c23" stroke="#000000" stroke-width="0" stroke-linecap="round"/><path d="M236.61811,94.87795v-3.85354h6.28501v2.62475z" fill="#eddcae" stroke="#000000" stroke-width="0" stroke-linecap="butt"/><g stroke="#000000" stroke-width="0" stroke-linecap="round"><path d="M237.65021,95.06491l-4.31856,4.89779l-2.27145,2.55668l0.59169,-5.80581l1.68798,-3.19048l2.21429,-0.79519l2.21428,-0.21408l5.86507,-0.33517z" fill="url(#color-1)"/><path d="M244.25866,92.55898l0.02825,1.03128l-6.74984,1.6434l-2.9,4.17719l-1.05869,0.18186l3.38775,-5.00357l6.89016,-2.80704z" fill="url(#color-2)"/></g><path d="M235.75719,87.20639l-5.1084,-0.22211l-1.2549,-3.91245l3.1778,-2.91297z" fill="#665c52" stroke="#000000" stroke-width="0" stroke-linecap="round"/><path d="M242.82949,71.31318l3.17078,2.06351l2.15503,3.2567l0.54015,6.43648l-2.38502,5.12263l-3.78367,3.31226l-9.37059,1.77646l-1.85652,-2.85961l-1.59025,-1.55355l0.9851,-2.13437l-1.29325,-5.54397l1.03873,-5.72047l2.57289,-3.34383l5.08624,-1.63715z" data-paper-data="{&quot;index&quot;:null}" fill="url(#color-3)" stroke="#000000" stroke-width="0" stroke-linecap="round"/><path d="M232.20018,90.80403l0.84802,-0.04493" fill="none" stroke="#000000" stroke-width="0.15" stroke-linecap="round"/><path d="M231.56688,83.83138l3.61334,-0.32233l0.68943,0.00319l-4.89407,0.63269z" fill-opacity="0.70196" fill="#332c23" stroke="none" stroke-width="0" stroke-linecap="round"/><path d="M231.02817,84.84028l4.39649,-0.28434l-0.60804,2.29133l-3.3937,0.56381z" fill="#fafafa" stroke="none" stroke-width="0" stroke-linecap="round"/><path d="M231.59615,86.05101l-0.00179,-1.22381l1.70829,-0.10663l0.12644,1.22734l-0.05762,1.14684l-1.58617,0.19295z" data-paper-data="{&quot;index&quot;:null}" fill="#3f0000" stroke="none" stroke-width="0" stroke-linecap="round"/><path d="M241.68679,90.78725l-0.33454,-2.43501l-0.32226,0.33394l-0.81274,-3.6769l-0.87666,0.27069l-1.25273,5.28924l-0.44825,-2.4265l-0.29333,0.56182l-1.05144,-5.31418l-0.35375,0.91402l-1.89174,-1.9832l-0.27894,0.83456l-1.94594,-1.44557l-0.13293,1.85131l-1.23058,-0.29549l-0.08596,0.87938l-0.98224,-1.22532l-0.36575,1.00109l-0.39108,-3.73683l-0.55656,0.16851l1.67548,-6.18721l-0.52884,-0.01672l3.66094,-3.1433l-0.18741,-0.2498l6.71951,-1.64303l5.99134,1.55429l-0.55233,0.19905l2.8371,2.71228l2.03687,4.52094l-0.5318,0.10193l0.83176,5.92468l-0.61913,-0.35021l-1.02769,4.3327l-0.46019,-0.64771l-2.35396,3.47091l-0.16057,-0.70063l-2.35815,1.83883z" fill="#332c23" stroke="#000000" stroke-width="0" stroke-linecap="round"/><path d="M240.16463,85.40267l1.80973,0.08131l-0.4993,1.75779l-1.50051,1.78197z" fill="#dccca1" stroke="#000000" stroke-width="0" stroke-linecap="round"/><path d="M235.65339,84.48212l-0.83677,2.36515l0.55613,-2.18751l-4.34458,0.18052z" fill="url(#color-4)" stroke="none" stroke-width="0" stroke-linecap="round"/></g></g></svg>