<svg version="1.1" xmlns="http://www.w3.org/2000/svg" xmlns:xlink="http://www.w3.org/1999/xlink" width="39.84979" height="109.37109" viewBox="0,0,39.84979,109.37109"><defs><linearGradient x1="245.51388" y1="91.28205" x2="244.90037" y2="106.55406" gradientUnits="userSpaceOnUse" id="color-1"><stop offset="0" stop-color="#396fbf"/><stop offset="1" stop-color="#8e2e99"/></linearGradient><linearGradient x1="239.4916" y1="70.91305" x2="239.4916" y2="92.82762" gradientUnits="userSpaceOnUse" id="color-2"><stop offset="0" stop-color="#b3a788"/><stop offset="1" stop-color="#f2e2b8"/></linearGradient></defs><g transform="translate(-218.9074,-68.9904)"><g data-paper-data="{&quot;isPaintingLayer&quot;:true}" fill-rule="nonzero" stroke-width="0" stroke-linejoin="miter" stroke-miterlimit="10" stroke-dasharray="" stroke-dashoffset="0" style="mix-blend-mode: normal"><g data-paper-data="{&quot;index&quot;:null}" stroke="#113c86" stroke-linecap="round"><path d="M242.73391,128.70484l-0.01375,0.90981l-2.15296,2.56192l-4.47426,-0.85349l-0.09519,-4.23074l0.57543,-0.84689z" data-paper-data="{&quot;index&quot;:null}" fill="#f7e5b4"/><path d="M244.87031,92.99951l4.25428,3.30961l1.32356,5.24294l-4.01693,18.45493l-3.17728,8.82621l-3.29732,-0.80217l-4.11853,-2.09766l4.10324,-16.96888l2.04563,-8.262z" data-paper-data="{&quot;index&quot;:null}" fill="#234175"/><path d="M245.15288,93.4274l-1.319,16.69606l-4.90635,17.3269l-3.23442,-1.5315l4.24821,-16.95438l2.04563,-8.262z" data-paper-data="{&quot;index&quot;:null}" fill="#264780"/></g><g data-paper-data="{&quot;index&quot;:null}" stroke="#113c86" stroke-linecap="round"><path d="M252.48114,150.60914l4.08853,18.62789l1.40792,6.86229l-11.64178,1.88848l-1.60379,-6.23443l-3.75417,-18.39566l-3.70249,-18.05748l-1.47052,-6.56705l11.00796,-3.69975z" fill="#264780"/><path d="M242.84894,133.78423l3.61516,16.92893l4.36941,19.78899l1.4689,6.51778l-5.96654,0.96788l-1.60379,-6.23443l-3.75417,-18.39566l-3.70249,-18.05748l-1.47052,-6.56705l5.75713,-1.61926z" fill="#234175"/><path d="M246.81598,169.69757l10.33195,-0.7871l1.60926,7.31336l-12.97882,2.10537l-1.81023,-2.15252l0.20165,-4.11159l-0.91253,-3.41052z" fill="#6b7880"/><path d="M258.25723,173.96264l0.37767,2.30104l-13.00008,2.09781l-1.67725,-2.19011z" fill="#4f5863"/></g><g data-paper-data="{&quot;index&quot;:null}" stroke="#113c86" stroke-linecap="round"><path d="M233.44102,125.25015l11.24917,3.30921l-3.71482,6.77843l-3.41789,17.47565l-5.18623,24.61724l-11.86982,-2.22894l1.70701,-6.49522l4.55787,-18.35371z" data-paper-data="{&quot;index&quot;:null}" fill="#264780"/><path d="M233.44101,125.25016l4.47856,1.33086l-5.91667,25.58496l-4.42981,18.03483l-1.48373,6.05022l-5.58793,-1.04932l1.70701,-6.49522l4.43502,-18.37678z" data-paper-data="{&quot;index&quot;:null}" fill="#234175"/><path d="M226.22428,168.29974l8.12997,2.36165l-1.6248,7.30223l-12.58608,-2.36344l-1.23597,-3.24389l2.43632,-3.36162l1.00191,-3.3165z" fill="#6b7880"/><path d="M233.21043,175.73409l-0.48015,2.22708l-12.64685,-2.37487l-1.02011,-3.14469z" fill="#4f5863"/></g><path d="M231.93375,95.06131l8.21216,-3.69571l7.56772,3.1775l0.67861,5.95846l-0.40504,28.68221l-16.12502,0.18295z" data-paper-data="{&quot;index&quot;:null}" fill="#7a8799" stroke="#113c86" stroke-linecap="round"/><path d="M232.45897,111.2732l2.04841,-9.84766l2.10934,7.83642l-0.13925,13.54651l-0.34156,6.5298l-3.07195,0.06116l-0.48457,-7.06477z" data-paper-data="{&quot;index&quot;:null}" fill="#626b7a" stroke="#113c86" stroke-linecap="round"/><g data-paper-data="{&quot;index&quot;:null}" stroke="#113c86" stroke-linecap="round"><path d="M243.62484,126.69946l0.36977,0.33241l0.08663,4.10781l-4.12519,0.79156l-1.98642,-1.85194l0.01303,-0.5412z" data-paper-data="{&quot;index&quot;:null}" fill="#f7e5b4"/><path d="M236.41314,96.59128l2.4558,8.73204l5.58266,21.31269l-3.83051,2.32677l-3.23721,0.85356l-2.89456,-7.41332l-3.8396,-17.13342l-0.50655,-8.56744l2.77622,-1.76307z" fill="#234175"/><path d="M234.23932,104.76089l3.37086,16.78426l3.01091,7.41764l-3.23721,0.85356l-2.89456,-7.41332l-3.8396,-17.13342l-0.4826,-8.55477l2.75228,-1.77573z" fill="#264780"/></g><path d="" fill="#340000" stroke="none" stroke-linecap="round"/><path d="" fill="#340000" stroke="none" stroke-linecap="round"/><path d="M236.16797,92.89485v-2.33889h6.28501v2.33889z" data-paper-data="{&quot;index&quot;:null}" fill="#eddcae" stroke="#000000" stroke-linecap="butt"/><path d="M247.68661,93.45231l2.26249,2.4219l2.09056,3.60229l0.70525,7.05686l-5.81845,-7.22048l-7.69717,-4.00312l-4.4728,-1.38926l1.14011,-1.74192l6.23971,-0.09488l2.58369,-0.57652z" fill="url(#color-1)" stroke="#eb0095" stroke-linecap="round"/><path d="M242.89641,71.52347l3.61443,2.2511l2.12206,2.97694l0.44899,6.20758l-1.36707,4.41185l-3.69649,3.42814l-7.02943,2.02854l-3.24482,-1.93559l-1.89274,-2.71368l-1.95002,-7.80208l1.33877,-4.51975l2.38937,-3.56877l4.34511,-1.3747z" data-paper-data="{&quot;index&quot;:null}" fill="url(#color-2)" stroke="#000000" stroke-linecap="round"/><path d="M234.95453,70.20517l4.79258,-1.21477l6.31674,1.68441l-0.77712,0.24797l2.52093,1.79848l1.96661,3.66188l0.61635,4.82392l-0.94537,5.2365l-0.38021,-1.26488l-0.77973,3.24399l-0.36925,-1.46523l-1.58965,3.57325l-0.40096,-0.6757l-1.60606,1.72397l-0.13997,-0.64992l-1.49899,1.53238l-2.27839,-1.41683l-0.09319,0.88179l-3.1545,-1.39584l-1.46124,-2.85528l-0.55323,0.36954l-0.74407,-3.93621l-0.64825,-0.03412l-0.68254,5.84242l-1.94404,-5.52878l-0.46757,1.60149l-0.62477,-3.83296l-0.61345,0.73305l0.05738,-5.6762l1.99415,-4.30191z" data-paper-data="{&quot;index&quot;:null}" fill="#332c23" stroke="#a8ccff" stroke-linecap="round"/></g></g></svg>