<svg version="1.1" xmlns="http://www.w3.org/2000/svg" xmlns:xlink="http://www.w3.org/1999/xlink" width="32.89521" height="111.51345" viewBox="0,0,32.89521,111.51345"><defs><linearGradient x1="248.7468" y1="91.14774" x2="248.7468" y2="106.23854" gradientUnits="userSpaceOnUse" id="color-1"><stop offset="0" stop-color="#396fbf"/><stop offset="1" stop-color="#8e2e99"/></linearGradient><linearGradient x1="240.44039" y1="70.16606" x2="240.44039" y2="93.06674" gradientUnits="userSpaceOnUse" id="color-2"><stop offset="0" stop-color="#b3a788"/><stop offset="1" stop-color="#f2e2b8"/></linearGradient></defs><g transform="translate(-225.27821,-69.15214)"><g data-paper-data="{&quot;isPaintingLayer&quot;:true}" fill-rule="nonzero" stroke-width="0" stroke-linejoin="miter" stroke-miterlimit="10" stroke-dasharray="" stroke-dashoffset="0" style="mix-blend-mode: normal"><g data-paper-data="{&quot;index&quot;:null}" stroke="#113c86" stroke-linecap="round"><path d="M252.41197,149.55047l1.04578,15.16034l0.29094,6.99919h-11.79395l-0.58481,-6.41079l-1.21786,-14.87755l-0.80113,-17.1822l-0.4,-6.71779l11.45833,-1.88938z" fill="#264780"/><path d="M245.09533,132.63545l0.89563,16.05423l1.60208,16.35143l0.4063,6.66889h-6.04454l-0.58481,-6.41079l-1.21786,-14.87755l-0.80113,-17.1822l-0.4,-6.71779l5.94213,-0.67651z" fill="#234175"/><path d="M243.75617,163.60364l10.32467,0.87744l0.41745,7.47667h-13.14848l-1.4422,-2.4146l0.8574,-4.02624l-0.35466,-3.51263z" fill="#6b7880"/><path d="M254.36684,169.64565l0.00434,2.33181l-13.16825,-0.01087l-1.30491,-2.43042z" fill="#4f5863"/></g><g data-paper-data="{&quot;index&quot;:null}" stroke="#113c86" stroke-linecap="round"><path d="M232.60866,125.13545l11.66667,1.17626l-2.4,7.34758l-0.82367,17.80624l-0.60242,28.74237h-12.07728l0.47895,-6.69869l1.14083,-22.47047z" data-paper-data="{&quot;index&quot;:null}" fill="#264780"/><path d="M232.60866,125.13551l4.64725,0.48145l-1.78289,26.23742l-1.07382,22.13344l-0.34163,6.22012h-5.68559l0.47895,-6.69869l1.01583,-22.47047z" data-paper-data="{&quot;index&quot;:null}" fill="#234175"/><path d="M232.72272,172.36832l8.42617,0.82063l-0.24921,7.47665h-12.80606l-1.81342,-2.96006l1.77407,-3.75351l0.37261,-3.44444z" fill="#6b7880"/><path d="M240.9609,178.38562l-0.06088,2.27744h-12.8679l-1.58297,-2.9024z" fill="#4f5863"/></g><path d="M232.70571,125.06567l0.29272,0.96977l-1.08826,4.05178l-4.04559,-0.37195l-1.23949,-3.0437l0.20464,-0.88046z" data-paper-data="{&quot;index&quot;:null}" fill="#f7e5b4" stroke="#113c86" stroke-linecap="round"/><path d="M232.50178,103.57459l0.9095,21.38651l-4.03607,0.92204l-3.02262,-0.10721l-1.07438,-9.34511l0.56256,-12.79732l5.662,-9.00206z" data-paper-data="{&quot;index&quot;:null}" fill="#234175" stroke="#113c86" stroke-linecap="round"/><path d="M232.50178,103.57459l0.44148,6.5625l0.59599,14.84874l-3.14211,0.61244l-0.96421,-13.43769l2.28232,-16.44223z" data-paper-data="{&quot;index&quot;:null}" fill="#264780" stroke="#113c86" stroke-linecap="round"/><path d="M251.05373,129.69239l-18.84358,0.89031l-1.0887,-35.90234l8.93501,-3.0938l10.97997,3.28522l-0.2257,8.59132z" data-paper-data="{&quot;index&quot;:null}" fill="#7a8799" stroke="#113c86" stroke-linecap="round"/><path d="M233.42233,122.33464l-1.22164,6.17548l-1.0005,-31.2826l2.28428,14.04566z" fill="#626b7a" stroke="#113c86" stroke-linecap="round"/><path d="M249.44055,111.27315l1.49193,-14.04566l-0.1249,6.21048l0.22043,25.07212l-1.37164,-6.17548z" data-paper-data="{&quot;index&quot;:null}" fill="#626b7a" stroke="#113c86" stroke-linecap="round"/><g stroke="#113c86" stroke-linecap="round"><path d="M256.7176,133.57052l0.15904,0.51504l-1.31261,2.34131l-3.98667,0.41707l-1.03757,-3.96211l0.24769,-0.42401z" data-paper-data="{&quot;index&quot;:null}" fill="#f7e5b4"/><path d="M250.06315,94.49522l1.66412,0.60326l4.7969,8.76756l1.64925,21.86966l-0.83273,7.93083l-3.19168,0.10455l-4.13463,-1.13844l-0.37895,-26.59571z" fill="#234175"/><path d="M251.72725,95.09847l4.7969,8.76756l1.64925,21.86966l-0.83273,7.93083l-3.19168,0.10455l0.73613,-7.96814l-1.37747,-21.40138z" fill="#264780"/></g><path d="" fill="#340000" stroke="none" stroke-linecap="round"/><path d="" fill="#340000" stroke="none" stroke-linecap="round"/><path d="M237.41102,92.84954l-0.27416,-2.61305h6.65056l-0.27416,2.61305l-1.61575,0.75075l-2.83515,-0.01702z" fill="#eddbad" stroke="#000000" stroke-linecap="butt"/><path d="M245.77977,91.14774l5.03309,0.91801l5.97873,7.44153l0.97137,5.91894l-6.66774,-5.32223l-4.83194,-1.56896l-7.75757,-4.80786l-1.41871,-2.20914l3.49902,1.3141z" data-paper-data="{&quot;index&quot;:null}" fill="url(#color-1)" stroke="#eb0095" stroke-linecap="round"/><path d="M245.60197,71.71634l2.88765,4.25671l0.87387,4.65734l-1.44581,7.88339l-2.83346,3.08691l-4.6052,1.46604l-4.62529,-1.65938l-2.72046,-2.94356l-1.61598,-7.73425l1.14741,-4.82931l2.93993,-3.98683l4.80696,-1.74735z" data-paper-data="{&quot;index&quot;:null}" fill="url(#color-2)" stroke="#000000" stroke-linecap="round"/><path d="M250.27413,81.53492l-0.26755,4.08368l-0.24509,-0.47421l-0.81601,2.80215l-0.03344,-1.0897l-0.96537,1.67618l-1.45489,1.657l0.36429,-0.90423l-1.46749,1.36379l0.12228,-1.25009l-1.36959,1.60382l-7.17075,0.0236l-2.72955,-1.94819l-0.24842,1.09313l-0.57814,-1.33647l-0.741,-0.15058l-0.0241,-2.15434l-0.8969,1.56278l-1.16569,-4.76298l4.02469,-8.56981l11.29228,-0.35484z" data-paper-data="{&quot;index&quot;:null}" fill-opacity="0.65098" fill="#332c23" stroke="#000000" stroke-linecap="round"/><path d="M244.71327,70.15025l0.36398,-0.99811l1.15965,2.45966l3.1841,1.61729l-0.85547,0.96338l1.43626,2.11991l1.02895,5.86176l-0.53807,-0.82248l-0.35314,3.46608l-2.44652,4.25233l0.22998,-1.44242l-5.00355,4.23958l-0.09133,-0.6741l-2.31642,1.10634l-2.44706,-1.2983l-0.13717,0.64992l-1.91502,-1.50799l-0.39292,0.6757l-2.69917,-3.78923l0.04412,1.46523l-1.7843,-3.24399l-0.37259,1.26488l-0.34754,-5.2365l0.71977,-4.9397l1.92721,-3.66188l2.1231,-1.45115l-0.76155,-0.13219l5.5861,-1.80019z" data-paper-data="{&quot;index&quot;:null}" fill="#332c23" stroke="#a8ccff" stroke-linecap="round"/></g></g></svg>