<svg version="1.1" xmlns="http://www.w3.org/2000/svg" xmlns:xlink="http://www.w3.org/1999/xlink" width="34.47806" height="109.3785" viewBox="0,0,34.47806,109.3785"><defs><linearGradient x1="276.5609" y1="128.37867" x2="276.5609" y2="154.38745" gradientUnits="userSpaceOnUse" id="color-1"><stop offset="0" stop-color="#000000"/><stop offset="1" stop-color="#000000" stop-opacity="0"/></linearGradient><linearGradient x1="276.5609" y1="156.04539" x2="276.5609" y2="182.05413" gradientUnits="userSpaceOnUse" id="color-2"><stop offset="0" stop-color="#000000"/><stop offset="1" stop-color="#000000" stop-opacity="0"/></linearGradient><linearGradient x1="276.5609" y1="183.71206" x2="276.5609" y2="209.7208" gradientUnits="userSpaceOnUse" id="color-3"><stop offset="0" stop-color="#000000"/><stop offset="1" stop-color="#000000" stop-opacity="0"/></linearGradient><linearGradient x1="276.89423" y1="211.37873" x2="276.89423" y2="237.38747" gradientUnits="userSpaceOnUse" id="color-4"><stop offset="0" stop-color="#000000"/><stop offset="1" stop-color="#000000" stop-opacity="0"/></linearGradient><linearGradient x1="233.46243" y1="91.64229" x2="233.46243" y2="106.56642" gradientUnits="userSpaceOnUse" id="color-5"><stop offset="0" stop-color="#396fbf"/><stop offset="1" stop-color="#8e2e99"/></linearGradient><linearGradient x1="237.43948" y1="92.48561" x2="237.43948" y2="102.05125" gradientUnits="userSpaceOnUse" id="color-6"><stop offset="0" stop-color="#396fbf"/><stop offset="1" stop-color="#8e2e99"/></linearGradient><linearGradient x1="240.51745" y1="69.03206" x2="240.51745" y2="93.204" gradientUnits="userSpaceOnUse" id="color-7"><stop offset="0" stop-color="#998e70"/><stop offset="1" stop-color="#f3e1b2"/></linearGradient></defs><g transform="translate(-223.34238,-67.71596)"><g data-paper-data="{&quot;isPaintingLayer&quot;:true}" fill-rule="nonzero" stroke-linejoin="miter" stroke-miterlimit="10" stroke-dasharray="" stroke-dashoffset="0" style="mix-blend-mode: normal"><path d="" fill="#340000" stroke="none" stroke-width="0" stroke-linecap="round"/><path d="" fill="#340000" stroke="none" stroke-width="0" stroke-linecap="round"/><g stroke-linecap="round"><path d="" data-paper-data="{&quot;index&quot;:null}" fill="#f7e5b5" stroke="#a8ccff" stroke-width="0"/><path d="" data-paper-data="{&quot;index&quot;:null}" fill="url(#color-1)" stroke="#a8ccff" stroke-width="0"/><path d="" data-paper-data="{&quot;index&quot;:null}" fill="none" stroke="#000000" stroke-width="0.5"/><g stroke="none" stroke-width="0"><path d="" fill="#fafafa"/><path d="" fill="#4d0000"/><path d="" fill="#3f0000"/></g><g stroke="none" stroke-width="0"><g data-paper-data="{&quot;index&quot;:null}"><path d="" fill="#fafafa"/><path d="" fill="#340000"/></g><g data-paper-data="{&quot;index&quot;:null}"><path d="" fill="#3f0000"/><path d="" fill="#340000"/></g></g><path d="" data-paper-data="{&quot;index&quot;:null}" fill="#061631" stroke="#a8ccff" stroke-width="0"/></g><g stroke-linecap="round"><path d="" data-paper-data="{&quot;index&quot;:null}" fill="#f7e5b5" stroke="#a8ccff" stroke-width="0"/><path d="" data-paper-data="{&quot;index&quot;:null}" fill="url(#color-2)" stroke="#a8ccff" stroke-width="0"/><path d="" data-paper-data="{&quot;index&quot;:null}" fill="none" stroke="#000000" stroke-width="0.5"/><g stroke="none" stroke-width="0"><path d="" fill="#fafafa"/><path d="" fill="#4d0000"/><path d="" fill="#3f0000"/></g><g stroke="none" stroke-width="0"><g data-paper-data="{&quot;index&quot;:null}"><path d="" fill="#fafafa"/><path d="" fill="#340000"/></g><g data-paper-data="{&quot;index&quot;:null}"><path d="" fill="#3f0000"/><path d="" fill="#340000"/></g></g><path d="" data-paper-data="{&quot;index&quot;:null}" fill="#061631" stroke="#a8ccff" stroke-width="0"/></g><g stroke-linecap="round"><path d="" data-paper-data="{&quot;index&quot;:null}" fill="#f7e5b5" stroke="#a8ccff" stroke-width="0"/><path d="" data-paper-data="{&quot;index&quot;:null}" fill="url(#color-3)" stroke="#a8ccff" stroke-width="0"/><path d="" data-paper-data="{&quot;index&quot;:null}" fill="none" stroke="#000000" stroke-width="0.5"/><g stroke="none" stroke-width="0"><path d="" fill="#fafafa"/><path d="" fill="#4d0000"/><path d="" fill="#3f0000"/></g><g stroke="none" stroke-width="0"><g data-paper-data="{&quot;index&quot;:null}"><path d="" fill="#fafafa"/><path d="" fill="#340000"/></g><g data-paper-data="{&quot;index&quot;:null}"><path d="" fill="#3f0000"/><path d="" fill="#340000"/></g></g><path d="" data-paper-data="{&quot;index&quot;:null}" fill="#061631" stroke="#a8ccff" stroke-width="0"/></g><g stroke-linecap="round"><path d="" data-paper-data="{&quot;index&quot;:null}" fill="#f7e5b5" stroke="#a8ccff" stroke-width="0"/><path d="" data-paper-data="{&quot;index&quot;:null}" fill="url(#color-4)" stroke="#a8ccff" stroke-width="0"/><path d="" data-paper-data="{&quot;index&quot;:null}" fill="none" stroke="#000000" stroke-width="0.5"/><g stroke="none" stroke-width="0"><path d="" fill="#fafafa"/><path d="" fill="#4d0000"/><path d="" fill="#3f0000"/></g><g stroke="none" stroke-width="0"><g data-paper-data="{&quot;index&quot;:null}"><path d="" fill="#fafafa"/><path d="" fill="#340000"/></g><g data-paper-data="{&quot;index&quot;:null}"><path d="" fill="#3f0000"/><path d="" fill="#340000"/></g></g><path d="" data-paper-data="{&quot;index&quot;:null}" fill="#061631" stroke="#a8ccff" stroke-width="0"/></g><path d="M255.75587,127.49336l0.5354,1.3391l-1.39088,3.0437l-4.53973,0.37195l-1.22118,-4.05178l0.48135,-1.27552z" data-paper-data="{&quot;index&quot;:null}" fill="#f7e5b4" stroke="#eb905c" stroke-width="0" stroke-linecap="round"/><path d="M231.69093,129.33008l0.48135,1.27553l-1.22118,4.05178l-4.53973,-0.37195l-1.39088,-3.0437l0.5354,-1.33909z" data-paper-data="{&quot;index&quot;:null}" fill="#f7e5b4" stroke="#eb905c" stroke-width="0" stroke-linecap="round"/><g fill="none" stroke="none" stroke-width="1" stroke-linecap="butt" font-family="sans-serif" font-weight="normal" font-size="12" text-anchor="start"/><path d="M245.85828,94.19636l5.09334,1.03915l5.30094,8.85989l1.56788,17.40485l-1.58333,7.25911l-3.10738,1.29279l-4.40115,-2.45003l0.37851,-12.80352l-1.26182,-10.52738l-2.81723,-5.28463z" fill="#234175" stroke="#264780" stroke-width="0" stroke-linecap="round"/><path d="M252.52357,151.03874l1.46727,18.87961l0.47895,6.69869h-12.07728l-0.92886,-25.15151l-1.25893,-17.80624l-2.4,-7.34758l11.66667,-1.17626z" data-paper-data="{&quot;index&quot;:null}" fill="#234175" stroke="#264780" stroke-width="0" stroke-linecap="round"/><path d="M254.4149,166.9167l0.37261,3.44444l1.77407,3.75351l-1.81342,2.96006h-12.80606l-0.24921,-7.47665l8.42617,-0.82063z" fill="#6b7880" stroke="#264780" stroke-width="0" stroke-linecap="round"/><path d="M254.82121,170.4211l1.73611,3.68644l-1.74768,2.96461h-12.8679l-0.14422,-1.6941z" fill="#4f5863" stroke="#264780" stroke-width="0" stroke-linecap="round"/><path d="M232.65121,124.63224l11.45833,1.88938l-0.4,6.71779l-1.68337,18.41734l-2.1001,18.75942l-0.58481,6.41079h-11.79395l0.29094,-6.99919l1.92802,-19.04221z" fill="#234175" stroke="#264780" stroke-width="0" stroke-linecap="round"/><path d="M240.88567,167.12121l-0.35466,3.51263l0.8574,4.02624l-1.4422,2.4146h-13.14848l0.41745,-7.47667l10.32467,-0.87744z" fill="#6b7880" stroke="#264780" stroke-width="0" stroke-linecap="round"/><path d="M240.54838,170.67493l0.84368,3.97232l-1.42409,2.43634l-13.16825,0.01087l-0.079,-1.74848z" fill="#4f5863" stroke="#264780" stroke-width="0" stroke-linecap="round"/><path d="M250.23183,127.83746l-17.99668,0.6726l-0.78347,-34.44322c0,0 6.29868,-2.7439 8.65114,-2.53455c2.22581,0.19807 9.98016,2.94571 9.98016,2.94571z" fill="#7a8799" stroke="#264780" stroke-width="0" stroke-linecap="round"/><path d="M242.42585,127.86007c0,0 0.03446,-18.00976 -0.13481,-24.47241c-0.15723,-6.00348 -0.69459,-10.92758 -0.69459,-10.92758h0.82452c0,0 0.53759,4.9332 0.69489,10.93882c0.16922,6.46106 0.13451,24.41673 0.13451,24.41673z" fill="#c8c8c8" stroke="#264780" stroke-width="0" stroke-linecap="butt"/><path d="M234.65416,98.45968l-0.83466,5.28162l-0.60823,8.34159l-0.57575,17.05528l-4.83674,1.34886l-3.14662,-0.02548l-1.30978,-9.46049l1.27727,-17.20084l5.9963,-8.14479l3.82295,-1.7794z" data-paper-data="{&quot;index&quot;:null}" fill="#234175" stroke="#264780" stroke-width="0" stroke-linecap="round"/><path d="M237.57281,92.59214l5.98913,0.3186l-3.21395,3.02155l-5.88892,4.55l-4.83194,1.56896l-6.26421,4.51517l0.97137,-6.56459l5.97873,-7.44153l5.03309,-0.91801z" fill="url(#color-5)" stroke="#264780" stroke-width="0" stroke-linecap="round"/><path d="M243.69761,92.48561l1.55418,0.09217l-0.75534,1.47586l-4.14843,1.87865l-5.88892,4.55l-4.83193,1.56896l4.35498,-3.40888l5.39997,-4.25464z" fill="url(#color-6)" stroke="#264780" stroke-width="0" stroke-linecap="round"/><path d="M236.61811,92.54436l-3.13175,-2.69182l-1.97733,-4.77646l-0.06309,-5.39739l0.28506,-6.10761l3.11823,-2.67321l5.33285,-1.86581l5.07851,1.06495l3.57575,2.54253l0.15563,4.20944l0.59698,7.55821l-0.89438,3.21826l-1.85337,3.24585l-3.69961,2.31919l-4.02253,0.01351z" data-paper-data="{&quot;index&quot;:null}" fill="url(#color-7)" stroke="#eb905c" stroke-width="0" stroke-linecap="round"/><path d="M241.57114,68.05573l5.61846,1.81102l3.6195,4.99667l0.48822,6.72891l-1.30035,5.57437l-2.131,-3.62489l-2.78848,-0.986l-5.54451,0.19158l-3.84496,-2.67012l0.42344,2.63981l-1.08939,0.66202l-2.41544,-2.26206l1.12842,3.4544l-0.19186,2.80405l-0.91122,0.59746l-0.52146,3.85797l-2.30684,-5.67699l-0.86364,-5.74228l1.22192,-5.30479l1.58115,-2.85297l-1.37487,-1.14608l3.75357,-0.89211l1.18457,-2.49974l0.37181,1.01437z" data-paper-data="{&quot;index&quot;:null}" fill="#332c23" stroke="#eb905c" stroke-width="0" stroke-linecap="round"/><path d="M243.24527,84.52626l5.15098,0.10772l-0.61992,2.60706l-4.49769,0.18926z" fill="#fafafa" stroke="#eb905c" stroke-width="0" stroke-linecap="round"/><path d="M244.44337,84.66642l2.2873,0.00457l-0.32902,2.57108l-2.06895,0.03213z" fill="#3f0000" stroke="#eb905c" stroke-width="0" stroke-linecap="round"/><path d="M240.43608,90.61972h2.46305" fill="none" stroke="#000000" stroke-width="0.25" stroke-linecap="round"/><path d="M239.93606,87.43911l-4.72767,-0.15717l-0.65196,-2.6426l5.44147,-0.06171z" fill="#fafafa" stroke="#eb905c" stroke-width="0" stroke-linecap="round"/><path d="M239.08328,87.25851l-2.19614,-0.01669l-0.09473,-2.49921l2.35824,-0.03255z" fill="#3f0000" stroke="#eb905c" stroke-width="0" stroke-linecap="round"/></g></g></svg>