<svg version="1.1" xmlns="http://www.w3.org/2000/svg" xmlns:xlink="http://www.w3.org/1999/xlink" width="116.32134" height="19.19145" viewBox="0,0,116.32134,19.19145"><g transform="translate(-303.05396,-45.40446)"><g data-paper-data="{&quot;isPaintingLayer&quot;:true}" fill-rule="nonzero" stroke-linecap="butt" stroke-linejoin="miter" stroke-miterlimit="10" stroke-dasharray="" stroke-dashoffset="0" style="mix-blend-mode: normal"><path d="M415.68914,64.22091c-3.02801,0 -39.83196,0 -46.98437,0c-2.01247,0 -3.27551,-2.49955 -3.27551,-4.29521c0,-0.30642 0,-6.38871 0,-9.73726c0,-2.39164 1.27338,-4.40898 3.30341,-4.40898c6.97913,0 43.0868,0 46.95647,0c1.65747,0 3.31117,2.54255 3.31117,4.35764c0,1.62246 0,6.98484 0,9.75176c0,2.38775 -1.65369,4.33205 -3.31117,4.33205z" data-paper-data="{&quot;index&quot;:null}" fill-opacity="0.30196" fill="#ffffff" stroke="#ebebeb" stroke-width="0.75"/><text transform="translate(380.69798,58.45521) scale(0.28792,0.28792)" font-size="40" xml:space="preserve" data-paper-data="{&quot;index&quot;:null}" fill="#ebebeb" fill-rule="nonzero" stroke="#e6e6e6" stroke-width="0" stroke-linecap="butt" stroke-linejoin="miter" stroke-miterlimit="10" stroke-dasharray="" stroke-dashoffset="0" font-family="Sans Serif" font-weight="normal" text-anchor="start" style="mix-blend-mode: normal"><tspan x="0" dy="0">启用</tspan></text><path d="M353.68885,64.22091c-3.02801,0 -39.83196,0 -46.98437,0c-2.01247,0 -3.27551,-2.49955 -3.27551,-4.29521c0,-0.30642 0,-6.38871 0,-9.73726c0,-2.39164 1.27338,-4.40898 3.30341,-4.40898c6.97913,0 43.0868,0 46.95647,0c1.65747,0 3.31117,2.54255 3.31117,4.35764c0,1.62246 0,6.98484 0,9.75176c0,2.38775 -1.65369,4.33205 -3.31117,4.33205z" data-paper-data="{&quot;index&quot;:null}" fill-opacity="0.05098" fill="#ffffff" stroke="#ebebeb" stroke-width="0.75"/><text transform="translate(318.69768,58.45521) scale(0.28792,0.28792)" font-size="40" xml:space="preserve" data-paper-data="{&quot;index&quot;:null}" fill="#ebebeb" fill-rule="nonzero" stroke="#e6e6e6" stroke-width="0" stroke-linecap="butt" stroke-linejoin="miter" stroke-miterlimit="10" stroke-dasharray="" stroke-dashoffset="0" font-family="Sans Serif" font-weight="normal" text-anchor="start" style="mix-blend-mode: normal"><tspan x="0" dy="0">禁用</tspan></text></g></g></svg>