<svg version="1.1" xmlns="http://www.w3.org/2000/svg" xmlns:xlink="http://www.w3.org/1999/xlink" width="34.38627" height="107.94235" viewBox="0,0,34.38627,107.94235"><defs><linearGradient x1="248.7468" y1="91.14774" x2="248.7468" y2="106.23854" gradientUnits="userSpaceOnUse" id="color-1"><stop offset="0" stop-color="#396fbf"/><stop offset="1" stop-color="#8e2e99"/></linearGradient><linearGradient x1="240.44038" y1="70.16606" x2="240.44038" y2="93.06674" gradientUnits="userSpaceOnUse" id="color-2"><stop offset="0" stop-color="#b3a788"/><stop offset="1" stop-color="#f2e2b8"/></linearGradient></defs><g transform="translate(-224.09782,-69.15214)"><g data-paper-data="{&quot;isPaintingLayer&quot;:true}" fill-rule="nonzero" stroke-width="0" stroke-linejoin="miter" stroke-miterlimit="10" stroke-dasharray="" stroke-dashoffset="0" style="mix-blend-mode: normal"><g stroke="#113c86" stroke-linecap="round"><path d="M257.02635,129.21792l0.15928,0.51504l-1.31462,2.34131l-3.99278,0.41707l-1.03916,-3.96211l0.24807,-0.42401z" data-paper-data="{&quot;index&quot;:null}" fill="#f7e5b4"/><path d="M247.04251,94.14693l4.88191,0.95153l4.80487,8.76756l1.7548,17.5171l-0.8337,7.93083l-3.19658,0.10455l-4.14096,-1.13844l-0.79532,-22.24315l-3.18941,-7.0862z" fill="#234175"/><path d="M247.04251,94.14693l4.88191,0.95153l4.80487,8.76756l1.7548,17.5171l-0.8337,7.93083l-3.19658,0.10455l0.73726,-7.96814l-1.48352,-17.04882z" fill="#264780"/></g><g data-paper-data="{&quot;index&quot;:null}" stroke="#113c86" stroke-linecap="round"><path d="M253.29426,150.78561l1.92802,19.04221l0.29094,6.99919h-11.79395l-0.58481,-6.41079l-2.1001,-18.75942l-1.68337,-18.41734l-0.4,-6.71779l11.45833,-1.88938z" fill="#264780"/><path d="M245.09536,132.63545l1.77787,17.28937l2.48432,20.2333l0.4063,6.66889h-6.04454l-0.58481,-6.41079l-2.1001,-18.75942l-1.68337,-18.41734l-0.4,-6.71779l5.94213,-0.67651z" fill="#234175"/><path d="M245.52068,168.7206l10.32467,0.87744l0.41745,7.47667h-13.14848l-1.4422,-2.4146l0.8574,-4.02624l-0.35466,-3.51263z" fill="#6b7880"/><path d="M256.13131,174.76268l0.00434,2.33181l-13.16825,-0.01087l-1.30491,-2.43042z" fill="#4f5863"/></g><g data-paper-data="{&quot;index&quot;:null}" stroke="#113c86" stroke-linecap="round"><path d="M232.60868,125.13545l11.66667,1.17626l-2.4,7.34758l-1.25893,17.80624l-0.92886,25.15151h-12.07728l0.47895,-6.69869l1.46727,-18.87961z" data-paper-data="{&quot;index&quot;:null}" fill="#264780"/><path d="M232.60868,125.13553l4.64725,0.48145l-2.21815,26.23742l-1.40026,18.54258l-0.34163,6.22012h-5.68559l0.47895,-6.69869l1.34227,-18.87961z" data-paper-data="{&quot;index&quot;:null}" fill="#234175"/><path d="M231.96103,168.77745l8.42617,0.82063l-0.24921,7.47665h-12.80606l-1.81342,-2.96006l1.77407,-3.75351l0.37261,-3.44444z" fill="#6b7880"/><path d="M240.19921,174.79474l-0.06088,2.27744h-12.8679l-1.58297,-2.9024z" fill="#4f5863"/></g><path d="M251.05376,129.69239l-18.84358,0.89031l-1.0887,-35.90234l8.93501,-3.0938l10.97997,3.28522l-0.2257,8.59132z" data-paper-data="{&quot;index&quot;:null}" fill="#7a8799" stroke="#113c86" stroke-linecap="round"/><path d="M233.42232,122.33464l-1.22164,6.17548l-1.0005,-31.2826l2.28428,14.04566z" fill="#626b7a" stroke="#113c86" stroke-linecap="round"/><path d="M249.44054,111.27315l1.49193,-14.04566l-0.1249,6.21048l0.22043,25.07212l-1.37164,-6.17548z" data-paper-data="{&quot;index&quot;:null}" fill="#626b7a" stroke="#113c86" stroke-linecap="round"/><path d="M231.40908,129.63581l0.28813,0.96977l-1.07122,4.05178l-3.98226,-0.37195l-1.22008,-3.0437l0.20144,-0.88046z" data-paper-data="{&quot;index&quot;:null}" fill="#f7e5b4" stroke="#113c86" stroke-linecap="round"/><path d="M232.0674,103.57459l0.03619,25.9567l-3.9729,0.92204l-2.97531,-0.10721l-1.05756,-9.34511l1.41282,-17.36751l5.89148,-9.00206z" data-paper-data="{&quot;index&quot;:null}" fill="#234175" stroke="#113c86" stroke-linecap="round"/><path d="M232.0674,103.57459l0.16216,25.98143l-3.09292,0.61244l-0.09004,-18.00788l2.2466,-16.44223z" data-paper-data="{&quot;index&quot;:null}" fill="#264780" stroke="#113c86" stroke-linecap="round"/><path d="" fill="#340000" stroke="none" stroke-linecap="round"/><path d="" fill="#340000" stroke="none" stroke-linecap="round"/><path d="M237.41105,92.84954l-0.27416,-2.61305h6.65056l-0.27416,2.61305l-1.61575,0.75075l-2.83515,-0.01702z" fill="#eddbad" stroke="#000000" stroke-linecap="butt"/><path d="M245.77977,91.14774l5.03309,0.91801l5.97873,7.44153l0.97137,5.91894l-6.66774,-5.32223l-4.83194,-1.56896l-7.75757,-4.80786l-1.41871,-2.20914l3.49902,1.3141z" data-paper-data="{&quot;index&quot;:null}" fill="url(#color-1)" stroke="#eb0095" stroke-linecap="round"/><path d="M245.60196,71.71634l2.88765,4.25671l0.87387,4.65734l-1.44581,7.88339l-2.83346,3.08691l-4.6052,1.46604l-4.62529,-1.65938l-2.72046,-2.94356l-1.61598,-7.73425l1.14741,-4.82931l2.93993,-3.98683l4.80696,-1.74735z" data-paper-data="{&quot;index&quot;:null}" fill="url(#color-2)" stroke="#000000" stroke-linecap="round"/><path d="M250.27412,81.53493l-0.26755,4.08368l-0.24509,-0.47421l-0.81601,2.80215l-0.03344,-1.0897l-0.96537,1.67618l-1.45489,1.657l0.36429,-0.90423l-1.46749,1.36379l0.12228,-1.25009l-1.36959,1.60382l-7.17075,0.0236l-2.72955,-1.94819l-0.24842,1.09313l-0.57814,-1.33647l-0.741,-0.15058l-0.0241,-2.15434l-0.8969,1.56278l-1.16569,-4.76298l4.02469,-8.56981l11.29228,-0.35484z" data-paper-data="{&quot;index&quot;:null}" fill-opacity="0.65098" fill="#332c23" stroke="#000000" stroke-linecap="round"/><path d="M244.71326,70.15025l0.36398,-0.99811l1.15965,2.45966l3.1841,1.61729l-0.85547,0.96338l1.43626,2.11991l1.02895,5.86176l-0.53807,-0.82248l-0.35314,3.46608l-2.44652,4.25233l0.22998,-1.44242l-5.00355,4.23958l-0.09133,-0.6741l-2.31642,1.10634l-2.44706,-1.2983l-0.13717,0.64992l-1.91502,-1.50799l-0.39292,0.6757l-2.69917,-3.78923l0.04412,1.46523l-1.7843,-3.24399l-0.37259,1.26488l-0.34754,-5.2365l0.71977,-4.9397l1.92721,-3.66188l2.1231,-1.45115l-0.76155,-0.13219l5.5861,-1.80019z" data-paper-data="{&quot;index&quot;:null}" fill="#332c23" stroke="#a8ccff" stroke-linecap="round"/></g></g></svg>