<svg version="1.1" xmlns="http://www.w3.org/2000/svg" xmlns:xlink="http://www.w3.org/1999/xlink" width="238.3211" height="226.90735" viewBox="0,0,238.3211,226.90735"><g transform="translate(-181.0541,-45.40437)"><g data-paper-data="{&quot;isPaintingLayer&quot;:true}" fill-rule="nonzero" stroke-linecap="butt" stroke-linejoin="miter" stroke-miterlimit="10" stroke-dasharray="" stroke-dashoffset="0" style="mix-blend-mode: normal"><path d="M181.42911,59.88878c0,-2.76692 0,-8.1293 0,-9.75176c0,-1.81509 1.6537,-4.35764 3.31118,-4.35764c3.86967,0 59.97734,0 66.95647,0c2.03004,0 3.30341,2.01734 3.30341,4.40898c0,3.34855 0,9.43084 0,9.73726c0,1.79566 -1.26304,4.29521 -3.2755,4.29521c-7.15241,0 -63.95636,0 -66.98437,0c-1.65748,0 -3.31118,-1.9443 -3.31118,-4.33205z" fill-opacity="0.05098" fill="#ffffff" stroke="#ebebeb" stroke-width="0.75"/><path d="M263.42895,59.88878c0,-2.76692 0,-8.1293 0,-9.75176c0,-1.81509 1.6537,-4.35764 3.31117,-4.35764c3.86967,0 59.97734,0 66.95647,0c2.03003,0 3.30341,2.01734 3.30341,4.40898c0,3.34855 0,9.43084 0,9.73726c0,1.79566 -1.26304,4.29521 -3.27551,4.29521c-7.15241,0 -63.95636,0 -66.98437,0c-1.65748,0 -3.31117,-1.9443 -3.31117,-4.33205z" fill-opacity="0.05098" fill="#ffffff" stroke="#ebebeb" stroke-width="0.75"/><text transform="translate(280.60141,58.45513) scale(0.28792,0.28792)" font-size="40" xml:space="preserve" data-paper-data="{&quot;index&quot;:null}" fill="#ebebeb" fill-rule="nonzero" stroke="#e6e6e6" stroke-width="0" stroke-linecap="butt" stroke-linejoin="miter" stroke-miterlimit="10" stroke-dasharray="" stroke-dashoffset="0" font-family="Sans Serif" font-weight="normal" text-anchor="start" style="mix-blend-mode: normal"><tspan x="0" dy="0">Dvorak</tspan></text><path d="M345.42916,59.88878c0,-2.76692 0,-8.1293 0,-9.75176c0,-1.81509 1.6537,-4.35764 3.31117,-4.35764c3.86967,0 59.97734,0 66.95647,0c2.03003,0 3.30341,2.01734 3.30341,4.40898c0,3.34855 0,9.43084 0,9.73726c0,1.79566 -1.26304,4.29521 -3.27551,4.29521c-7.15241,0 -63.95636,0 -66.98437,0c-1.65748,0 -3.31117,-1.9443 -3.31117,-4.33205z" fill-opacity="0.30196" fill="#ffffff" stroke="#ebebeb" stroke-width="0.75"/><text transform="translate(358.21372,58.45513) scale(0.28792,0.28792)" font-size="40" xml:space="preserve" data-paper-data="{&quot;index&quot;:null}" fill="#ebebeb" fill-rule="nonzero" stroke="#e6e6e6" stroke-width="0" stroke-linecap="butt" stroke-linejoin="miter" stroke-miterlimit="10" stroke-dasharray="" stroke-dashoffset="0" font-family="Sans Serif" font-weight="normal" text-anchor="start" style="mix-blend-mode: normal"><tspan x="0" dy="0">Colemak</tspan></text><text transform="translate(194.88166,58.45513) scale(0.28792,0.28792)" font-size="40" xml:space="preserve" data-paper-data="{&quot;index&quot;:null}" fill="#ebebeb" fill-rule="nonzero" stroke="#e6e6e6" stroke-width="0" stroke-linecap="butt" stroke-linejoin="miter" stroke-miterlimit="10" stroke-dasharray="" stroke-dashoffset="0" font-family="Sans Serif" font-weight="normal" text-anchor="start" style="mix-blend-mode: normal"><tspan x="0" dy="0">QWERTY</tspan></text><path d="M234.14455,110.2063c0,-1.25699 1.63099,-3.01776 3.26572,-3.01776c3.81654,0 8.3042,0 15.1875,0c2.00217,0 3.25806,1.39705 3.25806,3.05332c0,2.31894 0,15.18621 0,15.39841c0,1.24354 -1.2457,2.97453 -3.23053,2.97453c-7.0542,0 -12.22859,0 -15.21503,0c-1.63472,0 -3.26571,-1.34647 -3.26571,-3.00004z" fill-opacity="0.30196" fill="#333333" stroke-opacity="0.6" stroke="#ebebeb" stroke-width="0.75"/><path d="M260.14441,123.7063c0,-1.25699 1.63099,-3.01776 3.26572,-3.01776c3.81654,0 8.3042,0 15.1875,0c2.00217,0 3.25806,1.39705 3.25806,3.05332c0,2.31894 0,15.18621 0,15.39841c0,1.24354 -1.2457,2.97453 -3.23053,2.97453c-7.0542,0 -12.22859,0 -15.21503,0c-1.63472,0 -3.26571,-1.34647 -3.26571,-3.00004z" fill-opacity="0.30196" fill="#333333" stroke-opacity="0.6" stroke="#ebebeb" stroke-width="0.75"/><path d="M208.14455,123.7063c0,-1.25699 1.63099,-3.01776 3.26572,-3.01776c3.81654,0 8.3042,0 15.1875,0c2.00217,0 3.25806,1.39705 3.25806,3.05332c0,2.31894 0,15.18621 0,15.39841c0,1.24354 -1.2457,2.97453 -3.23053,2.97453c-7.0542,0 -12.22859,0 -15.21503,0c-1.63472,0 -3.26571,-1.34647 -3.26571,-3.00004z" fill-opacity="0.30196" fill="#333333" stroke-opacity="0.6" stroke="#ebebeb" stroke-width="0.75"/><path d="M234.14455,137.20621c0,-1.25699 1.63099,-3.01776 3.26572,-3.01776c3.81654,0 8.3042,0 15.1875,0c2.00217,0 3.25806,1.39705 3.25806,3.05332c0,2.31894 0,15.18621 0,15.39841c0,1.24354 -1.2457,2.97453 -3.23053,2.97453c-7.0542,0 -12.22859,0 -15.21503,0c-1.63472,0 -3.26571,-1.34647 -3.26571,-3.00004z" fill-opacity="0.30196" fill="#333333" stroke-opacity="0.6" stroke="#ebebeb" stroke-width="0.75"/><path d="M344.14451,110.2063c0,-1.25699 1.63099,-3.01776 3.26572,-3.01776c3.81654,0 8.3042,0 15.1875,0c2.00217,0 3.25806,1.39705 3.25806,3.05332c0,2.31894 0,15.18621 0,15.39841c0,1.24354 -1.2457,2.97453 -3.23053,2.97453c-7.0542,0 -12.22859,0 -15.21503,0c-1.63472,0 -3.26571,-1.34647 -3.26571,-3.00004z" fill-opacity="0.30196" fill="#333333" stroke-opacity="0.6" stroke="#ebebeb" stroke-width="0.75"/><path d="M370.14451,123.7063c0,-1.25699 1.63099,-3.01776 3.26572,-3.01776c3.81654,0 8.3042,0 15.1875,0c2.00217,0 3.25806,1.39705 3.25806,3.05332c0,2.31894 0,15.18621 0,15.39841c0,1.24354 -1.2457,2.97453 -3.23053,2.97453c-7.0542,0 -12.22859,0 -15.21503,0c-1.63472,0 -3.26571,-1.34647 -3.26571,-3.00004z" fill-opacity="0.30196" fill="#333333" stroke-opacity="0.6" stroke="#ebebeb" stroke-width="0.75"/><path d="M318.14441,123.7063c0,-1.25699 1.63099,-3.01776 3.26572,-3.01776c3.81654,0 8.3042,0 15.1875,0c2.00217,0 3.25806,1.39705 3.25806,3.05332c0,2.31894 0,15.18621 0,15.39841c0,1.24354 -1.2457,2.97453 -3.23053,2.97453c-7.0542,0 -12.22859,0 -15.21503,0c-1.63472,0 -3.26571,-1.34647 -3.26571,-3.00004z" fill-opacity="0.30196" fill="#333333" stroke-opacity="0.6" stroke="#ebebeb" stroke-width="0.75"/><path d="M344.14451,137.20621c0,-1.25699 1.63099,-3.01776 3.26572,-3.01776c3.81654,0 8.3042,0 15.1875,0c2.00217,0 3.25806,1.39705 3.25806,3.05332c0,2.31894 0,15.18621 0,15.39841c0,1.24354 -1.2457,2.97453 -3.23053,2.97453c-7.0542,0 -12.22859,0 -15.21503,0c-1.63472,0 -3.26571,-1.34647 -3.26571,-3.00004z" fill-opacity="0.30196" fill="#333333" stroke-opacity="0.6" stroke="#ebebeb" stroke-width="0.75"/><path d="M284.14441,227.70629c0,-1.25699 1.63099,-3.01776 3.26572,-3.01776c3.81654,0 30.3042,0 37.1875,0c2.00217,0 3.25806,1.39705 3.25806,3.05332c0,2.31894 0,15.18621 0,15.39841c0,1.24354 -1.2457,2.97453 -3.23053,2.97453c-7.0542,0 -34.22859,0 -37.21503,0c-1.63472,0 -3.26571,-1.34647 -3.26571,-3.00004z" fill-opacity="0.30196" fill="#333333" stroke-opacity="0.6" stroke="#ebebeb" stroke-width="0.75"/><path d="M221.14455,227.20634c0,-1.25699 1.63099,-3.01776 3.26572,-3.01776c3.81654,0 30.3042,0 37.1875,0c2.00217,0 3.25806,1.39705 3.25806,3.05332c0,2.31894 0,15.18621 0,15.39841c0,1.24354 -1.2457,2.97453 -3.23053,2.97453c-7.0542,0 -34.22859,0 -37.21503,0c-1.63472,0 -3.26571,-1.34647 -3.26571,-3.00004z" fill-opacity="0.30196" fill="#333333" stroke-opacity="0.6" stroke="#ebebeb" stroke-width="0.75"/><path d="M358.14451,227.20634c0,-1.25699 1.63099,-3.01776 3.26572,-3.01776c3.81654,0 8.3042,0 15.1875,0c2.00217,0 3.25806,1.39705 3.25806,3.05332c0,2.31894 0,15.18621 0,15.39841c0,1.24354 -1.2457,2.97453 -3.23053,2.97453c-7.0542,0 -12.22859,0 -15.21503,0c-1.63472,0 -3.26571,-1.34647 -3.26571,-3.00004z" fill-opacity="0.30196" fill="#333333" stroke-opacity="0.6" stroke="#ebebeb" stroke-width="0.75"/><text transform="translate(227.72496,178.35672) scale(0.28792,0.28792)" font-size="40" xml:space="preserve" data-paper-data="{&quot;index&quot;:null}" fill-opacity="0.70196" fill="#ebebeb" fill-rule="nonzero" stroke="#e6e6e6" stroke-width="0" stroke-linecap="butt" stroke-linejoin="miter" stroke-miterlimit="10" stroke-dasharray="" stroke-dashoffset="0" font-family="Sans Serif" font-weight="normal" text-anchor="start" style="mix-blend-mode: normal"><tspan x="0" dy="0">方向键</tspan></text><text transform="translate(337.72498,178.35672) scale(0.28792,0.28792)" font-size="40" xml:space="preserve" data-paper-data="{&quot;index&quot;:null}" fill-opacity="0.70196" fill="#ebebeb" fill-rule="nonzero" stroke="#e6e6e6" stroke-width="0" stroke-linecap="butt" stroke-linejoin="miter" stroke-miterlimit="10" stroke-dasharray="" stroke-dashoffset="0" font-family="Sans Serif" font-weight="normal" text-anchor="start" style="mix-blend-mode: normal"><tspan x="0" dy="0">功能键</tspan></text><text transform="translate(239.58151,121.8567) scale(0.28792,0.28792)" font-size="40" xml:space="preserve" data-paper-data="{&quot;index&quot;:null}" fill-opacity="0.70196" fill="#ebebeb" fill-rule="nonzero" stroke="#e6e6e6" stroke-width="0" stroke-linecap="butt" stroke-linejoin="miter" stroke-miterlimit="10" stroke-dasharray="" stroke-dashoffset="0" font-family="Sans Serif" font-weight="normal" text-anchor="start" style="mix-blend-mode: normal"><tspan x="0" dy="0">W</tspan></text><text transform="translate(241.35507,148.85665) scale(0.28792,0.28792)" font-size="40" xml:space="preserve" data-paper-data="{&quot;index&quot;:null}" fill-opacity="0.70196" fill="#ebebeb" fill-rule="nonzero" stroke="#e6e6e6" stroke-width="0" stroke-linecap="butt" stroke-linejoin="miter" stroke-miterlimit="10" stroke-dasharray="" stroke-dashoffset="0" font-family="Sans Serif" font-weight="normal" text-anchor="start" style="mix-blend-mode: normal"><tspan x="0" dy="0">R</tspan></text><text transform="translate(215.23418,135.35656) scale(0.28792,0.28792)" font-size="40" xml:space="preserve" data-paper-data="{&quot;index&quot;:null}" fill-opacity="0.70196" fill="#ebebeb" fill-rule="nonzero" stroke="#e6e6e6" stroke-width="0" stroke-linecap="butt" stroke-linejoin="miter" stroke-miterlimit="10" stroke-dasharray="" stroke-dashoffset="0" font-family="Sans Serif" font-weight="normal" text-anchor="start" style="mix-blend-mode: normal"><tspan x="0" dy="0">A</tspan></text><text transform="translate(267.833,135.35665) scale(0.28792,0.28792)" font-size="40" xml:space="preserve" data-paper-data="{&quot;index&quot;:null}" fill-opacity="0.70196" fill="#ebebeb" fill-rule="nonzero" stroke="#e6e6e6" stroke-width="0" stroke-linecap="butt" stroke-linejoin="miter" stroke-miterlimit="10" stroke-dasharray="" stroke-dashoffset="0" font-family="Sans Serif" font-weight="normal" text-anchor="start" style="mix-blend-mode: normal"><tspan x="0" dy="0">S</tspan></text><text transform="translate(350.75044,121.8567) scale(0.28792,0.28792)" font-size="40" xml:space="preserve" data-paper-data="{&quot;index&quot;:null}" fill-opacity="0.70196" fill="#ebebeb" fill-rule="nonzero" stroke="#e6e6e6" stroke-width="0" stroke-linecap="butt" stroke-linejoin="miter" stroke-miterlimit="10" stroke-dasharray="" stroke-dashoffset="0" font-family="Sans Serif" font-weight="normal" text-anchor="start" style="mix-blend-mode: normal"><tspan x="0" dy="0">U</tspan></text><text transform="translate(324.53166,135.35665) scale(0.28792,0.28792)" font-size="40" xml:space="preserve" data-paper-data="{&quot;index&quot;:null}" fill-opacity="0.70196" fill="#ebebeb" fill-rule="nonzero" stroke="#e6e6e6" stroke-width="0" stroke-linecap="butt" stroke-linejoin="miter" stroke-miterlimit="10" stroke-dasharray="" stroke-dashoffset="0" font-family="Sans Serif" font-weight="normal" text-anchor="start" style="mix-blend-mode: normal"><tspan x="0" dy="0">N</tspan></text><text transform="translate(351.79278,148.85665) scale(0.28792,0.28792)" font-size="40" xml:space="preserve" data-paper-data="{&quot;index&quot;:null}" fill-opacity="0.70196" fill="#ebebeb" fill-rule="nonzero" stroke="#e6e6e6" stroke-width="0" stroke-linecap="butt" stroke-linejoin="miter" stroke-miterlimit="10" stroke-dasharray="" stroke-dashoffset="0" font-family="Sans Serif" font-weight="normal" text-anchor="start" style="mix-blend-mode: normal"><tspan x="0" dy="0">E</tspan></text><text transform="translate(378.96173,135.35665) scale(0.28792,0.28792)" font-size="40" xml:space="preserve" data-paper-data="{&quot;index&quot;:null}" fill-opacity="0.70196" fill="#ebebeb" fill-rule="nonzero" stroke="#e6e6e6" stroke-width="0" stroke-linecap="butt" stroke-linejoin="miter" stroke-miterlimit="10" stroke-dasharray="" stroke-dashoffset="0" font-family="Sans Serif" font-weight="normal" text-anchor="start" style="mix-blend-mode: normal"><tspan x="0" dy="0">I</tspan></text><text transform="translate(289.842,239.35672) scale(0.28792,0.28792)" font-size="40" xml:space="preserve" data-paper-data="{&quot;index&quot;:null}" fill-opacity="0.70196" fill="#ebebeb" fill-rule="nonzero" stroke="#e6e6e6" stroke-width="0" stroke-linecap="butt" stroke-linejoin="miter" stroke-miterlimit="10" stroke-dasharray="" stroke-dashoffset="0" font-family="Sans Serif" font-weight="normal" text-anchor="start" style="mix-blend-mode: normal"><tspan x="0" dy="0">Space</tspan></text><text transform="translate(230.37772,238.8568) scale(0.28792,0.28792)" font-size="40" xml:space="preserve" data-paper-data="{&quot;index&quot;:null}" fill-opacity="0.70196" fill="#ebebeb" fill-rule="nonzero" stroke="#e6e6e6" stroke-width="0" stroke-linecap="butt" stroke-linejoin="miter" stroke-miterlimit="10" stroke-dasharray="" stroke-dashoffset="0" font-family="Sans Serif" font-weight="normal" text-anchor="start" style="mix-blend-mode: normal"><tspan x="0" dy="0">Shift</tspan></text><text transform="translate(231.48338,268.35669) scale(0.28792,0.28792)" font-size="40" xml:space="preserve" data-paper-data="{&quot;index&quot;:null}" fill-opacity="0.70196" fill="#ebebeb" fill-rule="nonzero" stroke="#e6e6e6" stroke-width="0" stroke-linecap="butt" stroke-linejoin="miter" stroke-miterlimit="10" stroke-dasharray="" stroke-dashoffset="0" font-family="Sans Serif" font-weight="normal" text-anchor="start" style="mix-blend-mode: normal"><tspan x="0" dy="0">选项</tspan></text><text transform="translate(294.48321,268.85669) scale(0.28792,0.28792)" font-size="40" xml:space="preserve" data-paper-data="{&quot;index&quot;:null}" fill-opacity="0.70196" fill="#ebebeb" fill-rule="nonzero" stroke="#e6e6e6" stroke-width="0" stroke-linecap="butt" stroke-linejoin="miter" stroke-miterlimit="10" stroke-dasharray="" stroke-dashoffset="0" font-family="Sans Serif" font-weight="normal" text-anchor="start" style="mix-blend-mode: normal"><tspan x="0" dy="0">确认</tspan></text><text transform="translate(357.48333,268.35669) scale(0.28792,0.28792)" font-size="40" xml:space="preserve" data-paper-data="{&quot;index&quot;:null}" fill-opacity="0.70196" fill="#ebebeb" fill-rule="nonzero" stroke="#e6e6e6" stroke-width="0" stroke-linecap="butt" stroke-linejoin="miter" stroke-miterlimit="10" stroke-dasharray="" stroke-dashoffset="0" font-family="Sans Serif" font-weight="normal" text-anchor="start" style="mix-blend-mode: normal"><tspan x="0" dy="0">关闭</tspan></text><text transform="translate(365.7927,238.35672) scale(0.28792,0.28792)" font-size="40" xml:space="preserve" data-paper-data="{&quot;index&quot;:null}" fill-opacity="0.70196" fill="#ebebeb" fill-rule="nonzero" stroke="#e6e6e6" stroke-width="0" stroke-linecap="butt" stroke-linejoin="miter" stroke-miterlimit="10" stroke-dasharray="" stroke-dashoffset="0" font-family="Sans Serif" font-weight="normal" text-anchor="start" style="mix-blend-mode: normal"><tspan x="0" dy="0">E</tspan></text></g></g></svg>