<svg version="1.1" xmlns="http://www.w3.org/2000/svg" xmlns:xlink="http://www.w3.org/1999/xlink" width="54.32105" height="19.19145" viewBox="0,0,54.32105,19.19145"><defs><linearGradient x1="392.21479" y1="74.31312" x2="392.21479" y2="85.68719" gradientUnits="userSpaceOnUse" id="color-1"><stop offset="0" stop-color="#85f218"/><stop offset="1" stop-color="#40e617"/></linearGradient></defs><g transform="translate(-365.05424,-70.40446)"><g data-paper-data="{&quot;isPaintingLayer&quot;:true}" fill-rule="nonzero" stroke-linecap="butt" stroke-linejoin="miter" stroke-miterlimit="10" stroke-dasharray="" stroke-dashoffset="0" style="mix-blend-mode: normal"><path d="M415.68912,89.22091c-3.02801,0 -39.83196,0 -46.98437,0c-2.01247,0 -3.27551,-2.49955 -3.27551,-4.29521c0,-0.30642 0,-6.38871 0,-9.73726c0,-2.39164 1.27338,-4.40898 3.30341,-4.40898c6.97913,0 43.0868,0 46.95647,0c1.65747,0 3.31117,2.54255 3.31117,4.35764c0,1.62246 0,6.98484 0,9.75176c0,2.38775 -1.65369,4.33205 -3.31117,4.33205z" data-paper-data="{&quot;index&quot;:null}" fill-opacity="0.30196" fill="#ebebeb" stroke="#ebebeb" stroke-width="0.75"/><path d="M397.28763,75.58702v5.73253c0,0.11374 -0.0455,0.22748 -0.13649,0.27297c-0.72794,0.63695 -1.63786,0.95542 -2.57054,0.95542c-0.93267,0 -1.8426,-0.34122 -2.57054,-0.95542c-0.59145,-0.50046 -1.3194,-0.79618 -2.09283,-0.79618c-0.70519,0 -1.38763,0.22747 -1.95634,0.68244v3.79894c0,0.22748 -0.18198,0.40947 -0.40947,0.40947c-0.22748,0 -0.40947,-0.18198 -0.40947,-0.40947v-9.6907c0,-0.18198 0.11374,-0.29573 0.22748,-0.36398c0.72794,-0.59145 1.59237,-0.90992 2.5023,-0.90992c0.93267,0 1.86535,0.34122 2.59329,0.95542c0.59145,0.50046 1.31939,0.77344 2.09283,0.77344c0.77344,0 1.50137,-0.27298 2.09283,-0.77344c0.13648,-0.09099 0.29572,-0.11375 0.43221,-0.0455c0.13648,0.06825 0.20473,0.20473 0.20473,0.36398z" fill="url(#color-1)" stroke="#549a10" stroke-width="0"/></g></g></svg>