<svg version="1.1" xmlns="http://www.w3.org/2000/svg" xmlns:xlink="http://www.w3.org/1999/xlink" width="640" height="360" viewBox="0,0,640,360"><defs><linearGradient x1="174.90858" y1="157.6035" x2="174.90858" y2="205.32259" gradientUnits="userSpaceOnUse" id="color-1"><stop offset="0" stop-color="#ffd363"/><stop offset="1" stop-color="#eb905c"/></linearGradient><linearGradient x1="166.97322" y1="157.6035" x2="166.97322" y2="205.32261" gradientUnits="userSpaceOnUse" id="color-2"><stop offset="0" stop-color="#ffd363"/><stop offset="1" stop-color="#eb905c"/></linearGradient><linearGradient x1="126.89815" y1="173.36325" x2="166.98696" y2="173.36325" gradientUnits="userSpaceOnUse" id="color-3"><stop offset="0" stop-color="#eb905c"/><stop offset="1" stop-color="#ffd363"/></linearGradient><linearGradient x1="126.88698" y1="157.31784" x2="126.88698" y2="192.44169" gradientUnits="userSpaceOnUse" id="color-4"><stop offset="0" stop-color="#ff2676"/><stop offset="1" stop-color="#eb905c"/></linearGradient><linearGradient x1="126.89692" y1="181.31671" x2="174.90607" y2="181.31671" gradientUnits="userSpaceOnUse" id="color-5"><stop offset="0" stop-color="#ff337e"/><stop offset="1" stop-color="#eb905c"/></linearGradient><linearGradient x1="126.78313" y1="181.6521" x2="174.90265" y2="181.6521" gradientUnits="userSpaceOnUse" id="color-6"><stop offset="0" stop-color="#eb905c"/><stop offset="1" stop-color="#ffd363"/></linearGradient></defs><g transform="translate(80,0)"><g data-paper-data="{&quot;isPaintingLayer&quot;:true}" fill-rule="nonzero" stroke-linejoin="miter" stroke-miterlimit="10" stroke-dasharray="" stroke-dashoffset="0" style="mix-blend-mode: normal"><path d="M-80,0h640v360h-640z" fill="#000000" stroke="none" stroke-width="1.00207" stroke-linecap="butt"/><path d="" fill="#89b8e4" stroke="none" stroke-width="0" stroke-linecap="butt"/><g fill="none" stroke-width="2.5" stroke-linecap="round"><path d="M174.90858,157.6035v47.71911" stroke="url(#color-1)"/><path d="M166.97322,205.32262v-47.71912" stroke="url(#color-2)"/><path d="M126.89815,192.43835c0,0 20.71448,-21.51755 34.84908,-34.84908c2.03701,-1.82013 5.53404,-6.41712 5.21993,0" stroke="url(#color-3)"/><path d="M126.88698,192.44169v-35.12385" stroke="url(#color-4)"/><path d="M174.90606,205.32128l-48.00913,-48.00914" stroke="url(#color-5)"/><path d="M174.90266,157.59234l-48.11952,48.11951" stroke="url(#color-6)"/></g><g fill="none" stroke="#ebebeb" stroke-width="2.5" stroke-linecap="round"><path d="M197.71397,195.57731h-11.27319v-21.71684"/><path d="M214.00279,195.49244h-7.36887l-3.9055,-3.9055v-7.8847l4.60556,-4.60555h6.37407v6.81621l-5.15822,3.09493"/><path d="M221.29594,195.49244v-11.49546l5.08452,-5.08452h6.41092v11.56914l-4.93714,4.93714z"/><path d="M244.24167,195.39255h-6.33723"/><path d="M251.91722,195.60097v-16.69795l5.08453,-5.08452h6.41092v16.77164l-4.93714,4.93714z"/><path d="M271.4557,195.63256v-16.35891h11.20069"/><path d="M294.4514,195.48519l-4.86346,-4.86346l0.14738,-11.49545h10.61118v16.3589z"/><path d="M307.70003,179.12627h10.65385"/><path d="M316.56402,195.63256l-4.42132,-4.42132v-17.53793"/><path d="M335.05502,195.49244h-7.36888l-3.9055,-3.9055v-7.8847l4.60555,-4.60555h6.37407v6.81621l-5.15822,3.09493"/><path d="M353.5823,195.63967h-11.17053v-11.57428l4.71046,-4.71046h6.59465"/></g></g></g></svg>