<svg version="1.1" xmlns="http://www.w3.org/2000/svg" xmlns:xlink="http://www.w3.org/1999/xlink" width="209.10635" height="204.19131" viewBox="0,0,209.10635,204.19131"><g transform="translate(-181.05419,-45.40446)"><g data-paper-data="{&quot;isPaintingLayer&quot;:true}" fill-rule="nonzero" stroke-linecap="butt" stroke-linejoin="miter" stroke-miterlimit="10" stroke-dasharray="" stroke-dashoffset="0" style="mix-blend-mode: normal"><path d="M386.47437,249.22077c-3.02801,0 -155.83196,0 -162.98437,0c-2.01247,0 -3.27551,-2.49955 -3.27551,-4.29521c0,-0.30642 0,-86.38871 0,-89.73726c0,-2.39164 1.27338,-4.40898 3.30341,-4.40898c6.97913,0 159.0868,0 162.95647,0c1.65747,0 3.31117,2.54255 3.31117,4.35764c0,1.62246 0,86.98484 0,89.75176c0,2.38775 -1.65369,4.33205 -3.31117,4.33205z" data-paper-data="{&quot;index&quot;:null}" fill="none" stroke="#ebebeb" stroke-width="0.75"/><path d="M337.00005,59.88886c0,2.38775 -1.6537,4.33205 -3.31118,4.33205c-3.02801,0 -59.83196,0 -66.98437,0c-2.01246,0 -3.2755,-2.49955 -3.2755,-4.29521c0,-0.30642 0,-6.38871 0,-9.73726c0,-2.39164 1.27337,-4.40898 3.30341,-4.40898c6.97913,0 63.0868,0 66.95647,0c1.65748,0 3.31118,2.54255 3.31118,4.35764c0,1.62246 0,6.98484 0,9.75176z" data-paper-data="{&quot;index&quot;:null}" fill-opacity="0.05098" fill="#ffffff" stroke="#ebebeb" stroke-width="0.75"/><path d="M251.68907,64.22094c-3.02801,0 -59.83196,0 -66.98437,0c-2.01247,0 -3.27551,-2.49955 -3.27551,-4.29521c0,-0.30642 0,-6.38871 0,-9.73726c0,-2.39164 1.27338,-4.40898 3.30341,-4.40898c6.97913,0 63.0868,0 66.95647,0c1.65747,0 3.31117,2.54255 3.31117,4.35764c0,1.62246 0,6.98484 0,9.75176c0,2.38775 -1.65369,4.33205 -3.31117,4.33205z" data-paper-data="{&quot;index&quot;:null}" fill-opacity="0.30196" fill="#ffffff" stroke="#ebebeb" stroke-width="0.75"/><text transform="translate(192.16374,58.45522) scale(0.28792,0.28792)" font-size="40" xml:space="preserve" data-paper-data="{&quot;index&quot;:null}" fill="#ebebeb" fill-rule="nonzero" stroke="#e6e6e6" stroke-width="0" stroke-linecap="butt" stroke-linejoin="miter" stroke-miterlimit="10" stroke-dasharray="" stroke-dashoffset="0" font-family="Sans Serif" font-weight="normal" text-anchor="start" style="mix-blend-mode: normal"><tspan x="0" dy="0">640 × 360</tspan></text><text transform="translate(274.16355,58.45522) scale(0.28792,0.28792)" font-size="40" xml:space="preserve" data-paper-data="{&quot;index&quot;:null}" fill="#ebebeb" fill-rule="nonzero" stroke="#e6e6e6" stroke-width="0" stroke-linecap="butt" stroke-linejoin="miter" stroke-miterlimit="10" stroke-dasharray="" stroke-dashoffset="0" font-family="Sans Serif" font-weight="normal" text-anchor="start" style="mix-blend-mode: normal"><tspan x="0" dy="0">480 × 360</tspan></text><path d="M224.71404,154.83914h160.57196v90.32173h-160.57196z" fill-opacity="0.2" fill="#ffffff" stroke="none" stroke-width="1.00207"/><text transform="translate(290.5522,203.4551) scale(0.28792,0.28792)" font-size="40" xml:space="preserve" data-paper-data="{&quot;index&quot;:null}" fill="#ebebeb" fill-rule="nonzero" stroke="#e6e6e6" stroke-width="0" stroke-linecap="butt" stroke-linejoin="miter" stroke-miterlimit="10" stroke-dasharray="" stroke-dashoffset="0" font-family="Sans Serif" font-weight="normal" text-anchor="start" style="mix-blend-mode: normal"><tspan x="0" dy="0">16 : 9</tspan></text></g></g></svg>