<svg version="1.1" xmlns="http://www.w3.org/2000/svg" xmlns:xlink="http://www.w3.org/1999/xlink" width="276.3211" height="65.8356" viewBox="0,0,276.3211,65.8356"><g transform="translate(-181.05431,-46.07465)"><g data-paper-data="{&quot;isPaintingLayer&quot;:true}" fill-rule="nonzero" stroke-linecap="butt" stroke-linejoin="miter" stroke-miterlimit="10" stroke-dasharray="" stroke-dashoffset="0" style="mix-blend-mode: normal"><text transform="translate(183.66443,58.45521) scale(0.28792,0.28792)" font-size="40" xml:space="preserve" data-paper-data="{&quot;index&quot;:null}" fill="#ebebeb" fill-rule="nonzero" stroke="#e6e6e6" stroke-width="0" stroke-linecap="butt" stroke-linejoin="miter" stroke-miterlimit="10" stroke-dasharray="" stroke-dashoffset="0" font-family="Sans Serif" font-weight="normal" text-anchor="start" style="mix-blend-mode: normal"><tspan x="0" dy="0">输入 URL :</tspan></text><path d="M391.6892,89.22095c-3.02801,0 -199.83196,0 -206.98437,0c-2.01247,0 -3.27551,-2.49955 -3.27551,-4.29521c0,-0.30642 0,-6.38871 0,-9.73726c0,-2.39164 1.27338,-4.40898 3.30341,-4.40898c6.97913,0 203.0868,0 206.95647,0c1.65747,0 3.31117,2.54255 3.31117,4.35764c0,1.62246 0,6.98484 0,9.75176c0,2.38775 -1.65369,4.33205 -3.31117,4.33205z" data-paper-data="{&quot;index&quot;:null}" fill-opacity="0.2" fill="#ffffff" stroke="#ebebeb" stroke-width="0.75"/><path d="M453.68925,89.22095c-3.02801,0 -39.83196,0 -46.98437,0c-2.01247,0 -3.27551,-2.49955 -3.27551,-4.29521c0,-0.30642 0,-6.38871 0,-9.73726c0,-2.39164 1.27338,-4.40898 3.30341,-4.40898c6.97913,0 43.0868,0 46.95647,0c1.65747,0 3.31117,2.54255 3.31117,4.35764c0,1.62246 0,6.98484 0,9.75176c0,2.38775 -1.65369,4.33205 -3.31117,4.33205z" data-paper-data="{&quot;index&quot;:null}" fill-opacity="0.05098" fill="#ffffff" stroke="#ebebeb" stroke-width="0.75"/><text transform="translate(418.69809,83.45525) scale(0.28792,0.28792)" font-size="40" xml:space="preserve" data-paper-data="{&quot;index&quot;:null}" fill="#ebebeb" fill-rule="nonzero" stroke="#e6e6e6" stroke-width="0" stroke-linecap="butt" stroke-linejoin="miter" stroke-miterlimit="10" stroke-dasharray="" stroke-dashoffset="0" font-family="Sans Serif" font-weight="normal" text-anchor="start" style="mix-blend-mode: normal"><tspan x="0" dy="0">确定</tspan></text><text transform="translate(183.66444,108.45521) scale(0.28792,0.28792)" font-size="40" xml:space="preserve" data-paper-data="{&quot;index&quot;:null}" fill="#ebebeb" fill-rule="nonzero" stroke="#e6e6e6" stroke-width="0" stroke-linecap="butt" stroke-linejoin="miter" stroke-miterlimit="10" stroke-dasharray="" stroke-dashoffset="0" font-family="Sans Serif" font-weight="normal" text-anchor="start" style="mix-blend-mode: normal"><tspan x="0" dy="0">描述 :</tspan></text></g></g></svg>