<svg version="1.1" xmlns="http://www.w3.org/2000/svg" xmlns:xlink="http://www.w3.org/1999/xlink" width="39.57543" height="108.63068" viewBox="0,0,39.57543,108.63068"><defs><linearGradient x1="235.95094" y1="92.31984" x2="235.95094" y2="102.67693" gradientUnits="userSpaceOnUse" id="color-1"><stop offset="0" stop-color="#396fbf"/><stop offset="1" stop-color="#8e2e99"/></linearGradient><linearGradient x1="237.99826" y1="92.49364" x2="237.99826" y2="99.96275" gradientUnits="userSpaceOnUse" id="color-2"><stop offset="0" stop-color="#396fbf"/><stop offset="1" stop-color="#8e2e99"/></linearGradient><linearGradient x1="239.04835" y1="70.48827" x2="239.04835" y2="93.28122" gradientUnits="userSpaceOnUse" id="color-3"><stop offset="0" stop-color="#b3a788"/><stop offset="1" stop-color="#f2e2b8"/></linearGradient><linearGradient x1="233.34078" y1="84.48213" x2="233.34078" y2="86.74727" gradientUnits="userSpaceOnUse" id="color-4"><stop offset="0" stop-color="#332c23" stop-opacity="0.70196"/><stop offset="1" stop-color="#332c23" stop-opacity="0"/></linearGradient></defs><g transform="translate(-218.63516,-69.11276)"><g data-paper-data="{&quot;isPaintingLayer&quot;:true}" fill-rule="nonzero" stroke-linejoin="miter" stroke-miterlimit="10" stroke-dasharray="" stroke-dashoffset="0" style="mix-blend-mode: normal"><g data-paper-data="{&quot;index&quot;:null}" stroke="#113c86" stroke-width="0" stroke-linecap="round"><path d="M236.13286,95.09929l5.08017,7.83431l6.50495,16.39824l1.97648,7.34612l-3.07993,0.76362l-4.08076,0.28449l-5.07634,-12.33826l-4.2538,-9.89243l-1.22185,-5.31082z" fill="#193f80"/><path d="M232.17637,96.10503l3.75316,-1.69045l5.28351,8.51905l6.50495,16.39824l1.97648,7.34612l-3.07993,0.76362l-2.32018,-7.09989l-6.39209,-15.93065z" fill="#264780"/><path d="M249.1298,126.86226l0.29875,0.45145l-0.69791,2.62459l-3.47712,1.6978l-1.9792,-3.21886l0.13647,-0.47811z" data-paper-data="{&quot;index&quot;:null}" fill="#f7e5b4"/></g><g data-paper-data="{&quot;index&quot;:null}" stroke="#113c86" stroke-width="0" stroke-linecap="round"><path d="M233.80262,125.7695l11.41963,3.88735l-7.06196,23.87879l-5.75091,23.2735l-12.28029,-2.82035l-0.90392,-2.64987l2.838,-3.63168l5.02137,-17.59007z" data-paper-data="{&quot;index&quot;:null}" fill="#234175"/><path d="M233.80265,125.7695l4.7305,1.65348l-6.46366,24.94481l-4.58404,17.06525l-1.69541,5.85585l-5.66093,-1.30012l-0.90392,-2.64987l2.838,-3.63168l5.18382,-17.55277z" data-paper-data="{&quot;index&quot;:null}" fill="#264780"/><path d="M226.40851,167.3773l8.57802,2.81206l-2.27085,7.14976l-12.96844,-2.97839l-1.10484,-3.29087l2.56923,-3.26116l1.13414,-3.27364z" fill="#6b7880"/><path d="M233.19403,175.70806l-0.49614,1.61311l-13.01239,-2.96618l-1.05034,-3.28301l2.53268,-3.22305z" fill="#4f5863"/></g><g data-paper-data="{&quot;index&quot;:null}" stroke="#113c86" stroke-width="0" stroke-linecap="round"><path d="M251.66623,150.14529l4.68589,18.01027l1.70058,6.64103l-12.42565,2.6255l-1.77148,-1.81068l-0.0976,-4.20623l-4.2367,-17.82235l-3.10989,-14.05147l-2.42694,-9.55108l11.35856,-4.28972z" fill="#234175"/><path d="M240.95331,134.62255l4.04588,16.64205l4.50292,18.66869l1.74664,6.30094l-5.62171,1.18785l-1.77148,-1.81068l-0.0976,-4.20623l-4.2367,-17.82235l-3.78647,-17.2535l-1.75036,-6.34906l0.58261,-2.31272l4.50631,0.41794z" fill="#264780"/><path d="M245.90611,169.07232l10.52614,-1.32732l1.77621,7.26644l-12.92967,2.73199l-1.82869,-2.08151l-0.07501,-4.09929l-1.07317,-3.36344z" fill="#6b7880"/><path d="M257.91803,173.31703l0.29256,1.71416l-12.95576,2.70418l-1.83319,-2.10279l-0.05057,-4.00489z" fill="#4f5863"/></g><path d="M232.88458,101.34644l0.95058,-7.49421l8.32546,-1.26546l3.71408,2.66932l1.75216,2.28418l-0.926,32.86594l-13.57314,-2.09996z" data-paper-data="{&quot;index&quot;:null}" fill="#7a8799" stroke="#113c86" stroke-width="0" stroke-linecap="round"/><path d="M239.80774,111.2732l2.98407,-9.84766l3.30094,7.83642l-0.21792,13.54651l-0.31302,7.38301l-5.25032,-0.69167l-0.42606,-7.16515z" data-paper-data="{&quot;index&quot;:null}" fill="#626b7a" stroke="#113c86" stroke-width="0" stroke-linecap="round"/><path d="" fill="#340000" stroke="none" stroke-width="0" stroke-linecap="round"/><path d="" fill="#340000" stroke="none" stroke-width="0" stroke-linecap="round"/><path d="M234.06998,128.3404c0,0 -0.11804,-17.31378 0.05118,-23.67932c0.1573,-5.91683 0.69489,-10.7771 0.69489,-10.7771h0.82452c0,0 -0.53736,4.8513 -0.69459,10.76602c-0.16927,6.36711 -0.05148,23.80944 -0.05148,23.80944z" data-paper-data="{&quot;index&quot;:null}" fill="#c8c8c8" stroke="none" stroke-width="0" stroke-linecap="butt"/><g data-paper-data="{&quot;index&quot;:null}" stroke="#113c86" stroke-width="0" stroke-linecap="round"><path d="M235.98284,129.65603l-0.12403,0.90143l-2.4479,2.28177l-4.33766,-1.39004l0.41882,-4.21103l0.67395,-0.77082z" data-paper-data="{&quot;index&quot;:null}" fill="#f7e5b4"/><path d="M241.18825,95.10105l4.35043,0.49658l2.02109,3.02073l-0.96668,6.57658l-6.17352,16.35854l-3.69874,8.15511l-3.09585,-1.02012l-4.16435,-2.75077l6.14544,-16.21517l2.2665,-8.26951z" data-paper-data="{&quot;index&quot;:null}" fill="#234175"/><path d="M240.96586,95.90256l2.07808,0.81008l-3.71469,14.6325l-6.68387,16.71114l-3.33976,-2.11954l6.30045,-16.21428l2.2665,-8.26951z" data-paper-data="{&quot;index&quot;:null}" fill="#264780"/></g><path d="M248.34789,82.97099l-0.40668,4.05445l-0.62437,2.76249l-0.21185,-0.8369l-0.2639,0.81327l-0.42869,0.93791l-0.16543,-0.27152l-0.65525,1.24464l0.19129,-1.23072l-0.81653,1.48987l-0.03676,-1.00796l-0.73663,0.98746l0.01937,-4.99255z" data-paper-data="{&quot;index&quot;:null}" fill-opacity="0.65098" fill="#332c23" stroke="#000000" stroke-width="0" stroke-linecap="round"/><path d="M236.61811,94.87795v-3.85354h6.28501v2.62475z" fill="#eddcae" stroke="#000000" stroke-width="0" stroke-linecap="butt"/><g stroke="#000000" stroke-width="0" stroke-linecap="round"><path d="M237.65021,95.06491l-4.31856,4.89779l-2.27145,2.55668l0.59169,-5.80581l1.68798,-3.19048l2.21429,-0.79519l2.21428,-0.21408l5.86507,-0.33517z" fill="url(#color-1)"/><path d="M244.25866,92.55898l0.02825,1.03128l-6.74984,1.6434l-2.9,4.17719l-1.05869,0.18186l3.38775,-5.00357l6.89016,-2.80704z" fill="url(#color-2)"/></g><path d="M235.75719,87.20639l-5.1084,-0.22211l-1.2549,-3.91245l3.1778,-2.91297z" fill="#665c52" stroke="#000000" stroke-width="0" stroke-linecap="round"/><path d="M242.82949,71.31318l3.17078,2.06351l2.15503,3.2567l0.54015,6.43648l-2.38502,5.12263l-3.78367,3.31226l-9.37059,1.77646l-1.85652,-2.85961l-1.59025,-1.55355l0.9851,-2.13437l-1.29325,-5.54397l1.03873,-5.72047l2.57289,-3.34383l5.08624,-1.63715z" data-paper-data="{&quot;index&quot;:null}" fill="url(#color-3)" stroke="#000000" stroke-width="0" stroke-linecap="round"/><path d="M232.20018,90.80404l0.84802,-0.04493" fill="none" stroke="#000000" stroke-width="0.15" stroke-linecap="round"/><path d="M231.56688,83.83138l3.61334,-0.32233l0.68943,0.00319l-4.89407,0.63269z" fill-opacity="0.70196" fill="#332c23" stroke="none" stroke-width="0" stroke-linecap="round"/><path d="M231.02817,84.84029l4.39649,-0.28434l-0.60804,2.29133l-3.3937,0.56381z" fill="#fafafa" stroke="none" stroke-width="0" stroke-linecap="round"/><path d="M231.59615,86.05101l-0.00179,-1.22381l1.70829,-0.10663l0.12644,1.22734l-0.05762,1.14684l-1.58617,0.19295z" data-paper-data="{&quot;index&quot;:null}" fill="#3f0000" stroke="none" stroke-width="0" stroke-linecap="round"/><path d="M241.68679,90.78725l-0.33454,-2.43501l-0.32226,0.33394l-0.81274,-3.6769l-0.87666,0.27069l-1.25273,5.28924l-0.44825,-2.4265l-0.29333,0.56182l-1.05144,-5.31418l-0.35375,0.91402l-1.89174,-1.9832l-0.27894,0.83456l-1.94594,-1.44557l-0.13293,1.85131l-1.23058,-0.29549l-0.08596,0.87938l-0.98224,-1.22532l-0.36575,1.00109l-0.39108,-3.73683l-0.55656,0.16851l1.67548,-6.18721l-0.52884,-0.01672l3.66094,-3.1433l-0.18741,-0.2498l6.71951,-1.64303l5.99134,1.55429l-0.55233,0.19905l2.8371,2.71228l2.03687,4.52094l-0.5318,0.10193l0.83176,5.92468l-0.61913,-0.35021l-1.02769,4.3327l-0.46019,-0.64771l-2.35396,3.47091l-0.16057,-0.70063l-2.35815,1.83883z" fill="#332c23" stroke="#000000" stroke-width="0" stroke-linecap="round"/><path d="M240.16463,85.40267l1.80973,0.08131l-0.4993,1.75779l-1.50051,1.78197z" fill="#dccca1" stroke="#000000" stroke-width="0" stroke-linecap="round"/><path d="M235.65339,84.48213l-0.83677,2.36515l0.55613,-2.18751l-4.34458,0.18052z" fill="url(#color-4)" stroke="none" stroke-width="0" stroke-linecap="round"/></g></g></svg>