<svg version="1.1" xmlns="http://www.w3.org/2000/svg" xmlns:xlink="http://www.w3.org/1999/xlink" width="42.6946" height="108.69422" viewBox="0,0,42.6946,108.69422"><defs><linearGradient x1="240.49124" y1="70.98519" x2="240.49124" y2="92.89976" gradientUnits="userSpaceOnUse" id="color-1"><stop offset="0" stop-color="#b3a788"/><stop offset="1" stop-color="#f2e2b8"/></linearGradient><linearGradient x1="245.18515" y1="91.14774" x2="245.18515" y2="106.23854" gradientUnits="userSpaceOnUse" id="color-2"><stop offset="0" stop-color="#396fbf"/><stop offset="1" stop-color="#8e2e99"/></linearGradient></defs><g transform="translate(-221.43981,-69.06254)"><g data-paper-data="{&quot;isPaintingLayer&quot;:true}" fill-rule="nonzero" stroke-width="0" stroke-linejoin="miter" stroke-miterlimit="10" stroke-dasharray="" stroke-dashoffset="0" style="mix-blend-mode: normal"><g stroke="#113c86" stroke-linecap="round"><path d="M245.01806,126.40093l0.59656,0.83215l0.01126,4.23179l-4.45138,0.96575l-2.21671,-2.50696l-0.03663,-0.90917z" data-paper-data="{&quot;index&quot;:null}" fill="#f7e5b4"/><path d="M238.96354,101.00221l2.2528,8.20794l4.52875,16.8603l-4.06447,2.2006l-3.2761,0.88485l-3.39828,-8.7435l-4.47986,-18.34805l1.19127,-5.27457l4.16968,-3.41558z" data-paper-data="{&quot;index&quot;:null}" fill="#234175"/><path d="M238.96354,101.00221l2.2528,8.20794l4.67333,16.84216l-3.19488,1.61236l-5.34062,-17.19801l-1.73854,-16.6576z" data-paper-data="{&quot;index&quot;:null}" fill="#264780"/></g><g data-paper-data="{&quot;index&quot;:null}" stroke="#113c86" stroke-linecap="round"><path d="M234.2555,124.34353l10.94325,3.88696l-1.5823,6.54103l-4.00993,17.99171l-4.06735,18.32895l-1.70988,6.20617l-11.60787,-2.08677l1.52475,-6.83728l4.40565,-18.55545z" fill="#264780"/><path d="M239.47002,126.5133l5.72868,1.71721l-1.5823,6.54103l-4.00993,17.99171l-4.06735,18.32895l-1.70988,6.20617l-5.94917,-1.06949l1.57985,-6.49178l4.70629,-19.71159l3.90336,-16.86481z" fill="#234175"/><path d="M237.06659,168.01896l-0.97057,3.39446l0.13149,4.11442l-1.84667,2.12133l-12.94103,-2.32643l1.73375,-7.28484l10.31702,0.9632z" fill="#6b7880"/><path d="M236.23816,175.5227l-1.71435,2.16119l-12.96241,-2.31923l0.41685,-2.29425z" fill="#4f5863"/></g><g data-paper-data="{&quot;index&quot;:null}" stroke="#113c86" stroke-linecap="round"><path d="M255.3561,149.91939l5.32656,18.14554l1.97896,6.4176l-11.76545,2.72671l-6.21807,-24.37705l-4.15063,-17.31625l-3.99691,-6.61601l11.09987,-3.7799z" data-paper-data="{&quot;index&quot;:null}" fill="#264780"/><path d="M255.47786,149.89117l5.20479,18.17376l1.97896,6.4176l-5.53879,1.28365l-1.73714,-5.98239l-5.18519,-17.83234l-6.98861,-25.31317l4.41856,-1.51824z" data-paper-data="{&quot;index&quot;:null}" fill="#234175"/><path d="M260.41806,165.04502l1.14065,3.27138l2.5757,3.25606l-1.0983,3.29305l-12.47541,2.89125l-1.9308,-7.22734l8.02333,-2.70184z" fill="#6b7880"/><path d="M263.98226,171.66436l-0.88682,3.18485l-12.53565,2.90521l-0.57349,-2.20489z" fill="#4f5863"/></g><path d="M248.99647,129.36672l-16.12502,-0.18295l-0.40504,-28.68221l0.67861,-5.95846l7.56772,-3.1775l8.21216,3.69571z" data-paper-data="{&quot;index&quot;:null}" fill="#7a8799" stroke="#113c86" stroke-linecap="round"/><path d="M248.59816,122.33465l-0.48456,7.06477l-3.07196,-0.06116l-0.34156,-6.5298l-0.13925,-13.54651l2.10935,-7.83642l2.0484,9.84766z" fill="#626b7a" stroke="#113c86" stroke-linecap="round"/><g stroke="#113c86" stroke-linecap="round"><path d="M244.02858,130.40067l0.02834,0.54061l-1.93323,1.9074l-4.14593,-0.67453l-0.02963,-4.10862l0.36021,-0.34274z" data-paper-data="{&quot;index&quot;:null}" fill="#f7e5b4"/><path d="M245.12257,94.48169l3.47951,2.77951l2.0699,8.67324l-3.35332,17.23519l-2.68367,7.49225l-3.26006,-0.76163l-3.8948,-2.21746l4.9298,-21.70594l1.11015,-6.9364z" fill="#234175"/><path d="M245.12257,94.48169l3.47951,2.77951l2.0699,8.67324l-3.35332,17.23519l-2.68367,7.49225l-3.26006,-0.76163l2.79984,-7.49986l2.89465,-16.87291z" fill="#264780"/></g><path d="" fill="#340000" stroke="none" stroke-linecap="round"/><path d="" fill="#340000" stroke="none" stroke-linecap="round"/><path d="M242.00827,70.98519l4.34511,1.3747l2.38937,3.56877l1.33877,4.51975l-1.95002,7.80208l-1.89274,2.71368l-3.24482,1.93559l-7.02943,-2.02854l-3.69649,-3.42814l-1.36707,-4.41185l0.44899,-6.20758l2.12206,-2.97694l3.61443,-2.2511z" data-paper-data="{&quot;index&quot;:null}" fill="url(#color-1)" stroke="#000000" stroke-linecap="round"/><path d="M236.16798,92.89484v-2.33889h6.28501v2.33889z" data-paper-data="{&quot;index&quot;:null}" fill="#eddcae" stroke="#000000" stroke-linecap="butt"/><path d="M242.6961,91.60117l4.22228,0.46459l5.01558,7.44153l0.81489,5.91894l-5.59359,-5.32223l-4.05353,-1.56896l-6.25569,-4.80786l-0.95147,-2.20914l2.44449,0.40726z" data-paper-data="{&quot;index&quot;:null}" fill="url(#color-2)" stroke="#eb0095" stroke-linecap="round"/><path d="M248.52982,72.98371l1.98083,4.30191l0.057,5.6762l-0.60935,-0.73305l-0.6206,4.08341l-0.46528,-1.85194l-2.12748,5.52878l-0.48072,-5.84242l-0.64392,0.03412l-0.7391,3.93621l-0.54954,-0.36954l-1.45148,2.85528l-3.13343,1.39584l-0.09257,-0.88178l-2.26317,1.41683l-1.48898,-1.53238l-0.13904,0.64992l-1.59533,-1.72397l-0.39828,0.6757l-1.57903,-3.57325l-0.36678,1.46523l-0.77452,-3.24399l-0.37767,1.26488l-0.93906,-5.2365l0.61223,-4.82392l1.95348,-3.66188l2.50409,-1.79848l-0.77193,-0.24797l6.27455,-1.68441l4.76057,1.21477z" data-paper-data="{&quot;index&quot;:null}" fill="#332c23" stroke="#a8ccff" stroke-linecap="round"/></g></g></svg>