<svg version="1.1" xmlns="http://www.w3.org/2000/svg" xmlns:xlink="http://www.w3.org/1999/xlink" width="33.25829" height="107.82931" viewBox="0,0,33.25829,107.82931"><defs><linearGradient x1="240" y1="180.00005" x2="240" y2="180.00005" gradientUnits="userSpaceOnUse" id="color-1"><stop offset="0" stop-color="#000000"/><stop offset="1" stop-color="#000000" stop-opacity="0"/></linearGradient><linearGradient x1="240" y1="180.00005" x2="240" y2="180.00005" gradientUnits="userSpaceOnUse" id="color-2"><stop offset="0" stop-color="#000000"/><stop offset="1" stop-color="#000000" stop-opacity="0"/></linearGradient><linearGradient x1="240" y1="180.00005" x2="240" y2="180.00005" gradientUnits="userSpaceOnUse" id="color-3"><stop offset="0" stop-color="#000000"/><stop offset="1" stop-color="#000000" stop-opacity="0"/></linearGradient><linearGradient x1="240" y1="180.00005" x2="240" y2="180.00005" gradientUnits="userSpaceOnUse" id="color-4"><stop offset="0" stop-color="#000000"/><stop offset="1" stop-color="#000000" stop-opacity="0"/></linearGradient><linearGradient x1="240" y1="180.00005" x2="240" y2="180.00005" gradientUnits="userSpaceOnUse" id="color-5"><stop offset="0" stop-color="#998e70"/><stop offset="1" stop-color="#f3e1b2"/></linearGradient><linearGradient x1="240" y1="180.00005" x2="240" y2="180.00005" gradientUnits="userSpaceOnUse" id="color-6"><stop offset="0" stop-color="#998e70"/><stop offset="1" stop-color="#f3e1b2"/></linearGradient><linearGradient x1="233.19932" y1="91.14775" x2="233.19932" y2="106.23855" gradientUnits="userSpaceOnUse" id="color-7"><stop offset="0" stop-color="#396fbf"/><stop offset="1" stop-color="#8e2e99"/></linearGradient><linearGradient x1="240.62738" y1="69.80185" x2="240.62738" y2="93.46273" gradientUnits="userSpaceOnUse" id="color-8"><stop offset="0" stop-color="#b3a788"/><stop offset="1" stop-color="#f2e2b8"/></linearGradient><linearGradient x1="238.2597" y1="91.94405" x2="238.2597" y2="101.50968" gradientUnits="userSpaceOnUse" id="color-9"><stop offset="0" stop-color="#396fbf"/><stop offset="1" stop-color="#8e2e99"/></linearGradient><linearGradient x1="244.82127" y1="84.8946" x2="244.82127" y2="87.24589" gradientUnits="userSpaceOnUse" id="color-10"><stop offset="0" stop-color="#332c23" stop-opacity="0.70196"/><stop offset="1" stop-color="#332c23" stop-opacity="0"/></linearGradient><linearGradient x1="236.41569" y1="84.89462" x2="236.41569" y2="87.2459" gradientUnits="userSpaceOnUse" id="color-11"><stop offset="0" stop-color="#332c23" stop-opacity="0.70196"/><stop offset="1" stop-color="#332c23" stop-opacity="0"/></linearGradient></defs><g transform="translate(-224.18316,-69.26522)"><g data-paper-data="{&quot;isPaintingLayer&quot;:true}" fill-rule="nonzero" stroke-linejoin="miter" stroke-miterlimit="10" stroke-dasharray="" stroke-dashoffset="0" style="mix-blend-mode: normal"><path d="" fill="#340000" stroke="none" stroke-width="0" stroke-linecap="round"/><path d="" fill="#340000" stroke="none" stroke-width="0" stroke-linecap="round"/><g stroke-linecap="round"><path d="" data-paper-data="{&quot;index&quot;:null}" fill="#f7e5b5" stroke="#a8ccff" stroke-width="0"/><path d="" data-paper-data="{&quot;index&quot;:null}" fill="url(#color-1)" stroke="#a8ccff" stroke-width="0"/><path d="" data-paper-data="{&quot;index&quot;:null}" fill="none" stroke="#000000" stroke-width="0.5"/><g stroke="none" stroke-width="0"><path d="" fill="#fafafa"/><path d="" fill="#4d0000"/><path d="" fill="#3f0000"/></g><g stroke="none" stroke-width="0"><g data-paper-data="{&quot;index&quot;:null}"><path d="" fill="#fafafa"/><path d="" fill="#340000"/></g><g data-paper-data="{&quot;index&quot;:null}"><path d="" fill="#3f0000"/><path d="" fill="#340000"/></g></g><path d="" data-paper-data="{&quot;index&quot;:null}" fill="#061631" stroke="#a8ccff" stroke-width="0"/></g><g stroke-linecap="round"><path d="" data-paper-data="{&quot;index&quot;:null}" fill="#f7e5b5" stroke="#a8ccff" stroke-width="0"/><path d="" data-paper-data="{&quot;index&quot;:null}" fill="url(#color-2)" stroke="#a8ccff" stroke-width="0"/><path d="" data-paper-data="{&quot;index&quot;:null}" fill="none" stroke="#000000" stroke-width="0.5"/><g stroke="none" stroke-width="0"><path d="" fill="#fafafa"/><path d="" fill="#4d0000"/><path d="" fill="#3f0000"/></g><g stroke="none" stroke-width="0"><g data-paper-data="{&quot;index&quot;:null}"><path d="" fill="#fafafa"/><path d="" fill="#340000"/></g><g data-paper-data="{&quot;index&quot;:null}"><path d="" fill="#3f0000"/><path d="" fill="#340000"/></g></g><path d="" data-paper-data="{&quot;index&quot;:null}" fill="#061631" stroke="#a8ccff" stroke-width="0"/></g><g stroke-linecap="round"><path d="" data-paper-data="{&quot;index&quot;:null}" fill="#f7e5b5" stroke="#a8ccff" stroke-width="0"/><path d="" data-paper-data="{&quot;index&quot;:null}" fill="url(#color-3)" stroke="#a8ccff" stroke-width="0"/><path d="" data-paper-data="{&quot;index&quot;:null}" fill="none" stroke="#000000" stroke-width="0.5"/><g stroke="none" stroke-width="0"><path d="" fill="#fafafa"/><path d="" fill="#4d0000"/><path d="" fill="#3f0000"/></g><g stroke="none" stroke-width="0"><g data-paper-data="{&quot;index&quot;:null}"><path d="" fill="#fafafa"/><path d="" fill="#340000"/></g><g data-paper-data="{&quot;index&quot;:null}"><path d="" fill="#3f0000"/><path d="" fill="#340000"/></g></g><path d="" data-paper-data="{&quot;index&quot;:null}" fill="#061631" stroke="#a8ccff" stroke-width="0"/></g><g stroke-linecap="round"><path d="" data-paper-data="{&quot;index&quot;:null}" fill="#f7e5b5" stroke="#a8ccff" stroke-width="0"/><path d="" data-paper-data="{&quot;index&quot;:null}" fill="url(#color-4)" stroke="#a8ccff" stroke-width="0"/><path d="" data-paper-data="{&quot;index&quot;:null}" fill="none" stroke="#000000" stroke-width="0.5"/><g stroke="none" stroke-width="0"><path d="" fill="#fafafa"/><path d="" fill="#4d0000"/><path d="" fill="#3f0000"/></g><g stroke="none" stroke-width="0"><g data-paper-data="{&quot;index&quot;:null}"><path d="" fill="#fafafa"/><path d="" fill="#340000"/></g><g data-paper-data="{&quot;index&quot;:null}"><path d="" fill="#3f0000"/><path d="" fill="#340000"/></g></g><path d="" data-paper-data="{&quot;index&quot;:null}" fill="#061631" stroke="#a8ccff" stroke-width="0"/></g><path d="" data-paper-data="{&quot;index&quot;:null}" fill="url(#color-5)" stroke="#eb905c" stroke-width="0" stroke-linecap="round"/><path d="" data-paper-data="{&quot;index&quot;:null}" fill="#332c23" stroke="#eb905c" stroke-width="0" stroke-linecap="round"/><path d="" fill="#fafafa" stroke="#eb905c" stroke-width="0" stroke-linecap="round"/><path d="" fill="#3f0000" stroke="#eb905c" stroke-width="0" stroke-linecap="round"/><path d="" fill="none" stroke="#000000" stroke-width="0.25" stroke-linecap="round"/><path d="" fill="#fafafa" stroke="#eb905c" stroke-width="0" stroke-linecap="round"/><path d="" fill="#3f0000" stroke="#eb905c" stroke-width="0" stroke-linecap="round"/><path d="" data-paper-data="{&quot;index&quot;:null}" fill="url(#color-6)" stroke="#eb905c" stroke-width="0" stroke-linecap="round"/><path d="" data-paper-data="{&quot;index&quot;:null}" fill="#332c23" stroke="#eb905c" stroke-width="0" stroke-linecap="round"/><path d="" fill="#fafafa" stroke="#eb905c" stroke-width="0" stroke-linecap="round"/><path d="" fill="#3f0000" stroke="#eb905c" stroke-width="0" stroke-linecap="round"/><path d="" fill="none" stroke="#000000" stroke-width="0.25" stroke-linecap="round"/><path d="" fill="#fafafa" stroke="#eb905c" stroke-width="0" stroke-linecap="round"/><path d="" fill="#3f0000" stroke="#3f0000" stroke-width="0" stroke-linecap="round"/><path d="M256.19232,129.19131l-0.12123,1.19665l-1.26202,2.85642l-2.70152,0.80932l-0.92325,-1.99216l-0.59904,0.14475l-0.56115,-2.48242l0.13088,-0.97675z" data-paper-data="{&quot;index&quot;:null}" fill="#f7e5b4" stroke="#113c86" stroke-width="0" stroke-linecap="round"/><g stroke="#113c86" stroke-width="0" stroke-linecap="round"><path d="M246.68107,94.83472l4.63209,1.06124l4.78381,8.88279l1.34446,17.41146l-0.95487,7.25216l-3.35325,0.62451l-3.65083,-1.29311l0.05814,-13.32294l-1.0986,-10.53274l-2.53965,-5.2968z" fill="#234175"/><path d="M246.68107,94.83472l2.96944,0.21291l1.6375,0.82043l4.80898,8.91069l1.34446,17.41146l-0.95487,7.25216l-3.35325,0.62451l1.05847,-7.89865l-1.36943,-16.93119z" fill="#264780"/></g><g stroke="#113c86" stroke-width="0" stroke-linecap="round"><path d="M252.52357,151.03881l1.46727,18.87961l0.47895,6.69869h-12.07728l-0.92886,-25.15151l-1.25893,-17.80624l-2.4,-7.34758l11.66667,-1.17626z" data-paper-data="{&quot;index&quot;:null}" fill="#234175"/><path d="M252.64857,151.03881l1.34227,18.87961l0.47895,6.69869h-5.68559l-0.34163,-6.22012l-1.68597,-19.54258l-1.93244,-25.23742l4.64725,-0.48145z" data-paper-data="{&quot;index&quot;:null}" fill="#264780"/><path d="M254.4149,166.91677l0.37261,3.44444l1.77407,3.75351l-1.81342,2.96006h-12.80606l-0.24921,-7.47665l8.42617,-0.82063z" fill="#6b7880"/><path d="M254.82121,170.42117l1.73611,3.68644l-1.74768,2.96461h-12.8679l-0.14422,-1.6941z" fill="#4f5863"/></g><g stroke="#113c86" stroke-width="0" stroke-linecap="round"><path d="M232.65121,124.63231l11.45833,1.88938l-0.4,6.71779l-1.68337,18.41734l-2.1001,18.75942l-0.58481,6.41079h-11.79395l0.29094,-6.99919l1.92802,-19.04221z" fill="#234175"/><path d="M238.73884,125.70233l5.3707,0.81937l-0.4,6.71779l-1.68337,18.41734l-2.1001,18.75942l-0.58481,6.41079h-5.47311l0.4063,-6.66889l1.91289,-19.66187l2.06358,-17.8608z" fill="#264780"/><path d="M240.88567,167.12128l-0.35466,3.51263l0.8574,4.02624l-1.4422,2.4146h-13.14848l0.41745,-7.47667l10.32467,-0.87744z" fill="#6b7880"/><path d="M240.54838,170.675l0.84368,3.97232l-1.42409,2.43634l-13.16825,0.01087l-0.079,-1.74848z" fill="#4f5863"/></g><path d="M249.97981,127.83753l-17.77914,0.6726l-0.56593,-34.44322l8.21607,-2.53455l9.98016,2.94571z" fill="#7a8799" stroke="#113c86" stroke-width="0" stroke-linecap="round"/><path d="M234.95179,122.33465l-2.75111,6.17548l-0.56593,-31.2826l3.53286,14.04566z" fill="#626b7a" stroke="#113c86" stroke-width="0" stroke-linecap="round"/><path d="M248.69378,122.19844l-0.13565,-11.07154l1.31284,-7.30557l0.10196,22.74319z" fill="#626b7a" stroke="#113c86" stroke-width="0" stroke-linecap="round"/><path d="M241.83571,127.86014c0,0 0.03446,-18.00976 -0.13481,-24.47241c-0.15723,-6.00348 -0.69459,-10.92758 -0.69459,-10.92758h0.82452c0,0 0.53759,4.9332 0.69489,10.93882c0.16922,6.46106 0.13451,24.41673 0.13451,24.41673z" fill="#c8c8c8" stroke="none" stroke-width="0" stroke-linecap="butt"/><g stroke="#113c86" stroke-width="0" stroke-linecap="round"><path d="M232.08782,129.63589l0.18466,0.96977l-0.42569,2.50638l-0.6078,-0.11668l-0.81519,2.03344l-2.74959,-0.68255l-1.42049,-2.79499l-0.18705,-1.18992z" data-paper-data="{&quot;index&quot;:null}" fill="#f7e5b4"/><path d="M234.48042,98.45972l-0.58844,5.28162l-0.55542,8.34159l-0.52576,17.05528l-4.41677,1.34886l-2.8734,-0.02548l-1.19606,-9.46049l1.16637,-17.20084l5.47565,-8.14479l3.49101,-1.7794z" data-paper-data="{&quot;index&quot;:null}" fill="#234175"/><path d="M234.48042,98.45972l-0.58844,5.28162l-0.55542,8.34159l-0.39462,17.24434l-3.50072,0.80281l0.18723,-17.96942l1.96814,-14.77535z" data-paper-data="{&quot;index&quot;:null}" fill="#264780"/></g><path d="M249.67416,82.7809l-0.13802,4.08368l-0.23078,-0.47421l-0.76838,2.80215l-0.03149,-1.0897l-0.90902,1.67618l-1.36996,1.657l0.34302,-0.90423l-1.38183,1.36379l0.11514,-1.25009l-1.28965,1.60382l-6.75219,0.0236l-2.57023,-1.94819l-0.23392,1.09313l-0.54439,-1.33647l-0.69775,-0.15058l-0.0227,-2.15434l-0.84455,1.56278l-1.09765,-4.76298l4.01758,-8.4559l10.17752,-0.35484z" data-paper-data="{&quot;index&quot;:null}" fill-opacity="0.65098" fill="#332c23" stroke="#332c23" stroke-width="0" stroke-linecap="round"/><path d="M241.36008,93.63298l3.0221,-1.21679l-3.21395,3.02155l-5.88892,4.55l-4.83194,1.56896l-6.26421,4.51517l0.97137,-6.56459l5.97873,-7.44153l5.03309,-0.91801z" fill="url(#color-7)" stroke="#eb0095" stroke-width="0" stroke-linecap="round"/><path d="M237.41101,92.84954l-0.27416,-2.61305h6.65056l-0.27416,2.61305l-1.61575,0.75075l-2.83515,-0.01702z" fill="#c4b68f" stroke="#000000" stroke-width="0" stroke-linecap="butt"/><path d="M245.48803,71.78372l2.77374,4.15669l0.67358,4.43399l-1.10289,5.37201l1.5672,0.24515l-0.88069,1.38915l-1.67891,1.2771l-1.75586,2.70676l-4.6052,2.09816l-4.6253,-2.28695l-1.55336,-2.17776l-1.64398,-1.56629l-0.78249,-1.38004l1.32263,-0.19328l-1.25111,-5.38719l0.94712,-4.60192l2.93993,-3.89315l4.57914,-1.54423z" data-paper-data="{&quot;index&quot;:null}" fill="url(#color-8)" stroke="#332c23" stroke-width="0" stroke-linecap="round"/><path d="M241.25706,90.78574h-1.46818" data-paper-data="{&quot;index&quot;:null}" fill="none" stroke="#000000" stroke-width="0.15" stroke-linecap="round"/><path d="M242.96634,84.01089l3.54917,0.0128l0.66641,0.1211l-4.91624,0.00516z" fill-opacity="0.70196" fill="#332c23" stroke="none" stroke-width="0" stroke-linecap="round"/><path d="M238.97127,84.14995l-4.91624,-0.00516l0.66641,-0.1211l3.54918,-0.01281z" data-paper-data="{&quot;index&quot;:null}" fill-opacity="0.70196" fill="#332c23" stroke="none" stroke-width="0" stroke-linecap="round"/><path d="M240.46415,88.67618v0.3384" fill="none" stroke-opacity="0.45098" stroke="#332c23" stroke-width="0.15" stroke-linecap="round"/><path d="M242.26568,84.98873l4.91624,-0.01219l-0.66641,2.26936l-4.0836,0.18508z" fill="#fafafa" stroke-opacity="0.50196" stroke="#332c23" stroke-width="0" stroke-linecap="round"/><path d="M238.80504,87.43098l-4.0836,-0.18508l-0.66641,-2.26936l4.91624,0.01219z" data-paper-data="{&quot;index&quot;:null}" fill="#fafafa" stroke-opacity="0.50196" stroke="#332c23" stroke-width="0" stroke-linecap="round"/><path d="M238.05849,87.37653l-2.11665,-0.08596l-0.19709,-1.03856l0.06563,-1.25593l2.22,0.0087l0.10908,1.22118z" data-paper-data="{&quot;index&quot;:null}" fill="#3f0000" stroke="none" stroke-width="0" stroke-linecap="round"/><path d="M243.09749,86.22597l0.10908,-1.22118l2.22,-0.0087l0.06563,1.25593l-0.19709,1.03856l-2.11665,0.08596z" data-paper-data="{&quot;index&quot;:null}" fill="#3f0000" stroke="none" stroke-width="0" stroke-linecap="round"/><path d="M240.87527,69.26522l5.26136,1.44995l-0.7362,0.32715l2.42286,1.61069l2.05386,3.23956l0.84587,4.01905l-0.51223,-0.58038l0.11546,5.76848l-0.83731,-1.07003l-0.71547,1.79064l-1.34534,4.7592l-0.72383,-6.54583l-2.21658,-1.92525l0.40751,1.24532l-2.09536,-0.85488l0.12615,0.77376l-1.2772,-0.60469l-0.15316,2.09591l-0.78423,-1.48323l0.23559,1.03428l-1.09679,-0.87607l-1.09867,-1.51467l0.23113,1.83561l-1.48489,-1.74203l-1.46224,1.06703l0.18311,-1.28319l-1.69922,2.7149l-0.16096,-0.87862l-0.81646,6.67497l-1.30333,-4.62085l-0.77863,-0.8847l-0.86028,1.2949l0.11163,-2.34687l-0.17038,-3.06398l-0.59241,0.7764l1.46432,-4.94363l1.39917,-2.11991l-0.83337,-0.96338l3.10185,-1.61729l1.12969,-2.45966l0.35459,0.99811z" data-paper-data="{&quot;index&quot;:null}" fill="#332c23" stroke="#332c23" stroke-width="0" stroke-linecap="round"/><path d="M243.87977,92.21516l1.14585,-0.25488l0.29105,1.55182l-4.14843,1.87865l-5.88892,4.55l-4.83193,1.56896l4.35498,-3.40888l5.39997,-4.25464z" fill="url(#color-9)" stroke="#eb0095" stroke-width="0" stroke-linecap="round"/><path d="M247.37685,84.8946l-0.86134,2.3513l0.57798,-2.18093l-4.82781,-0.07624z" fill="url(#color-10)" stroke-opacity="0.50196" stroke="#332c23" stroke-width="0" stroke-linecap="round"/><path d="M238.97127,84.98873l-4.82781,0.07624l0.57798,2.18093l-0.86134,-2.3513z" data-paper-data="{&quot;index&quot;:null}" fill="url(#color-11)" stroke-opacity="0.50196" stroke="#332c23" stroke-width="0" stroke-linecap="round"/></g></g></svg>