<svg version="1.1" xmlns="http://www.w3.org/2000/svg" xmlns:xlink="http://www.w3.org/1999/xlink" width="33.08315" height="16.08315" viewBox="0,0,33.08315,16.08315"><g transform="translate(-357.87491,-71.90895)"><g data-paper-data="{&quot;isPaintingLayer&quot;:true}" fill-rule="nonzero" stroke-linejoin="miter" stroke-miterlimit="10" stroke-dasharray="" stroke-dashoffset="0" style="mix-blend-mode: normal"><path d="M357.87491,87.9921v-16.08315h33.08315v16.08315z" fill-opacity="0.00392" fill="#000000" stroke="none" stroke-width="NaN" stroke-linecap="butt"/><path d="M361.02084,82.03945c0,-1.39049 0,-3.8807 0,-4.67015c0,-0.47216 0.45303,-1.0078 0.91292,-1.0078c0.29727,0 1.0916,0 1.0916,0l0.09633,1.2789l2.32082,0.01358l0.06014,-1.29248c0,0 3.33737,0 4.25857,0c0.55611,0 0.90213,0.53565 0.90213,1.0078c0,0.78945 0,3.27966 0,4.67015c0,0.57563 -0.34602,0.96279 -0.90213,0.96279c-0.29845,0 -1.04916,0 -1.04916,0l-0.07849,1.20215l-2.46022,-0.01348l-0.05745,-1.18867c0,0 -3.47779,0 -4.18214,0c-0.45989,0 -0.91292,-0.38716 -0.91292,-0.96279z" fill-opacity="0.30196" fill="#ffffff" stroke="#ebebeb" stroke-width="0.75" stroke-linecap="butt"/><path d="M362.11049,80.27401v-1.10104h1.71422v1.10104z" fill="#ebebeb" stroke="none" stroke-width="0" stroke-linecap="butt"/><path d="M362.11049,82.02841v-1.10105h1.11107v1.10105z" fill="#ebebeb" stroke="none" stroke-width="0" stroke-linecap="butt"/><path d="M364.31874,80.26008v-1.10104h1.11107v1.10104z" fill="#ebebeb" stroke="none" stroke-width="0" stroke-linecap="butt"/><path d="M363.77012,82.01448v-1.10105h2.50505v1.10105z" fill="#ebebeb" stroke="none" stroke-width="0" stroke-linecap="butt"/><path d="M365.95789,80.25312v-1.10104h1.11107v1.10104z" fill="#ebebeb" stroke="none" stroke-width="0" stroke-linecap="butt"/><path d="M366.81235,81.9936v-1.10105h1.11107v1.10105z" fill="#ebebeb" stroke="none" stroke-width="0" stroke-linecap="butt"/><path d="M366.95572,78.51265v-1.10104h1.11107v1.10104z" fill="#ebebeb" stroke="none" stroke-width="0" stroke-linecap="butt"/><path d="M367.61306,80.22527v-1.10104h1.96064v1.10104z" fill="#ebebeb" stroke="none" stroke-width="0" stroke-linecap="butt"/><path d="M368.46264,81.97967v-1.10105h1.11107v1.10105z" fill="#ebebeb" stroke="none" stroke-width="0" stroke-linecap="butt"/><path d="M368.46264,78.49872v-1.10104h1.11107v1.10104z" fill="#ebebeb" stroke="none" stroke-width="0" stroke-linecap="butt"/><path d="M377.70989,79.86887l3.14767,-3.04576c0,0 0.28906,-0.19295 0.35734,-0.19295c1.11266,0 3.85782,0 5.85728,0c0.55611,0 0.90213,0.53565 0.90213,1.0078c0,0.78945 0,3.27966 0,4.67015c0,0.57563 -0.34602,0.96279 -0.90213,0.96279c-1.99947,0 -4.74462,0 -5.85728,0c-0.06867,0 -0.36023,-0.20494 -0.36023,-0.20494z" fill="none" stroke-opacity="0.50196" stroke="#ebebeb" stroke-width="0.75" stroke-linecap="butt"/><path d="M385.09319,81.20305l-2.50505,-2.50505" fill="none" stroke-opacity="0.50196" stroke="#ebebeb" stroke-width="0.75" stroke-linecap="round"/><path d="M385.09319,78.698l-2.50505,2.50505" fill="none" stroke-opacity="0.50196" stroke="#ebebeb" stroke-width="0.75" stroke-linecap="round"/></g></g></svg>