<svg version="1.1" xmlns="http://www.w3.org/2000/svg" xmlns:xlink="http://www.w3.org/1999/xlink" width="116.32134" height="19.19145" viewBox="0,0,116.32134,19.19145"><g transform="translate(-303.05395,-45.40444)"><g data-paper-data="{&quot;isPaintingLayer&quot;:true}" fill-rule="nonzero" stroke-linecap="butt" stroke-linejoin="miter" stroke-miterlimit="10" stroke-dasharray="" stroke-dashoffset="0" style="mix-blend-mode: normal"><path d="M303.42895,59.88885c0,-2.76692 0,-8.1293 0,-9.75176c0,-1.81509 1.6537,-4.35764 3.31117,-4.35764c3.86967,0 39.97734,0 46.95647,0c2.03003,0 3.30341,2.01734 3.30341,4.40898c0,3.34855 0,9.43084 0,9.73726c0,1.79566 -1.26304,4.29521 -3.27551,4.29521c-7.15241,0 -43.95636,0 -46.98437,0c-1.65748,0 -3.31117,-1.9443 -3.31117,-4.33205z" fill-opacity="0.30196" fill="#ffffff" stroke="#ebebeb" stroke-width="0.75"/><text transform="translate(318.69768,58.4552) scale(0.28792,0.28792)" font-size="40" xml:space="preserve" data-paper-data="{&quot;index&quot;:null}" fill="#ebebeb" fill-rule="nonzero" stroke="#e6e6e6" stroke-width="0" stroke-linecap="butt" stroke-linejoin="miter" stroke-miterlimit="10" stroke-dasharray="" stroke-dashoffset="0" font-family="Sans Serif" font-weight="normal" text-anchor="start" style="mix-blend-mode: normal"><tspan x="0" dy="0">禁用</tspan></text><path d="M365.42925,59.88885c0,-2.76692 0,-8.1293 0,-9.75176c0,-1.81509 1.6537,-4.35764 3.31117,-4.35764c3.86967,0 39.97734,0 46.95647,0c2.03003,0 3.30341,2.01734 3.30341,4.40898c0,3.34855 0,9.43084 0,9.73726c0,1.79566 -1.26304,4.29521 -3.27551,4.29521c-7.15241,0 -43.95636,0 -46.98437,0c-1.65748,0 -3.31117,-1.9443 -3.31117,-4.33205z" fill-opacity="0.05098" fill="#ffffff" stroke="#ebebeb" stroke-width="0.75"/><text transform="translate(380.69797,58.4552) scale(0.28792,0.28792)" font-size="40" xml:space="preserve" data-paper-data="{&quot;index&quot;:null}" fill="#ebebeb" fill-rule="nonzero" stroke="#e6e6e6" stroke-width="0" stroke-linecap="butt" stroke-linejoin="miter" stroke-miterlimit="10" stroke-dasharray="" stroke-dashoffset="0" font-family="Sans Serif" font-weight="normal" text-anchor="start" style="mix-blend-mode: normal"><tspan x="0" dy="0">启用</tspan></text></g></g></svg>