<svg version="1.1" xmlns="http://www.w3.org/2000/svg" xmlns:xlink="http://www.w3.org/1999/xlink" width="21.95262" height="107.9821" viewBox="0,0,21.95262,107.9821"><defs><linearGradient x1="210.6965" y1="152.08005" x2="210.6965" y2="162.43714" gradientUnits="userSpaceOnUse" id="color-1"><stop offset="0" stop-color="#396fbf"/><stop offset="1" stop-color="#8e2e99"/></linearGradient><linearGradient x1="212.74379" y1="152.25385" x2="212.74379" y2="159.72296" gradientUnits="userSpaceOnUse" id="color-2"><stop offset="0" stop-color="#396fbf"/><stop offset="1" stop-color="#8e2e99"/></linearGradient><linearGradient x1="212.42368" y1="129.81196" x2="212.42368" y2="153.47287" gradientUnits="userSpaceOnUse" id="color-3"><stop offset="0" stop-color="#998e70"/><stop offset="1" stop-color="#f3e1b2"/></linearGradient><linearGradient x1="269.62629" y1="128.86226" x2="269.62629" y2="153.05426" gradientUnits="userSpaceOnUse" id="color-4"><stop offset="0" stop-color="#000000" stop-opacity="0.54902"/><stop offset="1" stop-color="#000000" stop-opacity="0"/></linearGradient><linearGradient x1="235.95094" y1="92.31984" x2="235.95094" y2="102.67693" gradientUnits="userSpaceOnUse" id="color-5"><stop offset="0" stop-color="#396fbf"/><stop offset="1" stop-color="#8e2e99"/></linearGradient><linearGradient x1="237.99826" y1="92.49364" x2="237.99826" y2="99.96275" gradientUnits="userSpaceOnUse" id="color-6"><stop offset="0" stop-color="#396fbf"/><stop offset="1" stop-color="#8e2e99"/></linearGradient><linearGradient x1="239.04835" y1="70.48827" x2="239.04835" y2="93.28122" gradientUnits="userSpaceOnUse" id="color-7"><stop offset="0" stop-color="#b3a788"/><stop offset="1" stop-color="#f2e2b8"/></linearGradient><linearGradient x1="233.34078" y1="84.48213" x2="233.34078" y2="86.74727" gradientUnits="userSpaceOnUse" id="color-8"><stop offset="0" stop-color="#332c23" stop-opacity="0.70196"/><stop offset="1" stop-color="#332c23" stop-opacity="0"/></linearGradient></defs><g transform="translate(-228.07937,-69.11275)"><g data-paper-data="{&quot;isPaintingLayer&quot;:true}" fill-rule="nonzero" stroke-linejoin="miter" stroke-miterlimit="10" stroke-dasharray="" stroke-dashoffset="0" style="mix-blend-mode: normal"><g data-paper-data="{&quot;index&quot;:null}" stroke="#113c86" stroke-width="0" stroke-linecap="round"><path d="M233.61708,93.84841l4.93036,0.88464l1.49465,9.21687l-0.65037,17.62934l-1.14957,7.52l-3.12663,-0.5415l-3.84974,-1.38313l0.32282,-13.33784l0.09064,-10.76786l1.02056,-5.35314z" fill="#193f80"/><path d="M233.61706,93.84841l5.02004,0.17601l1.40499,9.9255l-0.65037,17.62934l-1.14957,7.52l-3.12663,-0.5415l0.7358,-7.43305l0.56534,-17.15589z" fill="#264780"/><path d="M237.6511,129.04053l0.09163,0.53354l-1.69586,2.12122l-3.86643,0.1536l-0.51518,-3.74338l0.31747,-0.38266z" data-paper-data="{&quot;index&quot;:null}" fill="#f7e5b4"/></g><g data-paper-data="{&quot;index&quot;:null}" stroke="#113c86" stroke-width="0" stroke-linecap="round"><path d="M233.40435,126.5707l12,1.23258l-1.53781,24.85363l-0.39552,23.97024h-12.6l-1.47413,-2.3803l1.95308,-4.17477l0.95666,-18.26772z" data-paper-data="{&quot;index&quot;:null}" fill="#113c86"/><path d="M233.40442,126.5707l4.98058,0.55267l-0.71607,25.75868l-0.64788,17.65833l-0.34163,6.08676h-5.80831l-1.47413,-2.3803l1.95308,-4.17477l1.12332,-18.26772z" data-paper-data="{&quot;index&quot;:null}" fill="#264780"/><path d="M235.51124,168.77781l8.98981,0.82063l-0.61285,7.47665h-13.30606l-1.81342,-2.96006l1.77407,-3.75351l0.37261,-3.44444z" fill="#6b7880"/><path d="M243.98931,175.37838l-0.12248,1.68323l-13.34616,0.02174l-1.75855,-2.96461l1.74698,-3.70818z" fill="#4f5863"/></g><g data-paper-data="{&quot;index&quot;:null}" stroke="#113c86" stroke-width="0" stroke-linecap="round"><path d="M247.13545,151.3936l0.86136,18.58993l0.29094,6.84913h-12.7l-1.35888,-2.13779l0.77407,-4.13555l-0.46072,-18.3132l-0.13782,-14.39085l-0.4,-9.84649l12,-1.84887z" fill="#234175"/><path d="M239.86303,133.99145l0.51803,17.11896l0.54623,19.1963l0.4063,6.52591h-5.74583l-1.35888,-2.13779l0.77407,-4.13555l-0.46072,-18.3132l-0.13782,-17.66357l-0.4,-6.57376l5.3707,-0.8018z" fill="#264780"/><path d="M237.58695,168.72096l10.57315,0.87744l0.23563,7.47667h-13.21515l-1.35887,-2.4146l0.77407,-4.02624l-0.35466,-3.51263z" fill="#6b7880"/><path d="M248.46191,175.35724l-0.06813,1.73761l-13.23492,-0.03261l-1.35887,-2.43634l0.77846,-3.92884z" fill="#4f5863"/></g><path d="M232.88459,101.34644l0.95058,-7.49421l8.32546,-1.26546l3.71408,2.66932l1.75216,2.28418l-0.926,32.86594l-13.57314,-2.09996z" data-paper-data="{&quot;index&quot;:null}" fill="#7a8799" stroke="#113c86" stroke-width="0" stroke-linecap="round"/><path d="" fill="#340000" stroke="none" stroke-width="0" stroke-linecap="round"/><path d="" fill="#340000" stroke="none" stroke-width="0" stroke-linecap="round"/><path d="M234.06999,128.3404c0,0 -0.11804,-17.31378 0.05118,-23.67932c0.1573,-5.91683 0.69489,-10.7771 0.69489,-10.7771h0.82452c0,0 -0.53736,4.8513 -0.69459,10.76602c-0.16927,6.36711 -0.05148,23.80944 -0.05148,23.80944z" data-paper-data="{&quot;index&quot;:null}" fill="#c8c8c8" stroke="none" stroke-width="0" stroke-linecap="butt"/><g data-paper-data="{&quot;index&quot;:null}" stroke="#113c86" stroke-width="0" stroke-linecap="round"><path d="M244.84891,130.32581l0.15525,0.89658l-1.64042,2.91679l-4.55493,-0.0088l-0.87824,-4.13967l0.40838,-0.93893z" data-paper-data="{&quot;index&quot;:null}" fill="#f7e5b4"/><path d="M239.46931,95.49333l4.15428,-0.51989l3.18568,2.15599l0.36121,6.61463l-0.35913,17.41349l-1.24326,8.99445l-3.25943,-0.033l-4.80254,-1.358l0.93733,-17.3153l0.01184,-8.56739z" data-paper-data="{&quot;index&quot;:null}" fill="#234175"/><path d="M239.539,96.65114l2.04563,0.14157l0.89881,15.06987l-1.29997,17.95123l-3.82533,-1.00662l1.08531,-17.36148l0.01184,-8.56739z" data-paper-data="{&quot;index&quot;:null}" fill="#264780"/></g><path d="" data-paper-data="{&quot;index&quot;:null}" fill="#665c52" stroke="#000000" stroke-width="0" stroke-linecap="round"/><path d="" fill="#eddcae" stroke="#000000" stroke-width="0" stroke-linecap="butt"/><path d="" fill="url(#color-1)" stroke="#000000" stroke-width="0" stroke-linecap="round"/><path d="" fill="url(#color-2)" stroke="#000000" stroke-width="0" stroke-linecap="round"/><path d="" data-paper-data="{&quot;index&quot;:null}" fill="url(#color-3)" stroke="#000000" stroke-width="0" stroke-linecap="round"/><path d="" data-paper-data="{&quot;index&quot;:null}" fill="none" stroke="#000000" stroke-width="0.15" stroke-linecap="round"/><path d="" data-paper-data="{&quot;index&quot;:null}" fill-opacity="0.50196" fill="#332c23" stroke="none" stroke-width="0" stroke-linecap="round"/><path d="" data-paper-data="{&quot;index&quot;:null}" fill="#fafafa" stroke="none" stroke-width="0" stroke-linecap="round"/><path d="" data-paper-data="{&quot;index&quot;:null}" fill="#3f0000" stroke="none" stroke-width="0" stroke-linecap="round"/><path d="" fill-opacity="0.50196" fill="#332c23" stroke="none" stroke-width="0" stroke-linecap="round"/><path d="" fill="#fafafa" stroke="none" stroke-width="0" stroke-linecap="round"/><path d="" data-paper-data="{&quot;index&quot;:null}" fill="#3f0000" stroke="none" stroke-width="0" stroke-linecap="round"/><path d="" data-paper-data="{&quot;index&quot;:null}" fill="#332c23" stroke="#a8ccff" stroke-width="0" stroke-linecap="round"/><path d="" fill="#dccca1" stroke="#000000" stroke-width="0" stroke-linecap="round"/><path d="" fill="none" stroke-opacity="0.50196" stroke="#332c23" stroke-width="0.15" stroke-linecap="round"/><g stroke-linecap="round"><path d="" data-paper-data="{&quot;index&quot;:null}" fill="#f7e5b5" stroke="#a8ccff" stroke-width="0"/><path d="" data-paper-data="{&quot;index&quot;:null}" fill="url(#color-4)" stroke="#a8ccff" stroke-width="0"/><path d="" data-paper-data="{&quot;index&quot;:null}" fill="#332c23" stroke="#a8ccff" stroke-width="0"/><path d="" data-paper-data="{&quot;index&quot;:null}" fill="#fafafa" stroke="none" stroke-width="0"/><path d="" data-paper-data="{&quot;index&quot;:null}" fill="#3f0000" stroke="none" stroke-width="0"/><path d="" data-paper-data="{&quot;index&quot;:null}" fill="none" stroke="#000000" stroke-width="0.25"/><path d="" data-paper-data="{&quot;index&quot;:null}" fill="#fafafa" stroke="none" stroke-width="0"/><path d="" data-paper-data="{&quot;index&quot;:null}" fill="#3f0000" stroke="none" stroke-width="0"/></g><path d="M248.34789,82.97099l-0.40668,4.05445l-0.62437,2.76249l-0.21185,-0.8369l-0.2639,0.81327l-0.42869,0.93791l-0.16543,-0.27152l-0.65525,1.24464l0.19129,-1.23072l-0.81653,1.48987l-0.03676,-1.00796l-0.73663,0.98746l0.01937,-4.99255z" data-paper-data="{&quot;index&quot;:null}" fill-opacity="0.65098" fill="#332c23" stroke="#000000" stroke-width="0" stroke-linecap="round"/><path d="M236.61811,94.87795v-3.85354h6.28501v2.62475z" fill="#eddcae" stroke="#000000" stroke-width="0" stroke-linecap="butt"/><g stroke="#000000" stroke-width="0" stroke-linecap="round"><path d="M237.65021,95.06491l-4.31856,4.89779l-2.27145,2.55668l0.59169,-5.80581l1.68798,-3.19048l2.21429,-0.79519l2.21428,-0.21408l5.86507,-0.33517z" fill="url(#color-5)"/><path d="M244.25866,92.55898l0.02825,1.03128l-6.74984,1.6434l-2.9,4.17719l-1.05869,0.18186l3.38775,-5.00357l6.89016,-2.80704z" fill="url(#color-6)"/></g><path d="M235.75719,87.20639l-5.1084,-0.22211l-1.2549,-3.91245l3.1778,-2.91297z" fill="#665c52" stroke="#000000" stroke-width="0" stroke-linecap="round"/><path d="M242.82949,71.31318l3.17078,2.06351l2.15503,3.2567l0.54015,6.43648l-2.38502,5.12263l-3.78367,3.31226l-9.37059,1.77646l-1.85652,-2.85961l-1.59025,-1.55355l0.9851,-2.13437l-1.29325,-5.54397l1.03873,-5.72047l2.57289,-3.34383l5.08624,-1.63715z" data-paper-data="{&quot;index&quot;:null}" fill="url(#color-7)" stroke="#000000" stroke-width="0" stroke-linecap="round"/><path d="M232.20018,90.80404l0.84802,-0.04493" fill="none" stroke="#000000" stroke-width="0.15" stroke-linecap="round"/><path d="M231.56688,83.83138l3.61334,-0.32233l0.68943,0.00319l-4.89407,0.63269z" fill-opacity="0.70196" fill="#332c23" stroke="none" stroke-width="0" stroke-linecap="round"/><path d="M231.02817,84.84029l4.39649,-0.28434l-0.60804,2.29133l-3.3937,0.56381z" fill="#fafafa" stroke="none" stroke-width="0" stroke-linecap="round"/><path d="M231.59615,86.05101l-0.00179,-1.22381l1.70829,-0.10663l0.12644,1.22734l-0.05762,1.14684l-1.58617,0.19295z" data-paper-data="{&quot;index&quot;:null}" fill="#3f0000" stroke="none" stroke-width="0" stroke-linecap="round"/><path d="M241.68679,90.78725l-0.33454,-2.43501l-0.32226,0.33394l-0.81274,-3.6769l-0.87666,0.27069l-1.25273,5.28924l-0.44825,-2.4265l-0.29333,0.56182l-1.05144,-5.31418l-0.35375,0.91402l-1.89174,-1.9832l-0.27894,0.83456l-1.94594,-1.44557l-0.13293,1.85131l-1.23058,-0.29549l-0.08596,0.87938l-0.98224,-1.22532l-0.36575,1.00109l-0.39108,-3.73683l-0.55656,0.16851l1.67548,-6.18721l-0.52884,-0.01672l3.66094,-3.1433l-0.18741,-0.2498l6.71951,-1.64303l5.99134,1.55429l-0.55233,0.19905l2.8371,2.71228l2.03687,4.52094l-0.5318,0.10193l0.83176,5.92468l-0.61913,-0.35021l-1.02769,4.3327l-0.46019,-0.64771l-2.35396,3.47091l-0.16057,-0.70063l-2.35815,1.83883z" fill="#332c23" stroke="#000000" stroke-width="0" stroke-linecap="round"/><path d="M240.16463,85.40267l1.80973,0.08131l-0.4993,1.75779l-1.50051,1.78197z" fill="#dccca1" stroke="#000000" stroke-width="0" stroke-linecap="round"/><path d="M235.65339,84.48213l-0.83677,2.36515l0.55613,-2.18751l-4.34458,0.18052z" fill="url(#color-8)" stroke="none" stroke-width="0" stroke-linecap="round"/></g></g></svg>