<svg version="1.1" xmlns="http://www.w3.org/2000/svg" xmlns:xlink="http://www.w3.org/1999/xlink" width="26.00195" height="108.10405" viewBox="0,0,26.00195,108.10405"><defs><linearGradient x1="245.51388" y1="91.28205" x2="244.90037" y2="106.55406" gradientUnits="userSpaceOnUse" id="color-1"><stop offset="0" stop-color="#396fbf"/><stop offset="1" stop-color="#8e2e99"/></linearGradient><linearGradient x1="239.49161" y1="70.91305" x2="239.49161" y2="92.82762" gradientUnits="userSpaceOnUse" id="color-2"><stop offset="0" stop-color="#b3a788"/><stop offset="1" stop-color="#f2e2b8"/></linearGradient></defs><g transform="translate(-226.74296,-68.9904)"><g data-paper-data="{&quot;isPaintingLayer&quot;:true}" fill-rule="nonzero" stroke-width="0" stroke-linejoin="miter" stroke-miterlimit="10" stroke-dasharray="" stroke-dashoffset="0" style="mix-blend-mode: normal"><g data-paper-data="{&quot;index&quot;:null}" stroke="#113c86" stroke-linecap="round"><path d="M251.63412,128.00968l0.24279,0.87692l-1.34516,3.06418l-4.53365,0.43987l-1.2817,-4.03304l0.31391,-0.97458z" data-paper-data="{&quot;index&quot;:null}" fill="#f7e5b4"/><path d="M243.63817,93.14567l5.0136,1.97893l2.74524,4.65874l1.33782,18.8396l-0.56558,9.36361l-3.38982,0.15797l-4.54235,-0.85414l-0.83689,-17.43786l-0.3616,-8.5038z" data-paper-data="{&quot;index&quot;:null}" fill="#234175"/><path d="M244.02971,93.47677l3.43188,16.39269l0.16695,18.00739l-3.53466,-0.55959l-0.69369,-17.46474l-0.3616,-8.5038z" data-paper-data="{&quot;index&quot;:null}" fill="#264780"/></g><g data-paper-data="{&quot;index&quot;:null}" stroke="#113c86" stroke-linecap="round"><path d="M249.11153,150.78558l1.05302,19.04221l0.29094,6.99919h-11.79395l-0.58481,-6.41079l-0.76014,-18.75942l-0.76329,-18.41734l-0.4,-6.71779l11.45833,-1.88938z" fill="#264780"/><path d="M242.29768,132.63542l0.85779,17.28937l1.14436,20.2333l0.4063,6.66889h-6.04454l-0.58481,-6.41079l-0.76014,-18.75942l-0.76329,-18.41734l-0.4,-6.71779l5.94213,-0.67651z" fill="#234175"/><path d="M240.46297,168.72059l10.32467,0.87744l0.41745,7.47667h-13.14848l-1.4422,-2.4146l0.8574,-4.02624l-0.35466,-3.51263z" fill="#6b7880"/><path d="M251.07365,174.76264l0.00434,2.33181l-13.16825,-0.01087l-1.30491,-2.43042z" fill="#4f5863"/></g><g data-paper-data="{&quot;index&quot;:null}" stroke="#113c86" stroke-linecap="round"><path d="M232.33314,125.13544l11.66667,1.17626l-2.4,7.34758l-0.13393,17.80624l-0.55386,25.15151h-12.07728l0.47895,-6.69869l1.09227,-18.87961z" data-paper-data="{&quot;index&quot;:null}" fill="#264780"/><path d="M232.33313,125.13545l4.64725,0.48145l-1.09315,26.23742l-1.02526,18.54258l-0.34163,6.22012h-5.68559l0.47895,-6.69869l0.96727,-18.87961z" data-paper-data="{&quot;index&quot;:null}" fill="#234175"/><path d="M233.18548,168.7774l8.42617,0.82063l-0.24921,7.47665h-12.80606l-1.81342,-2.96006l1.77407,-3.75351l0.37261,-3.44444z" fill="#6b7880"/><path d="M241.42367,174.79471l-0.06088,2.27744h-12.8679l-1.58297,-2.9024z" fill="#4f5863"/></g><path d="M231.93375,95.06131l8.21216,-3.69571l7.56772,3.1775l0.67861,5.95846l-0.40504,28.68221l-16.12502,0.18295z" data-paper-data="{&quot;index&quot;:null}" fill="#7a8799" stroke="#113c86" stroke-linecap="round"/><path d="M232.45897,111.2732l2.04841,-9.84766l2.10934,7.83642l-0.13925,13.54651l-0.34156,6.5298l-3.07195,0.06116l-0.48457,-7.06477z" data-paper-data="{&quot;index&quot;:null}" fill="#626b7a" stroke="#113c86" stroke-linecap="round"/><g data-paper-data="{&quot;index&quot;:null}" stroke="#113c86" stroke-linecap="round"><path d="M235.00939,128.15382l0.25545,0.42658l-1.12717,3.95109l-4.17533,-0.45863l-1.35281,-2.35488l0.17186,-0.51335z" data-paper-data="{&quot;index&quot;:null}" fill="#f7e5b4"/><path d="M236.98597,97.25715l-0.22517,9.06801l-0.94265,22.01155l-4.34592,1.09527l-3.34501,-0.13783l-0.58256,-7.93703l1.37738,-17.50427l2.03946,-8.33656l3.17237,-0.86712z" fill="#234175"/><path d="M232.50224,104.42402l-1.72248,17.03253l0.69247,7.97543l-3.34501,-0.13783l-0.58256,-7.93703l1.37738,-17.50427l2.05861,-8.3174l3.15322,-0.88627z" fill="#264780"/></g><path d="" fill="#340000" stroke="none" stroke-linecap="round"/><path d="" fill="#340000" stroke="none" stroke-linecap="round"/><path d="M236.16797,92.89485v-2.33889h6.28501v2.33889z" data-paper-data="{&quot;index&quot;:null}" fill="#eddcae" stroke="#000000" stroke-linecap="butt"/><path d="M247.68661,93.45231l2.26249,2.4219l2.09056,3.60229l0.70525,7.05686l-5.81845,-7.22048l-7.69717,-4.00312l-4.4728,-1.38926l1.14011,-1.74192l6.23971,-0.09488l2.58369,-0.57652z" fill="url(#color-1)" stroke="#eb0095" stroke-linecap="round"/><path d="M242.89641,71.52347l3.61443,2.2511l2.12206,2.97694l0.44899,6.20758l-1.36707,4.41185l-3.69649,3.42814l-7.02943,2.02854l-3.24482,-1.93559l-1.89274,-2.71368l-1.95002,-7.80208l1.33877,-4.51975l2.38937,-3.56877l4.34511,-1.3747z" data-paper-data="{&quot;index&quot;:null}" fill="url(#color-2)" stroke="#000000" stroke-linecap="round"/><path d="M234.95453,70.20517l4.79258,-1.21477l6.31674,1.68441l-0.77712,0.24797l2.52093,1.79848l1.96661,3.66188l0.61635,4.82392l-0.94537,5.2365l-0.38021,-1.26488l-0.77973,3.24399l-0.36925,-1.46523l-1.58965,3.57325l-0.40096,-0.6757l-1.60606,1.72397l-0.13997,-0.64992l-1.49899,1.53238l-2.27839,-1.41683l-0.09319,0.88179l-3.1545,-1.39584l-1.46124,-2.85528l-0.55323,0.36954l-0.74407,-3.93621l-0.64825,-0.03412l-0.68254,5.84242l-1.94404,-5.52878l-0.46757,1.60149l-0.62477,-3.83296l-0.61345,0.73305l0.05738,-5.6762l1.99415,-4.30191z" data-paper-data="{&quot;index&quot;:null}" fill="#332c23" stroke="#a8ccff" stroke-linecap="round"/></g></g></svg>