<svg version="1.1" xmlns="http://www.w3.org/2000/svg" xmlns:xlink="http://www.w3.org/1999/xlink" width="640" height="180" viewBox="0,0,640,180"><defs><linearGradient x1="240" y1="180" x2="240" y2="360" gradientUnits="userSpaceOnUse" id="color-1"><stop offset="0" stop-color="#000000" stop-opacity="0"/><stop offset="1" stop-color="#000000" stop-opacity="0.30196"/></linearGradient></defs><g transform="translate(80,-180)"><g data-paper-data="{&quot;isPaintingLayer&quot;:true}" fill-rule="nonzero" stroke-linejoin="miter" stroke-miterlimit="10" stroke-dasharray="" stroke-dashoffset="0" style="mix-blend-mode: normal"><path d="M-80,180h640v180h-640z" fill="url(#color-1)" stroke="none" stroke-width="1.00207" stroke-linecap="butt"/><path d="M426.44228,249.38192c4.99672,0 8.50153,3.1929 8.50153,8.39059c0,21.53095 0,75.46299 0,81.34151c0,4.28254 -3.46391,8.36347 -8.4101,8.36347c-31.23202,0 -313.16633,0 -373.2944,0c-5.30591,0 -8.18311,-3.106 -8.18311,-8.18045c0,-21.11649 0,-74.31998 0,-81.63704c0,-4.24431 2.87732,-8.27809 8.18311,-8.27809c0,0 346.64692,0.00001 373.20297,0.00001z" fill-opacity="0.90196" fill="#405680" stroke="#ebebeb" stroke-width="0.75" stroke-linecap="butt"/><path d="M129.41421,347.47456l0.04614,-13.88493l-3.43687,-34.05012l-5.43216,-19.80762l5.10929,-11.06313l11.58843,18.29668l3.81375,44.88986l0.98958,15.62414z" data-paper-data="{&quot;index&quot;:null}" fill="#ebebeb" stroke="#262626" stroke-width="0.25" stroke-linecap="round"/><path d="M125.08805,342.12999l-40.8146,0.47814l-3.56297,-75.47306l11.39946,-5.45603l10.84348,-0.91643l10.50306,1.01538l13.19675,6.79144z" fill="#ebebeb" stroke="#262626" stroke-width="0.25" stroke-linecap="round"/><path d="M66.60687,347.48439l0.26089,-14.90983l4.05862,-48.16331l10.68869,-17.30335l4.33598,9.31125l-3.32513,23.95845l-3.28672,31.88869l0.1514,15.21665z" data-paper-data="{&quot;index&quot;:null}" fill="#ebebeb" stroke="#262626" stroke-width="0.25" stroke-linecap="round"/><path d="M126.92084,325.11996l-1.58155,-25.58047l-5.43215,-19.80762l7.47997,-11.66811l12.23911,18.25098l3.58621,35.89132z" data-paper-data="{&quot;index&quot;:null}" fill="#262626" stroke="#262626" stroke-width="0.25" stroke-linecap="round"/><path d="M82.95366,347.06428l-3.15603,-80.64862l13.60876,-5.56352l9.53879,11.00042l9.1945,-10.90036l15.42643,6.91406l-1.68854,79.19505z" fill="#262626" stroke="#262626" stroke-width="0.25" stroke-linecap="round"/><path d="M426.44228,249.38192c4.99672,0 8.50153,3.1929 8.50153,8.39059c0,21.53095 0,75.46299 0,81.34151c0,4.28254 -3.46391,8.36347 -8.4101,8.36347c-31.23202,0 -313.16633,0 -373.2944,0c-5.30591,0 -8.18311,-3.106 -8.18311,-8.18045c0,-21.11649 0,-74.31998 0,-81.63704c0,-4.24431 2.87732,-8.27809 8.18311,-8.27809c0,0 346.64692,0.00001 373.20297,0.00001z" fill="none" stroke="#ebebeb" stroke-width="1.25" stroke-linecap="butt"/><path d="M64.9155,322.29519l3.47645,-38.16797l11.53667,-17.53755l6.70664,9.82949l-2.76118,23.95846l-1.98469,24.7679z" data-paper-data="{&quot;index&quot;:null}" fill="#262626" stroke="#262626" stroke-width="0.25" stroke-linecap="round"/><g stroke="#262626" stroke-width="0.25"><path d="M94.92372,261.89825l-0.70878,-6.75547h17.19356l-0.70878,6.75547" fill="#ebebeb" stroke-linecap="butt"/><path d="M126.92188,235.73783l-0.65131,10.55746l-0.59663,-1.22597l-1.98648,7.24434l-0.08141,-2.81718l-2.35007,4.33339l-3.54173,4.28381l0.8868,-2.33769l-3.57242,3.52578l0.29767,-3.23183l-3.33411,4.14632l-17.4563,0.06101l-6.64476,-5.03662l-0.60475,2.82605l-1.4074,-3.45515l-1.80388,-0.38929l-0.05869,-5.56957l-2.1834,4.04022l-2.83773,-12.31364l9.79759,-22.15536l27.48967,-0.91736z" data-paper-data="{&quot;index&quot;:null}" fill-opacity="0.50196" fill="#262626" stroke-linecap="round"/><path d="M116.09957,207.03869l7.46538,10.74621l1.15241,11.75759l-2.85128,13.88815l4.18409,0.63378l-1.60817,3.69227l-5.14155,3.20073l-4.83822,6.99773l-11.6069,5.72316l-11.65886,-6.21124l-4.3147,-5.63012l-4.58448,-3.88348l-1.82107,-3.73361l3.55181,-0.49968l-3.23447,-13.92739l1.85959,-12.19174l7.60054,-10.06488l12.42734,-5.32666z" data-paper-data="{&quot;index&quot;:null}" fill="#ebebeb" stroke-linecap="round"/><path d="M104.86681,256.51033h-3.79566" data-paper-data="{&quot;index&quot;:null}" fill="none" stroke-linecap="round"/><path d="M109.54438,239.36244l9.1756,0.03309l1.72286,0.31308l-12.70986,0.01334z" fill="#262626" stroke-linecap="round"/><path d="M98.77088,239.72195l-12.70986,-0.01334l1.72286,-0.31308l9.17562,-0.03312z" data-paper-data="{&quot;index&quot;:null}" fill="#262626" stroke-linecap="round"/><path d="M102.81692,251.05647v0.87486" fill="none" stroke-linecap="round"/><path d="M107.73296,241.89043l12.70986,-0.03151l-1.72286,5.86693l-10.55725,0.47848z" fill="#fafafa" stroke-linecap="round"/><path d="M98.26907,248.20441l-10.55725,-0.47848l-1.72286,-5.86693l12.70986,0.03151z" data-paper-data="{&quot;index&quot;:null}" fill="#fafafa" stroke-linecap="round"/><path d="M96.33906,248.06361l-5.47213,-0.22223l-0.50953,-2.68497l0.16967,-3.24693l5.73932,0.02249l0.282,3.15709z" data-paper-data="{&quot;index&quot;:null}" fill="#262626" stroke-linecap="round"/><path d="M109.88344,245.08904l0.282,-3.15709l5.73932,-0.02249l0.16967,3.24693l-0.50953,2.68497l-5.47213,0.22223z" data-paper-data="{&quot;index&quot;:null}" fill="#262626" stroke-linecap="round"/></g><path d="M120.92689,241.7858l-2.21589,6.04897l1.48692,-5.61068l-12.42007,-0.34438z" fill="#262626" stroke="#262626" stroke-width="0.4" stroke-linecap="round"/><path d="M98.76134,241.87979l-12.42007,0.34437l1.48692,5.61068l-2.21589,-6.04897z" data-paper-data="{&quot;index&quot;:null}" fill="#262626" stroke="#262626" stroke-width="0.4" stroke-linecap="round"/><path d="M104.03468,200.40036l13.67667,3.76908l-1.91372,0.85041l6.29812,4.18692l5.33892,8.42109l2.1988,10.44734l-1.33152,-1.50867l0.30013,14.9949l-2.17655,-2.78149l-1.85983,4.65469l-3.49715,12.37133l-1.88156,-17.01559l-5.7619,-5.0046l1.0593,3.23715l-5.44679,-2.22222l0.32792,2.01135l-3.32002,-1.57186l-0.39813,5.44822l-2.03857,-3.85559l0.61241,2.68856l-2.85106,-2.2773l-2.85594,-3.93732l0.60081,4.77159l-3.8599,-4.52833l-3.80103,2.7737l0.47599,-3.33559l-4.41705,7.05726l-0.41841,-2.28393l-2.12235,17.35128l-3.38795,-12.01169l-2.02401,-2.29974l-2.23626,3.36603l0.29018,-6.10058l-0.4429,-7.96468l-1.53994,2.01822l3.80643,-12.85074l3.63708,-5.51061l-2.16631,-2.50426l8.06312,-4.20407l2.93658,-6.39378l0.92174,2.59454z" data-paper-data="{&quot;index&quot;:null}" fill="#262626" stroke="#332c23" stroke-width="0" stroke-linecap="round"/><path d="M355.28904,337.60177c0,-1.91616 0,-10.28486 0,-11.40845c0,-1.25699 1.63099,-3.01776 3.26572,-3.01776c3.81654,0 24.3042,0 31.1875,0c2.00217,0 3.25806,1.39705 3.25806,3.05332c0,2.31894 0,11.18621 0,11.39841c0,1.24354 -1.2457,2.97453 -3.23053,2.97453c-7.0542,0 -28.22859,0 -31.21503,0c-1.63472,0 -3.26571,-1.34647 -3.26571,-3.00004z" fill-opacity="0.05098" fill="#ffffff" stroke-opacity="0.65098" stroke="#ebebeb" stroke-width="0.75" stroke-linecap="butt"/><text transform="translate(360.08551,334.89493) scale(0.25052,0.25052)" font-size="40" xml:space="preserve" fill-opacity="0.65098" fill="#ebebeb" fill-rule="nonzero" stroke="#e6e6e6" stroke-width="0" stroke-linecap="butt" stroke-linejoin="miter" stroke-miterlimit="10" stroke-dasharray="" stroke-dashoffset="0" font-family="Sans Serif" font-weight="normal" text-anchor="start" style="mix-blend-mode: normal"><tspan x="0" dy="0">Space</tspan></text><text transform="translate(399.62791,335.6897) scale(0.28792,0.28792)" font-size="40" xml:space="preserve" data-paper-data="{&quot;index&quot;:null}" fill-opacity="0.65098" fill="#ebebeb" fill-rule="nonzero" stroke="#e6e6e6" stroke-width="0" stroke-linecap="butt" stroke-linejoin="miter" stroke-miterlimit="10" stroke-dasharray="" stroke-dashoffset="0" font-family="Sans Serif" font-weight="normal" text-anchor="start" style="mix-blend-mode: normal"><tspan x="0" dy="0">继续</tspan></text><text transform="translate(157.77819,292.05018) scale(0.28792,0.28792)" font-size="40" xml:space="preserve" data-paper-data="{&quot;index&quot;:null}" fill="#e6e6e6" fill-rule="nonzero" stroke="#e6e6e6" stroke-width="0" stroke-linecap="butt" stroke-linejoin="miter" stroke-miterlimit="10" stroke-dasharray="" stroke-dashoffset="0" font-family="Sans Serif" font-weight="normal" text-anchor="start" style="mix-blend-mode: normal"><tspan x="0" dy="0">敏捷的棕色狐狸跨过懒狗。</tspan></text><text transform="translate(157.7782,271.05018) scale(0.28792,0.28792)" font-size="40" xml:space="preserve" data-paper-data="{&quot;index&quot;:null}" fill="#e6e6e6" fill-rule="nonzero" stroke="#e6e6e6" stroke-width="0" stroke-linecap="butt" stroke-linejoin="miter" stroke-miterlimit="10" stroke-dasharray="" stroke-dashoffset="0" font-family="Sans Serif" font-weight="normal" text-anchor="start" style="mix-blend-mode: normal"><tspan x="0" dy="0">UV0A-Bot</tspan></text></g></g></svg>