<svg version="1.1" xmlns="http://www.w3.org/2000/svg" xmlns:xlink="http://www.w3.org/1999/xlink" width="33.08315" height="16.08315" viewBox="0,0,33.08315,16.08315"><g transform="translate(-357.80054,-71.90895)"><g data-paper-data="{&quot;isPaintingLayer&quot;:true}" fill-rule="nonzero" stroke-linejoin="miter" stroke-miterlimit="10" stroke-dasharray="" stroke-dashoffset="0" style="mix-blend-mode: normal"><path d="M357.80055,87.9921v-16.08315h33.08315v16.08315z" fill-opacity="0.00392" fill="#000000" stroke="none" stroke-width="NaN" stroke-linecap="butt"/><path d="M361.02088,82.30811c0,-1.39049 0,-3.8807 0,-4.67015c0,-0.47216 0.45303,-1.0078 0.91292,-1.0078c1.11266,0 5.82799,0 7.82746,0c0.55611,0 0.90213,0.53565 0.90213,1.0078c0,0.78945 0,3.27966 0,4.67015c0,0.57563 -0.34602,0.96279 -0.90213,0.96279c-1.99947,0 -6.7148,0 -7.82746,0c-0.45989,0 -0.91292,-0.38716 -0.91292,-0.96279z" fill="none" stroke-opacity="0.50196" stroke="#ebebeb" stroke-width="0.75" stroke-linecap="butt"/><path d="M362.11053,80.5115v-1.10104h1.71422v1.10104z" fill-opacity="0.50196" fill="#ebebeb" stroke="none" stroke-width="0" stroke-linecap="butt"/><path d="M362.11053,82.2659v-1.10105h1.11107v1.10105z" fill-opacity="0.50196" fill="#ebebeb" stroke="none" stroke-width="0" stroke-linecap="butt"/><path d="M362.11053,78.78495v-1.10104h1.11107v1.10104z" fill-opacity="0.50196" fill="#ebebeb" stroke="none" stroke-width="0" stroke-linecap="butt"/><path d="M364.31877,80.49757v-1.10104h1.11107v1.10104z" fill-opacity="0.50196" fill="#ebebeb" stroke="none" stroke-width="0" stroke-linecap="butt"/><path d="M363.77016,82.25197v-1.10105h2.50505v1.10105z" fill-opacity="0.50196" fill="#ebebeb" stroke="none" stroke-width="0" stroke-linecap="butt"/><path d="M363.72863,78.77102v-1.10104h1.11107v1.10104z" fill-opacity="0.50196" fill="#ebebeb" stroke="none" stroke-width="0" stroke-linecap="butt"/><path d="M365.95793,80.49061v-1.10104h1.11107v1.10104z" fill-opacity="0.50196" fill="#ebebeb" stroke="none" stroke-width="0" stroke-linecap="butt"/><path d="M365.33765,78.76406v-1.10104h1.11107v1.10104z" fill-opacity="0.50196" fill="#ebebeb" stroke="none" stroke-width="0" stroke-linecap="butt"/><path d="M366.81237,82.23109v-1.10105h1.11107v1.10105z" fill-opacity="0.50196" fill="#ebebeb" stroke="none" stroke-width="0" stroke-linecap="butt"/><path d="M366.95575,78.75014v-1.10104h1.11107v1.10104z" fill-opacity="0.50196" fill="#ebebeb" stroke="none" stroke-width="0" stroke-linecap="butt"/><path d="M367.6131,80.46276v-1.10104h1.96064v1.10104z" fill-opacity="0.50196" fill="#ebebeb" stroke="none" stroke-width="0" stroke-linecap="butt"/><path d="M368.46267,82.21716v-1.10105h1.11107v1.10105z" fill-opacity="0.50196" fill="#ebebeb" stroke="none" stroke-width="0" stroke-linecap="butt"/><path d="M368.46267,78.73621v-1.10104h1.11107v1.10104z" fill-opacity="0.50196" fill="#ebebeb" stroke="none" stroke-width="0" stroke-linecap="butt"/><path d="M377.70989,79.86887l3.14767,-3.04576c0,0 0.28906,-0.19295 0.35734,-0.19295c1.11266,0 3.85782,0 5.85728,0c0.55611,0 0.90213,0.53565 0.90213,1.0078c0,0.78945 0,3.27966 0,4.67015c0,0.57563 -0.34602,0.96279 -0.90213,0.96279c-1.99947,0 -4.74462,0 -5.85728,0c-0.06867,0 -0.36023,-0.20494 -0.36023,-0.20494z" fill="none" stroke-opacity="0.50196" stroke="#ebebeb" stroke-width="0.75" stroke-linecap="butt"/><path d="M385.09318,81.20305l-2.50505,-2.50505" fill="none" stroke-opacity="0.50196" stroke="#ebebeb" stroke-width="0.75" stroke-linecap="round"/><path d="M382.58814,81.20305l2.50505,-2.50505" fill="none" stroke-opacity="0.50196" stroke="#ebebeb" stroke-width="0.75" stroke-linecap="round"/></g></g></svg>