<svg version="1.1" xmlns="http://www.w3.org/2000/svg" xmlns:xlink="http://www.w3.org/1999/xlink" width="36.02226" height="112.40537" viewBox="0,0,36.02226,112.40537"><defs><linearGradient x1="283.47915" y1="75.17151" x2="283.47915" y2="98.83238" gradientUnits="userSpaceOnUse" id="color-1"><stop offset="0" stop-color="#8c8266"/><stop offset="1" stop-color="#f3e1b2"/></linearGradient></defs><g transform="translate(-301.98887,-75.92618)"><g data-paper-data="{&quot;isPaintingLayer&quot;:true}" fill-rule="nonzero" stroke-linejoin="miter" stroke-miterlimit="10" stroke-dasharray="" stroke-dashoffset="0" style="mix-blend-mode: normal"><path d="M329.86983,89.44187l-0.13802,4.08368l-0.23078,-0.47421l-0.76838,2.80215l-0.03149,-1.0897l-0.90902,1.67618l-1.36996,1.657l0.34302,-0.90423l-1.38183,1.36379l0.11514,-1.25009l-1.28965,1.60382l-6.75219,0.0236l-2.57023,-1.94819l-0.23392,1.09313l-0.54439,-1.33647l-0.69775,-0.15058l-0.0227,-2.15434l-0.84455,1.56278l-1.09765,-4.76298l4.01758,-8.4559l10.17752,-0.35484z" data-paper-data="{&quot;index&quot;:null}" fill-opacity="0.54902" fill="#262626" stroke="#262626" stroke-width="0" stroke-linecap="round"/><path d="M338.01113,180.00001c0,4.60138 -8.06385,8.33155 -18.01113,8.33155c-9.94727,0 -18.01113,-3.73015 -18.01113,-8.33155c0,-4.60138 8.06386,-8.33155 18.01113,-8.33155c9.94727,0 18.01113,3.73016 18.01113,8.33155z" fill-opacity="0.2" fill="#000000" stroke="none" stroke-width="0" stroke-linecap="butt"/><path d="M329.06506,130.13842l1.94814,26.27435l2.14475,24.08804l1.0285,2.51411h-10.63953l-0.83295,-25.68792l-2.52447,-27.0743z" fill="#ebebeb" stroke="#262626" stroke-width="0.15" stroke-linecap="round"/><path d="M322.16558,130.1661l-1.83468,27.08401l-2.08615,23.90057l0.66983,2.00951h-10.27587l2.99789,-26.245l1.55046,-26.64632z" fill="#ebebeb" stroke="#262626" stroke-width="0.15" stroke-linecap="round"/><path d="M335.95501,135.69126l-0.12123,1.19665l-1.26202,2.85642l-1.86968,0.80932l-0.92325,-1.99216l-0.59904,0.14475l-0.56115,-2.48242l0.13088,-0.97675l0.02676,-8.05292l-1.33172,-13.1938l-2.10486,-7.67509l2.06651,-4.28676l4.4903,7.08963l1.47776,17.394z" data-paper-data="{&quot;index&quot;:null}" fill="#ebebeb" stroke="#262626" stroke-width="0.15" stroke-linecap="round"/><path d="M329.10408,130.50339l-15.81491,0.18527l-1.38059,-29.24443l4.41708,-2.11411l4.20165,-0.3551l4.06975,0.39344l5.1135,2.63156z" fill="#ebebeb" stroke="#262626" stroke-width="0.15" stroke-linecap="round"/><path d="M311.49329,136.13583l0.18466,0.96977l-0.42569,2.50638l-0.6078,-0.11668l-0.81519,2.03344l-1.91775,-0.68255l-1.42049,-2.79499l-0.18705,-1.18992l0.17604,-10.06046l1.57264,-18.6624l4.14167,-6.70473l1.76686,3.60794l-1.28843,9.28346l-1.27354,12.35628z" data-paper-data="{&quot;index&quot;:null}" fill="#ebebeb" stroke="#262626" stroke-width="0.15" stroke-linecap="round"/><path d="M329.81425,123.91232l-0.61282,-9.91196l-2.10486,-7.67509l2.89835,-4.64895l4.74243,7.19969l1.38959,13.90723z" data-paper-data="{&quot;index&quot;:null}" fill="#262626" stroke="#262626" stroke-width="0.15" stroke-linecap="round"/><path d="M329.77395,133.33153l-17.14589,0.18737l-1.0732,-32.4812l5.27315,-2.02799l3.6961,4.26246l3.5627,-4.22369l5.97746,2.5513z" fill="#262626" stroke="#262626" stroke-width="0.15" stroke-linecap="round"/><path d="M305.78832,122.81777l1.34706,-14.78939l4.47025,-6.92325l2.5987,3.93652l-1.06991,9.28346l-0.76903,9.59711z" data-paper-data="{&quot;index&quot;:null}" fill="#262626" stroke="#262626" stroke-width="0.15" stroke-linecap="round"/><path d="M329.53834,130.13842l2.6919,26.27435l1.92096,23.37147l-11.31743,0.18273l-0.85459,-22.63996l-2.26297,-27.0743z" fill="#262626" stroke="#262626" stroke-width="0.15" stroke-linecap="round"/><path d="M322.74924,130.1661l-1.57317,27.08401l-1.97291,22.80652l-11.16201,-0.13889l2.48879,-23.00255l2.29423,-26.64632z" fill="#262626" stroke="#262626" stroke-width="0.15" stroke-linecap="round"/><g stroke="#113c86" stroke-width="0" stroke-linecap="round"><path d="" fill="#234175"/><path d="" fill="#264780"/></g><path d="" fill="#7a8799" stroke="#113c86" stroke-width="0" stroke-linecap="round"/><path d="" fill="#626b7a" stroke="#113c86" stroke-width="0" stroke-linecap="round"/><path d="" fill="#626b7a" stroke="#113c86" stroke-width="0" stroke-linecap="round"/><path d="" fill="#c8c8c8" stroke="none" stroke-width="0" stroke-linecap="butt"/><g stroke="#113c86" stroke-width="0" stroke-linecap="round"><path d="" data-paper-data="{&quot;index&quot;:null}" fill="#f7e5b4"/><path d="" data-paper-data="{&quot;index&quot;:null}" fill="#234175"/><path d="" data-paper-data="{&quot;index&quot;:null}" fill="#264780"/></g><path d="" data-paper-data="{&quot;index&quot;:null}" fill-opacity="0.65098" fill="#332c23" stroke="#332c23" stroke-width="0" stroke-linecap="round"/><path d="" fill="#c4b68f" stroke="#000000" stroke-width="0" stroke-linecap="butt"/><path d="" data-paper-data="{&quot;index&quot;:null}" fill="url(#color-1)" stroke="#332c23" stroke-width="0" stroke-linecap="round"/><path d="" data-paper-data="{&quot;index&quot;:null}" fill="none" stroke="#000000" stroke-width="0.15" stroke-linecap="round"/><path d="" fill-opacity="0.50196" fill="#332c23" stroke="none" stroke-width="0" stroke-linecap="round"/><path d="" data-paper-data="{&quot;index&quot;:null}" fill-opacity="0.50196" fill="#332c23" stroke="none" stroke-width="0" stroke-linecap="round"/><path d="" fill="none" stroke-opacity="0.50196" stroke="#332c23" stroke-width="0.15" stroke-linecap="round"/><path d="" fill="#fafafa" stroke-opacity="0.50196" stroke="#332c23" stroke-width="0" stroke-linecap="round"/><path d="" data-paper-data="{&quot;index&quot;:null}" fill="#fafafa" stroke-opacity="0.50196" stroke="#332c23" stroke-width="0" stroke-linecap="round"/><path d="" data-paper-data="{&quot;index&quot;:null}" fill="#3f0000" stroke="none" stroke-width="0" stroke-linecap="round"/><path d="" data-paper-data="{&quot;index&quot;:null}" fill="#3f0000" stroke="none" stroke-width="0" stroke-linecap="round"/><path d="" data-paper-data="{&quot;index&quot;:null}" fill="#332c23" stroke="#332c23" stroke-width="0" stroke-linecap="round"/><path d="M317.48037,99.3622l-0.27416,-2.61305h6.65056l-0.27416,2.61305" fill="#ebebeb" stroke="#262626" stroke-width="0.15" stroke-linecap="butt"/><path d="M325.6837,78.44469l2.77374,4.15669l0.67358,4.43399l-1.10289,5.37201l1.5672,0.24515l-0.88069,1.38915l-1.67891,1.2771l-1.75586,2.70676l-4.6052,2.09816l-4.6253,-2.28695l-1.55336,-2.17776l-1.64398,-1.56629l-0.78249,-1.38004l1.32263,-0.19328l-1.25111,-5.38719l0.94712,-4.60192l2.93993,-3.89315l4.57914,-1.54423z" data-paper-data="{&quot;index&quot;:null}" fill="#ebebeb" stroke="#262626" stroke-width="0.1" stroke-linecap="round"/><path d="M321.45273,97.44671h-1.46818" data-paper-data="{&quot;index&quot;:null}" fill="#ebebeb" stroke="#262626" stroke-width="0.1" stroke-linecap="round"/><path d="M323.16201,90.67186l3.54917,0.0128l0.66641,0.1211l-4.91624,0.00516z" fill="#333333" stroke="#262626" stroke-width="0" stroke-linecap="round"/><path d="M319.16694,90.81092l-4.91624,-0.00516l0.66641,-0.1211l3.54918,-0.01281z" data-paper-data="{&quot;index&quot;:null}" fill="#333333" stroke="#262626" stroke-width="0" stroke-linecap="round"/><path d="M320.65982,95.33715v0.3384" fill="#ebebeb" stroke="#262626" stroke-width="0.1" stroke-linecap="round"/><path d="M322.46135,91.6497l4.91624,-0.01219l-0.66641,2.26936l-4.0836,0.18508z" fill="#ebebeb" stroke="#262626" stroke-width="0.1" stroke-linecap="round"/><path d="M319.00071,94.09195l-4.0836,-0.18508l-0.66641,-2.26936l4.91624,0.01219z" data-paper-data="{&quot;index&quot;:null}" fill="#ebebeb" stroke="#262626" stroke-width="0.1" stroke-linecap="round"/><path d="M318.25416,94.0375l-2.11665,-0.08596l-0.19709,-1.03856l0.06563,-1.25593l2.22,0.0087l0.10908,1.22118z" data-paper-data="{&quot;index&quot;:null}" fill="#333333" stroke="#262626" stroke-width="0" stroke-linecap="round"/><path d="M323.29316,92.88694l0.10908,-1.22118l2.22,-0.0087l0.06563,1.25593l-0.19709,1.03856l-2.11665,0.08596z" data-paper-data="{&quot;index&quot;:null}" fill="#333333" stroke="#262626" stroke-width="0" stroke-linecap="round"/><path d="M321.07094,75.92619l5.26136,1.44995l-0.7362,0.32715l2.42286,1.61069l2.05386,3.23956l0.84587,4.01905l-0.51223,-0.58038l0.11546,5.76848l-0.83731,-1.07003l-0.71547,1.79064l-1.34534,4.7592l-0.72383,-6.54583l-2.21658,-1.92525l0.40751,1.24532l-2.09536,-0.85488l0.12615,0.77376l-1.2772,-0.60469l-0.15316,2.09591l-0.78423,-1.48323l0.23559,1.03428l-1.09679,-0.87607l-1.09867,-1.51467l0.23113,1.83561l-1.48489,-1.74203l-1.46224,1.06703l0.18311,-1.28319l-1.69922,2.7149l-0.16096,-0.87862l-0.81646,6.67497l-1.30333,-4.62085l-0.77863,-0.8847l-0.86028,1.2949l0.11163,-2.34687l-0.17038,-3.06398l-0.59241,0.7764l1.46432,-4.94363l1.39917,-2.11991l-0.83337,-0.96338l3.10185,-1.61729l1.12969,-2.45966l0.35459,0.99811z" data-paper-data="{&quot;index&quot;:null}" fill="#333333" stroke="#262626" stroke-width="0" stroke-linecap="round"/><path d="M327.57252,91.55557l-0.86134,2.3513l0.57798,-2.18093l-4.82781,-0.07624z" fill="#262626" stroke="#262626" stroke-width="0" stroke-linecap="round"/><path d="M319.16694,91.6497l-4.82781,0.07624l0.57798,2.18093l-0.86134,-2.3513z" data-paper-data="{&quot;index&quot;:null}" fill="#262626" stroke="#262626" stroke-width="0" stroke-linecap="round"/></g></g></svg>