<svg version="1.1" xmlns="http://www.w3.org/2000/svg" xmlns:xlink="http://www.w3.org/1999/xlink" width="201.2576" height="113.84361" viewBox="0,0,201.2576,113.84361"><defs><linearGradient x1="266.88439" y1="73.50784" x2="266.88439" y2="108.64686" gradientUnits="userSpaceOnUse" id="color-1"><stop offset="0" stop-color="#ffd363"/><stop offset="1" stop-color="#eb905c"/></linearGradient><linearGradient x1="261.04101" y1="73.50784" x2="261.04101" y2="108.64687" gradientUnits="userSpaceOnUse" id="color-2"><stop offset="0" stop-color="#ffd363"/><stop offset="1" stop-color="#eb905c"/></linearGradient><linearGradient x1="231.53084" y1="85.11288" x2="261.05112" y2="85.11288" gradientUnits="userSpaceOnUse" id="color-3"><stop offset="0" stop-color="#eb905c"/><stop offset="1" stop-color="#ffd363"/></linearGradient><linearGradient x1="231.52261" y1="73.29748" x2="231.52261" y2="99.16172" gradientUnits="userSpaceOnUse" id="color-4"><stop offset="0" stop-color="#ff2676"/><stop offset="1" stop-color="#eb905c"/></linearGradient><linearGradient x1="231.52993" y1="90.96959" x2="266.88254" y2="90.96959" gradientUnits="userSpaceOnUse" id="color-5"><stop offset="0" stop-color="#ff337e"/><stop offset="1" stop-color="#eb905c"/></linearGradient><linearGradient x1="231.44614" y1="91.21656" x2="266.88002" y2="91.21656" gradientUnits="userSpaceOnUse" id="color-6"><stop offset="0" stop-color="#eb905c"/><stop offset="1" stop-color="#ffd363"/></linearGradient></defs><g transform="translate(-198.29625,-70.06651)"><g data-paper-data="{&quot;isPaintingLayer&quot;:true}" fill-rule="nonzero" stroke-linejoin="miter" stroke-miterlimit="10" stroke-dasharray="" stroke-dashoffset="0" style="mix-blend-mode: normal"><path d="M198.29625,154.88872c0,-2.76692 0,-6.1293 0,-7.75176c0,-1.81509 2.18352,-4.35764 4.37203,-4.35764c5.10946,0 35.19322,0 44.40836,0c2.68043,0 4.36178,2.01734 4.36178,4.40898c0,3.34855 0,7.43084 0,7.73726c0,1.79566 -1.6677,4.29521 -4.32493,4.29521c-9.44394,0 -40.44706,0 -44.44521,0c-2.18851,0 -4.37203,-1.9443 -4.37203,-4.33205z" fill="#eb905c" stroke="#ebebeb" stroke-width="0" stroke-linecap="butt"/><g fill="none" stroke-width="2" stroke-linecap="round"><path d="M266.88439,73.50784v35.13903" stroke="url(#color-1)"/><path d="M261.04101,108.64688v-35.13904" stroke="url(#color-2)"/><path d="M231.53084,99.15926c0,0 15.25357,-15.84493 25.66189,-25.66189c1.5,-1.3403 4.07511,-4.72539 3.84381,0" stroke="url(#color-3)"/><path d="M231.52261,99.16172v-25.86423" stroke="url(#color-4)"/><path d="M266.88253,108.64589l-35.35259,-35.3526" stroke="url(#color-5)"/><path d="M266.88003,73.49963l-35.43388,35.43387" stroke="url(#color-6)"/></g><g fill="none" stroke="#ebebeb" stroke-width="2" stroke-linecap="round"><path d="M283.67764,101.4707h-8.30126v-15.99168"/><path d="M295.67228,101.40821h-5.42623l-2.8759,-2.8759v-5.80607l3.39141,-3.3914h4.69369v5.01927l-3.79837,2.27902"/><path d="M301.04275,101.40821v-8.46494l3.7441,-3.7441h4.72082v8.51919l-3.63557,3.63557z"/><path d="M317.93935,101.33465h-4.66656"/><path d="M323.59141,101.48813v-12.29591l3.74411,-3.7441h4.72082v12.35017l-3.63557,3.63557z"/><path d="M337.97901,101.51139v-12.04625h8.24788"/><path d="M354.9124,101.40287l-3.58132,-3.58132l0.10853,-8.46493h7.81378v12.04624z"/><path d="M372.51352,89.35662h-7.8452"/><path d="M371.19552,101.51139l-3.25574,-3.25574v-12.91444"/><path d="M384.81177,101.40821h-5.42624l-2.8759,-2.8759v-5.80607l3.3914,-3.3914h4.69369v5.01927l-3.79837,2.27902"/><path d="M398.45475,101.51662h-8.22567v-8.52298l3.46865,-3.46865h4.85612"/></g><text transform="translate(199.58039,180.45508) scale(0.28792,0.28792)" font-size="40" xml:space="preserve" data-paper-data="{&quot;index&quot;:null}" fill="#e6e6e6" fill-rule="nonzero" stroke="#e6e6e6" stroke-width="0" stroke-linecap="butt" stroke-linejoin="miter" stroke-miterlimit="10" stroke-dasharray="" stroke-dashoffset="0" font-family="Sans Serif" font-weight="normal" text-anchor="start" style="mix-blend-mode: normal"><tspan x="0" dy="0">BUG 的最大贡献者！</tspan></text><text transform="translate(201.58039,155.45508) scale(0.28792,0.28792)" font-size="40" xml:space="preserve" data-paper-data="{&quot;index&quot;:null}" fill-opacity="0.50196" fill="#000000" fill-rule="nonzero" stroke="#e6e6e6" stroke-width="0" stroke-linecap="butt" stroke-linejoin="miter" stroke-miterlimit="10" stroke-dasharray="" stroke-dashoffset="0" font-family="Sans Serif" font-weight="normal" text-anchor="start" style="mix-blend-mode: normal"><tspan x="0" dy="0">#eb905c</tspan></text><path d="M258.29625,154.88872c0,-2.76692 0,-6.1293 0,-7.75176c0,-1.81509 2.18352,-4.35764 4.37203,-4.35764c5.10946,0 35.19322,0 44.40836,0c2.68043,0 4.36178,2.01734 4.36178,4.40898c0,3.34855 0,7.43084 0,7.73726c0,1.79566 -1.6677,4.29521 -4.32493,4.29521c-9.44394,0 -40.44706,0 -44.44521,0c-2.18851,0 -4.37203,-1.9443 -4.37203,-4.33205z" fill="#264780" stroke="#ebebeb" stroke-width="0" stroke-linecap="butt"/><text transform="translate(261.3846,155.45509) scale(0.28792,0.28792)" font-size="40" xml:space="preserve" data-paper-data="{&quot;index&quot;:null}" fill-opacity="0.50196" fill="#ffffff" fill-rule="nonzero" stroke="#e6e6e6" stroke-width="0" stroke-linecap="butt" stroke-linejoin="miter" stroke-miterlimit="10" stroke-dasharray="" stroke-dashoffset="0" font-family="Sans Serif" font-weight="normal" text-anchor="start" style="mix-blend-mode: normal"><tspan x="0" dy="0">#264780</tspan></text></g></g></svg>