<svg version="1.1" xmlns="http://www.w3.org/2000/svg" xmlns:xlink="http://www.w3.org/1999/xlink" width="42.84183" height="108.00199" viewBox="0,0,42.84183,108.00199"><defs><linearGradient x1="238.2718" y1="92.78636" x2="240.31624" y2="109.18332" gradientUnits="userSpaceOnUse" id="color-1"><stop offset="0" stop-color="#396fbf"/><stop offset="1" stop-color="#8e2e99"/></linearGradient><linearGradient x1="240.37016" y1="70.31874" x2="240.37016" y2="93.28125" gradientUnits="userSpaceOnUse" id="color-2"><stop offset="0" stop-color="#b3a788"/><stop offset="1" stop-color="#f2e2b8"/></linearGradient><linearGradient x1="245.98985" y1="84.48214" x2="245.98985" y2="86.74729" gradientUnits="userSpaceOnUse" id="color-3"><stop offset="0" stop-color="#332c23" stop-opacity="0.70196"/><stop offset="1" stop-color="#332c23" stop-opacity="0"/></linearGradient></defs><g transform="translate(-219.50223,-69.24669)"><g data-paper-data="{&quot;isPaintingLayer&quot;:true}" fill-rule="nonzero" stroke-linejoin="miter" stroke-miterlimit="10" stroke-dasharray="" stroke-dashoffset="0" style="mix-blend-mode: normal"><g data-paper-data="{&quot;index&quot;:null}" stroke="#113c86" stroke-width="0" stroke-linecap="round"><path d="M247.28147,100.21329l-2.21715,5.64778l-4.59919,9.73666l-5.50727,12.15205l-4.06822,-0.42788l-3.05115,-0.87149l2.23369,-7.27204l7.07781,-16.15924l5.35264,-7.65074l3.85045,-0.59386z" fill="#193f80"/><path d="M234.07111,128.0652l0.11957,0.48262l-2.09122,3.14725l-3.41523,-1.81908l-0.60515,-2.64751l0.31445,-0.44067z" data-paper-data="{&quot;index&quot;:null}" fill="#f7e5b4"/></g><g stroke="#113c86" stroke-width="0" stroke-linecap="round"><path d="M253.42546,149.90709l5.41579,17.47266l2.91897,3.56691l-0.84409,2.66953l-12.21374,3.09587l-6.27299,-23.13825l-7.59731,-23.71389l11.32929,-4.14325z" data-paper-data="{&quot;index&quot;:null}" fill="#113c86"/><path d="M253.26386,149.94803l5.57734,17.43172l2.91897,3.56691l-0.84409,2.66953l-5.63026,1.42713l-1.8267,-5.81623l-4.96675,-16.95782l-7.02314,-24.7931l4.69211,-1.75948z" data-paper-data="{&quot;index&quot;:null}" fill="#264780"/><path d="M258.48732,164.21459l1.2075,3.2473l2.64194,3.20255l-1.03053,3.31488l-12.89816,3.26936l-2.43111,-7.09687l8.51259,-3.00431z" fill="#6b7880"/><path d="M259.73952,167.50127l2.60454,3.16526l-0.97622,3.30581l-12.94237,3.25813l-0.5323,-1.60154z" fill="#4f5863"/></g><g stroke="#113c86" stroke-width="0" stroke-linecap="round"><path d="M235.51574,123.99761l11.05923,5.01117l-3.03603,9.37529l-4.00694,13.82244l-5.37387,17.51305l-0.36786,4.19125l-1.88423,1.69304l-12.23112,-3.41901l2.12407,-6.51794l5.83421,-17.67171z" fill="#234175"/><path d="M241.61842,126.7907l4.95655,2.21806l-2.15497,6.22338l-4.888,16.97434l-5.37387,17.51305l-0.36786,4.19125l-1.88423,1.69304l-5.5337,-1.54685l2.14816,-6.1756l5.69396,-18.34053l5.10755,-16.34748z" fill="#264780"/><path d="M235.8173,166.61386l-1.28721,3.28747l-0.33843,4.08598l-1.95874,1.95962l-12.72725,-3.5577l2.23975,-7.13721l10.41901,2.00138z" fill="#6b7880"/><path d="M234.52988,169.96646l-0.30797,3.99337l-1.9646,1.98057l-12.75508,-3.5316l0.40217,-1.6918z" fill="#4f5863"/></g><path d="M246.78962,128.30625l-13.57314,2.09996l-0.926,-32.86594l7.0829,-5.31728l6.7088,1.62924l0.95058,7.49421z" fill="#7a8799" stroke="#113c86" stroke-width="0" stroke-linecap="round"/><path d="M240.65953,122.1447l-0.27041,7.16515l-5.51337,0.81044l-0.29621,-7.50178l-0.05978,-13.54651l2.01068,-7.6699l3.92198,9.68114z" fill="#626b7a" stroke="#113c86" stroke-width="0" stroke-linecap="round"/><path d="" fill="#340000" stroke="none" stroke-width="0" stroke-linecap="round"/><path d="" fill="#340000" stroke="none" stroke-width="0" stroke-linecap="round"/><path d="M245.02288,128.45931c0,0 0.11779,-17.44233 -0.05148,-23.80944c-0.15723,-5.91472 -0.69459,-10.76602 -0.69459,-10.76602h0.82452c0,0 0.53759,4.86027 0.69489,10.7771c0.16922,6.36554 0.05118,23.67932 0.05118,23.67932z" fill="#c8c8c8" stroke="none" stroke-width="0" stroke-linecap="butt"/><g stroke="#113c86" stroke-width="0" stroke-linecap="round"><path d="M250.87033,126.86153l0.69008,0.75641l0.50766,4.20124l-4.30733,1.48134l-2.49553,-2.22958l-0.14304,-0.8986z" data-paper-data="{&quot;index&quot;:null}" fill="#f7e5b4"/><path d="M242.63728,102.01547l2.44062,8.2198l6.48649,16.08178l-4.10533,2.8381l-3.07363,1.08528l-3.92436,-8.96307l-6.10282,-15.51311l1.6825,-9.68636l3.12261,-3.31103z" data-paper-data="{&quot;index&quot;:null}" fill="#234175"/><path d="M242.63728,102.01547l2.44062,8.2198l6.64144,16.07762l-3.29426,2.18959l-7.03528,-16.56627l-4.02287,-14.5508l2.16552,-3.35957z" data-paper-data="{&quot;index&quot;:null}" fill="#264780"/></g><path d="M235.46255,86.92146l0.01937,4.99255l-0.73663,-0.98746l-0.03676,1.00796l-0.81653,-1.48987l0.19129,1.23072l-0.83695,-1.24464l-0.16543,0.27152l-0.42869,-0.93791l-0.2639,-0.81327l-0.21185,0.8369l-0.80607,-2.76249l-0.23712,-4.05445z" data-paper-data="{&quot;index&quot;:null}" fill-opacity="0.65098" fill="#332c23" stroke="#000000" stroke-width="0" stroke-linecap="round"/><path d="M236.52145,93.64918v-2.62475h6.28501v3.85354z" data-paper-data="{&quot;index&quot;:null}" fill="#eddcae" stroke="#000000" stroke-width="0" stroke-linecap="butt"/><path d="M242.48733,92.41904l2.88678,0.28136l-0.11627,1.40248l-2.46134,5.16931l-3.11754,4.23378l-1.25783,-0.06312l-3.81312,5.25277l-2.88078,-6.94347l0.67376,-5.56838l4.25049,-3.79454l1.04666,0.0116l1.4931,1.48629z" fill="url(#color-1)" stroke="#eb0095" stroke-width="0" stroke-linecap="round"/><path d="M246.8529,80.15893l3.45583,2.67727l-1.18311,2.57282l-5.45823,1.33387z" data-paper-data="{&quot;index&quot;:null}" fill="#665c52" stroke="#000000" stroke-width="0" stroke-linecap="round"/><path d="M241.32546,70.62221l5.08624,1.46759l2.42115,3.53122l1.19047,5.56873l-1.29325,5.54397l0.9851,2.13437l-1.43096,1.55355l-1.85652,2.85961l-9.52987,-1.77646l-3.78367,-3.31226l-2.39716,-5.12263l0.69189,-6.28474l1.99761,-3.08714l3.1886,-2.2509z" data-paper-data="{&quot;index&quot;:null}" fill="url(#color-2)" stroke="#000000" stroke-width="0" stroke-linecap="round"/><path d="M236.3723,92.06984l-2.17645,-1.83883l-0.16057,0.70063l-2.71736,-3.47091l-0.46019,0.64771l-0.85813,-4.3327l-0.61913,0.35021l0.9835,-5.77294l-0.5318,-0.10193l2.03687,-4.53308l3.03094,-2.56623l-0.55233,-0.19905l5.6579,-1.70603l6.71951,1.64303l-0.18741,0.2498l3.5092,3.16113l-0.38469,0.01672l1.68306,6.03547l-0.55656,-0.16851l-0.39108,3.73683l-0.36575,-1.00109l-0.98224,1.22532l-0.08596,-0.87938l-1.23058,0.29549l-0.13293,-1.85131l-1.94594,1.44557l-0.27894,-0.83456l-1.59646,1.68793l-0.35375,-1.65221l-1.27403,6.34764l-0.29333,-0.56182l-0.44825,2.4265l-1.25273,-5.28924l-0.87666,-0.27069l-0.81274,3.6769l-0.32226,-0.33394l-0.33454,2.43501z" data-paper-data="{&quot;index&quot;:null}" fill="#332c23" stroke="#000000" stroke-width="0" stroke-linecap="round"/><path d="M246.46435,90.75911l0.84802,0.04493" data-paper-data="{&quot;index&quot;:null}" fill="none" stroke="#000000" stroke-width="0.15" stroke-linecap="round"/><path d="M248.44901,84.14497l-4.89407,-0.53931l0.68943,-0.00319l3.61334,0.22895z" data-paper-data="{&quot;index&quot;:null}" fill-opacity="0.70196" fill="#332c23" stroke="none" stroke-width="0" stroke-linecap="round"/><path d="M239.71058,88.97419l-1.50051,-1.78197l-0.4993,-1.75779l1.80973,-0.08131z" data-paper-data="{&quot;index&quot;:null}" fill="#dccca1" stroke="#000000" stroke-width="0" stroke-linecap="round"/><path d="M247.90771,87.41109l-3.3937,-0.56381l-0.60804,-2.29133l4.39649,0.28434z" data-paper-data="{&quot;index&quot;:null}" fill="#fafafa" stroke="none" stroke-width="0" stroke-linecap="round"/><path d="M247.54533,87.2877l-1.58617,-0.19295l-0.05762,-1.14684l0.12644,-1.22734l1.70829,0.10663l-0.00179,1.22381z" data-paper-data="{&quot;index&quot;:null}" fill="#3f0000" stroke="none" stroke-width="0" stroke-linecap="round"/><path d="M248.30246,84.84031l-4.34458,-0.18052l0.55613,2.18751l-0.83677,-2.36515z" data-paper-data="{&quot;index&quot;:null}" fill="url(#color-3)" stroke="none" stroke-width="0" stroke-linecap="round"/></g></g></svg>