<svg version="1.1" xmlns="http://www.w3.org/2000/svg" xmlns:xlink="http://www.w3.org/1999/xlink" width="39.20875" height="108.55967" viewBox="0,0,39.20875,108.55967"><defs><linearGradient x1="235.91041" y1="92.08001" x2="235.91041" y2="102.4371" gradientUnits="userSpaceOnUse" id="color-1"><stop offset="0" stop-color="#396fbf"/><stop offset="1" stop-color="#8e2e99"/></linearGradient><linearGradient x1="237.95771" y1="92.25381" x2="237.95771" y2="99.72292" gradientUnits="userSpaceOnUse" id="color-2"><stop offset="0" stop-color="#396fbf"/><stop offset="1" stop-color="#8e2e99"/></linearGradient><linearGradient x1="239.57716" y1="69.9628" x2="239.57716" y2="93.45412" gradientUnits="userSpaceOnUse" id="color-3"><stop offset="0" stop-color="#b3a788"/><stop offset="1" stop-color="#f2e2b8"/></linearGradient><linearGradient x1="239.50983" y1="84.83703" x2="239.50983" y2="87.18834" gradientUnits="userSpaceOnUse" id="color-4"><stop offset="0" stop-color="#332c23" stop-opacity="0.70196"/><stop offset="1" stop-color="#332c23" stop-opacity="0"/></linearGradient><linearGradient x1="232.58979" y1="84.86046" x2="232.58979" y2="87.15035" gradientUnits="userSpaceOnUse" id="color-5"><stop offset="0" stop-color="#332c23" stop-opacity="0.70196"/><stop offset="1" stop-color="#332c23" stop-opacity="0"/></linearGradient></defs><g transform="translate(-219.53269,-69.28063)"><g data-paper-data="{&quot;isPaintingLayer&quot;:true}" fill-rule="nonzero" stroke-linejoin="miter" stroke-miterlimit="10" stroke-dasharray="" stroke-dashoffset="0" style="mix-blend-mode: normal"><g data-paper-data="{&quot;index&quot;:null}" stroke="#113c86" stroke-width="0" stroke-linecap="round"><path d="M239.8335,97.53376l0.65315,5.33561l2.01709,10.57763l4.21651,12.09522l-3.74138,2.76766l-2.97916,1.09255l-3.78676,-6.94097l-3.79627,-17.22803l0.63864,-9.49285l4.54399,-2.52469z" fill="#1c458c"/><path d="M235.98688,104.60289l3.62785,16.77745l3.36411,6.92951l-2.97916,1.09255l-3.78676,-6.94097l-3.79627,-17.22803l0.42354,-10.17398l4.75909,-1.84356z" fill="#234175"/><path d="M246.11296,126.20983l0.38086,0.31964l0.2263,4.10248l-4.09588,0.9314l-2.04825,-1.78331l-0.00538,-0.54133z" data-paper-data="{&quot;index&quot;:null}" fill="#f7e5b4"/></g><g data-paper-data="{&quot;index&quot;:null}" stroke="#113c86" stroke-width="0" stroke-linecap="round"><path d="M232.64405,126.34192l11.6069,3.28621l-5.97057,24.18596l-4.6929,23.51309l-12.41073,-2.17576l-1.04095,-2.5991l2.64463,-3.7748l4.26091,-17.79933z" data-paper-data="{&quot;index&quot;:null}" fill="#264780"/><path d="M232.64412,126.34192l4.81033,1.40441l-5.31746,25.2193l-3.85154,17.25242l-1.38755,5.93633l-5.72106,-1.00297l-1.04096,-2.5991l2.64463,-3.7748l4.42506,-17.77056z" data-paper-data="{&quot;index&quot;:null}" fill="#234175"/><path d="M227.10268,168.22113l8.71306,2.36066l-1.8947,7.25851l-13.10618,-2.29768l-1.27504,-3.22874l2.39557,-3.39078l0.9618,-3.32836z" fill="#6b7880"/><path d="M234.31362,176.18665l-0.41129,1.63679l-13.14943,-2.28319l-1.22021,-3.22374l2.36106,-3.35081z" fill="#4f5863"/></g><g data-paper-data="{&quot;index&quot;:null}" stroke="#113c86" stroke-width="0" stroke-linecap="round"><path d="M252.49898,150.14573l4.42233,18.06962l1.6636,6.65039l-12.44007,2.55631l-1.76137,-1.82052l-0.0742,-4.20672l-3.97419,-17.8792l-2.86839,-14.10212l-2.37375,-9.56444l11.38224,-4.22644z" fill="#264780"/><path d="M242.03587,134.53005l3.78994,16.69787l4.2357,18.727l1.71155,6.31057l-5.62823,1.15654l-1.76137,-1.82052l-0.07419,-4.20672l-3.97419,-17.8792l-3.52713,-17.30785l-1.715,-6.3587l-0.13074,-2.23342l5.23012,0.36699z" fill="#234175"/><path d="M246.47034,169.07392l10.53336,-1.26872l1.73575,7.27622l-12.94468,2.66l-1.81708,-2.09166l-0.05219,-4.09965l-1.05444,-3.36935z" fill="#6b7880"/><path d="M258.45842,173.38544l0.28302,1.71576l-12.9706,2.63204l-1.82146,-2.11295l-0.02828,-4.00512z" fill="#4f5863"/></g><path d="M233.52951,93.85199c0,0 6.19491,-1.43046 8.04213,-1.62924c3.49445,-0.37606 7.0829,5.31728 7.0829,5.31728l-0.75933,32.86594l-15.40647,-2.4333z" data-paper-data="{&quot;index&quot;:null}" fill="#7a8799" stroke="#113c86" stroke-width="0" stroke-linecap="round"/><path d="M242.02121,111.27319l2.38581,-9.84766l2.63915,7.83642l-0.17423,13.54651l-0.25026,7.38301l-4.19771,-0.69167l-0.34064,-7.16515z" data-paper-data="{&quot;index&quot;:null}" fill="#626b7a" stroke="#113c86" stroke-width="0" stroke-linecap="round"/><path d="" fill="#340000" stroke="none" stroke-width="0" stroke-linecap="round"/><path d="" fill="#340000" stroke="none" stroke-width="0" stroke-linecap="round"/><path d="M235.09758,128.34022c0,0 -0.11804,-17.31378 0.05118,-23.67932c0.1573,-5.91683 0.69489,-10.7771 0.69489,-10.7771h0.82452c0,0 -0.53736,4.8513 -0.69459,10.76602c-0.16927,6.36711 -0.05148,23.80944 -0.05148,23.80944z" data-paper-data="{&quot;index&quot;:null}" fill="#c8c8c8" stroke="none" stroke-width="0" stroke-linecap="butt"/><path d="M242.79649,129.98805l-0.45676,1.11771l-2.12194,2.39352l-3.08739,0.01682l-0.43294,-2.17816l-0.67509,-0.02968l0.08558,-2.54792l0.40669,-0.9033z" data-paper-data="{&quot;index&quot;:null}" fill="#f7e5b4" stroke="#113c86" stroke-width="0" stroke-linecap="round"/><g data-paper-data="{&quot;index&quot;:null}" stroke="#113c86" stroke-width="0" stroke-linecap="round"><path d="M243.23859,94.71934l4.45326,0.94028l1.07688,2.06434l0.41839,7.06018l-3.17187,17.12311l-2.57532,8.52244l-3.20517,-0.59323l-4.49732,-2.16395l3.90214,-16.89591l1.38953,-8.49964z" data-paper-data="{&quot;index&quot;:null}" fill="#264780"/><path d="M243.31255,94.53336l3.01707,0.78504l-0.34051,8.20941l-2.37614,13.1717l-4.43417,12.64282l-3.59513,-1.64969l4.05585,-16.91594l1.38953,-8.49964z" data-paper-data="{&quot;index&quot;:null}" fill="#234175"/></g><path d="M248.39919,82.35343l0.35911,4.22817l-0.74728,2.86425l-0.44432,-0.79717l-0.2591,0.84734l-0.48169,0.99644l-0.28636,-0.24367l-1.03345,1.36379l0.0861,-1.25009l-0.96452,1.60382l-0.21395,-0.9939l-0.92671,1.09323l-3.9093,0.59251l-2.99596,0.83078l-0.76103,-1.56374l-1.33491,0.88306l-0.19488,-1.41768l-0.75303,0.56905l-0.37585,-7.20471l-1.28169,5.74594l-1.81592,-7.6097l7.7915,-7.16773l7.9936,-0.68491z" data-paper-data="{&quot;index&quot;:null}" fill-opacity="0.65098" fill="#332c23" stroke="#000000" stroke-width="0" stroke-linecap="round"/><path d="M237.23898,93.44922v-2.33889h6.28501v2.33889z" data-paper-data="{&quot;index&quot;:null}" fill="#eddcae" stroke="#000000" stroke-width="0" stroke-linecap="butt"/><path d="M238.2993,95.4371l-5.5,4.28572l-3.02896,2.66496l1.10039,-6.45068l2.42857,-3.21429l2.21429,-0.64285l2.21428,0.5l5.86507,-0.33517z" fill="url(#color-1)" stroke="#000000" stroke-width="0" stroke-linecap="round"/><path d="M244.1161,92.31909l0.13026,1.03128l-5.84885,2.18502l-3.45535,3.75893l-2.14285,0.42858l4.50987,-5.06762l6.50655,-3.11307z" fill="url(#color-2)" stroke="#000000" stroke-width="0" stroke-linecap="round"/><path d="M243.07369,70.75143l3.49515,2.20427l2.13686,2.95435l0.59661,6.62137l-2.00265,5.22929l-3.72228,3.57686l-7.07846,2.11654l-3.10408,-2.18884l-1.74257,-2.57748l-1.80025,-8.2252l0.85798,-4.57135l2.40604,-3.57185l5.00146,-2.20487z" data-paper-data="{&quot;index&quot;:null}" fill="url(#color-3)" stroke="#000000" stroke-width="0" stroke-linecap="round"/><path d="M235.31126,90.79537h1.19599" data-paper-data="{&quot;index&quot;:null}" fill="none" stroke="#000000" stroke-width="0.15" stroke-linecap="round"/><path d="M235.09389,88.87495v-0.3384" data-paper-data="{&quot;index&quot;:null}" fill="none" stroke-opacity="0.45098" stroke="#332c23" stroke-width="0.15" stroke-linecap="round"/><path d="M234.38182,84.13123l-3.3184,-0.00516l0.44981,-0.1211l2.39565,-0.01281z" data-paper-data="{&quot;index&quot;:null}" fill-opacity="0.70196" fill="#332c23" stroke="none" stroke-width="0" stroke-linecap="round"/><path d="M234.10839,87.32061l-2.5346,-0.18508l-0.44981,-2.26936l3.00432,0.01219z" data-paper-data="{&quot;index&quot;:null}" fill="#fafafa" stroke="none" stroke-width="0" stroke-linecap="round"/><path d="M233.62671,87.26616l-1.46974,-0.08596l-0.13303,-1.03856l-0.05653,-1.25593l1.67978,0.0087l0.03417,1.22118z" data-paper-data="{&quot;index&quot;:null}" fill="#3f0000" stroke="none" stroke-width="0" stroke-linecap="round"/><path d="M237.58051,83.99217l3.62766,0.0128l0.68115,0.1211l-5.02496,0.00516z" data-paper-data="{&quot;index&quot;:null}" fill-opacity="0.70196" fill="#332c23" stroke="none" stroke-width="0" stroke-linecap="round"/><path d="M236.86435,84.87835l5.02496,-0.01219l-0.68115,2.33266l-4.17391,0.12178z" data-paper-data="{&quot;index&quot;:null}" fill="#fafafa" stroke="none" stroke-width="0" stroke-linecap="round"/><path d="M237.65643,86.11558l0.11149,-1.22118l2.26909,-0.0087l0.06708,1.25593l-0.20147,1.07021l-2.16346,0.05431z" data-paper-data="{&quot;index&quot;:null}" fill="#3f0000" stroke="none" stroke-width="0" stroke-linecap="round"/><path d="M238.13186,69.28063l5.87393,0.66263l-0.54499,0.32715l4.80261,2.74791l-0.45816,0.17372l1.27418,1.95441l1.32056,4.237l-0.475,-0.27477l0.14495,6.02336l-0.34361,-0.77264l-1.01116,3.87808l-0.41576,-0.92334l-3.29045,3.72931l0.04156,-2.84831l-0.42,0.55867l-0.07876,-3.69313l-0.69101,0.25711l-1.44393,5.17779l-0.81042,-6.53997l-1.64326,-1.92525l0.30165,1.24532l-2.32778,-0.85488l0.17816,0.77376l-1.93588,-0.38747l-0.1543,1.87869l-0.85916,-1.48323l0.05175,1.03428l-0.75632,-0.87607l-0.30608,-1.08502l-0.08449,1.08306l-0.84908,-1.06109l-0.87173,0.70899l-0.21566,-0.63872l-0.734,2.52256l-0.11915,-0.87862l-1.03085,1.87327l-0.20775,-0.8847l-0.41697,0.84277l-0.11373,-2.16602l-0.34535,-3.06398l-0.55053,0.7764l1.13773,-5.20953l-0.28544,-0.11167l2.97217,-4.19515l-0.668,-0.19204z" data-paper-data="{&quot;index&quot;:null}" fill="#332c23" stroke="#a8ccff" stroke-width="0" stroke-linecap="round"/><path d="M244.09475,85.38394l1.4381,-0.09924l-0.57152,1.75779l-1.59078,1.96252z" data-paper-data="{&quot;index&quot;:null}" fill="#dccca1" stroke="#000000" stroke-width="0" stroke-linecap="round"/><path d="M242.06542,84.83703l-0.86134,2.3513l0.57798,-2.18093l-4.82781,-0.15376z" data-paper-data="{&quot;index&quot;:null}" fill="url(#color-4)" stroke-opacity="0.50196" stroke="#332c23" stroke-width="0" stroke-linecap="round"/><path d="M234.099,84.87935l-2.88007,0.09008l0.3448,2.18093l-0.48314,-2.2899z" data-paper-data="{&quot;index&quot;:null}" fill="url(#color-5)" stroke-opacity="0.50196" stroke="#332c23" stroke-width="0" stroke-linecap="round"/></g></g></svg>