<svg version="1.1" xmlns="http://www.w3.org/2000/svg" xmlns:xlink="http://www.w3.org/1999/xlink" width="640.00003" height="26.55076" viewBox="0,0,640.00003,26.55076"><g transform="translate(80.00002,-333.44924)"><g data-paper-data="{&quot;isPaintingLayer&quot;:true}" fill-rule="nonzero" stroke-linejoin="miter" stroke-miterlimit="10" stroke-dasharray="" stroke-dashoffset="0" style="mix-blend-mode: normal"><path d="M-79.88852,333.44924h639.88854v26.55076h-640.00003z" fill-opacity="0.30196" fill="#000000" stroke="none" stroke-width="0" stroke-linecap="round"/><path d="M196.48551,354.58282c-3.06633,0 -5.02216,-1.74036 -5.02216,-4.67586c0,-1.61967 0.10952,-9.56729 0.10952,-9.56729c0,0 3.20612,-1.46885 4.8672,-1.47322c1.66108,-0.00437 4.93786,1.45066 4.93786,1.45066c0,0 0.12974,7.96266 0.12974,9.58986c0,2.9355 -1.95583,4.67586 -5.02216,4.67586z" fill="none" stroke-opacity="0.25098" stroke="#ebebeb" stroke-width="0.75" stroke-linecap="butt"/><text transform="translate(206.64628,350.21208) scale(0.25619,0.25619)" font-size="40" xml:space="preserve" data-paper-data="{&quot;index&quot;:null}" fill="#ebebeb" fill-rule="nonzero" stroke="#e6e6e6" stroke-width="0" stroke-linecap="butt" stroke-linejoin="miter" stroke-miterlimit="10" stroke-dasharray="" stroke-dashoffset="0" font-family="Sans Serif" font-weight="normal" text-anchor="start" style="mix-blend-mode: normal"><tspan x="0" dy="0">选择</tspan></text><path d="M194.70594,354.58282c-3.06633,0 -5.02216,-1.74036 -5.02216,-4.67586c0,-1.61967 0.10952,-9.56729 0.10952,-9.56729c0,0 3.20612,-1.46885 4.8672,-1.47322c1.66108,-0.00437 4.93786,1.45066 4.93786,1.45066c0,0 0.12974,7.96266 0.12974,9.58986c0,2.9355 -1.95583,4.67586 -5.02216,4.67586z" fill="none" stroke-opacity="0.50196" stroke="#ebebeb" stroke-width="0.75" stroke-linecap="butt"/><text transform="translate(271.6008,350.21208) scale(0.25619,0.25619)" font-size="40" xml:space="preserve" data-paper-data="{&quot;index&quot;:null}" fill="#ebebeb" fill-rule="nonzero" stroke="#e6e6e6" stroke-width="0" stroke-linecap="butt" stroke-linejoin="miter" stroke-miterlimit="10" stroke-dasharray="" stroke-dashoffset="0" font-family="Sans Serif" font-weight="normal" text-anchor="start" style="mix-blend-mode: normal"><tspan x="0" dy="0">确认</tspan></text><path d="M192.92636,354.58282c-3.06633,0 -5.02216,-1.74036 -5.02216,-4.67586c0,-1.61967 0.10952,-9.56729 0.10952,-9.56729c0,0 3.20612,-1.46886 4.8672,-1.47323c1.66108,-0.00437 4.93786,1.45067 4.93786,1.45067c0,0 0.12974,7.96266 0.12974,9.58986c0,2.9355 -1.95583,4.67586 -5.02216,4.67586z" fill="none" stroke="#ebebeb" stroke-width="0.75" stroke-linecap="butt"/><path d="M192.92639,345.03144v-3.58227" fill="none" stroke="#ebebeb" stroke-width="0.75" stroke-linecap="round"/><path d="M259.66046,354.58282c-3.06633,0 -5.02216,-1.74036 -5.02216,-4.67586c0,-1.61967 0.10952,-9.56729 0.10952,-9.56729c0,0 3.20613,-1.46885 4.8672,-1.47322c1.66108,-0.00437 4.93786,1.45066 4.93786,1.45066c0,0 0.12974,7.96266 0.12974,9.58986c0,2.9355 -1.95584,4.67586 -5.02216,4.67586z" fill="none" stroke="#ebebeb" stroke-width="0.75" stroke-linecap="butt"/><path d="M259.66046,341.44919v3.58227" fill="none" stroke="#ebebeb" stroke-width="0.75" stroke-linecap="round"/><path d="M255.72099,346.70119l0.01348,-5.58666l3.00291,-1.06576l-0.08201,6.3701z" fill="#ebebeb" stroke="none" stroke-width="0" stroke-linecap="butt"/></g></g></svg>