<svg version="1.1" xmlns="http://www.w3.org/2000/svg" xmlns:xlink="http://www.w3.org/1999/xlink" width="40.8897" height="108.59245" viewBox="0,0,40.8897,108.59245"><defs><linearGradient x1="237.09589" y1="92.3203" x2="237.09589" y2="108.82637" gradientUnits="userSpaceOnUse" id="color-1"><stop offset="0" stop-color="#396fbf"/><stop offset="1" stop-color="#8e2e99"/></linearGradient><linearGradient x1="236.45564" y1="92.31027" x2="236.45564" y2="108.83415" gradientUnits="userSpaceOnUse" id="color-2"><stop offset="0" stop-color="#396fbf"/><stop offset="1" stop-color="#8e2e99"/></linearGradient><linearGradient x1="240.7849" y1="69.98156" x2="240.7849" y2="93.47288" gradientUnits="userSpaceOnUse" id="color-3"><stop offset="0" stop-color="#b3a788"/><stop offset="1" stop-color="#f2e2b8"/></linearGradient><linearGradient x1="240.69025" y1="84.86281" x2="240.69025" y2="87.2141" gradientUnits="userSpaceOnUse" id="color-4"><stop offset="0" stop-color="#332c23" stop-opacity="0.70196"/><stop offset="1" stop-color="#332c23" stop-opacity="0"/></linearGradient><linearGradient x1="247.80374" y1="84.8605" x2="247.80374" y2="87.15041" gradientUnits="userSpaceOnUse" id="color-5"><stop offset="0" stop-color="#332c23" stop-opacity="0.70196"/><stop offset="1" stop-color="#332c23" stop-opacity="0"/></linearGradient></defs><g transform="translate(-220.64852,-69.5032)"><g data-paper-data="{&quot;isPaintingLayer&quot;:true}" fill-rule="nonzero" stroke-linejoin="miter" stroke-miterlimit="10" stroke-dasharray="" stroke-dashoffset="0" style="mix-blend-mode: normal"><path d="M259.81692,126.45672l0.39177,0.37359l-0.09605,2.7141l-3.47749,2.35601l-2.84235,-2.96692l0.02659,-0.4965z" data-paper-data="{&quot;index&quot;:null}" fill="#f7e5b4" stroke="#113c86" stroke-width="0" stroke-linecap="round"/><path d="M242.93558,96.04612l5.15455,-0.67272l4.10996,7.95602l6.72103,16.27041l1.75474,7.33813l-3.04481,0.89343l-4.29329,0.54083l-4.83509,-12.27814l-4.19627,-9.86583l-1.54478,-5.05711z" fill="#193f80" stroke="#113c86" stroke-width="0" stroke-linecap="round"/><path d="M242.93558,96.04612l4.9224,-1.34823l4.34212,8.63154l6.72103,16.27041l1.75474,7.33813l-3.04481,0.89343l-2.0877,-7.07754l-6.58845,-15.80801z" fill="#264780" stroke="#113c86" stroke-width="0" stroke-linecap="round"/><g stroke="#113c86" stroke-width="0" stroke-linecap="round"><path d="M240.34958,152.09051l-5.34236,17.50516l0.36813,4.59432l-2.21409,1.71368l-11.80281,-4.41064l7.86418,-22.65046l7.10339,-23.87781l11.67224,3.04601z" data-paper-data="{&quot;index&quot;:null}" fill="#113c86"/><path d="M240.19343,152.03221l-5.18626,17.5635l0.36813,4.59432l-2.21409,1.71368l-5.44082,-2.03321l1.81066,-5.82124l5.4183,-16.82623l8.18996,-24.43795l4.85892,1.22575z" data-paper-data="{&quot;index&quot;:null}" fill="#264780"/><path d="M236.51877,166.79233l-0.85669,3.35695l0.3479,4.13705l-2.73486,2.13799l-12.46419,-4.6578l2.04313,-7.21813l8.70829,2.37818z" fill="#6b7880"/><path d="M235.67642,170.20709l0.3384,4.08509l-2.68505,2.16146l-12.49415,-4.6922l0.47448,-1.61961z" fill="#4f5863"/></g><g stroke="#113c86" stroke-width="0" stroke-linecap="round"><path d="M233.14473,129.54269l11.90662,-2.37712l2.9999,9.3869l4.9607,13.50884l6.00207,17.30419l2.14494,3.61956l-0.54363,2.4741l-11.93035,4.35393l-2.07477,-6.5338l-5.72058,-17.7015z" fill="#234175"/><path d="M239.73123,128.25356l5.3201,-1.08803l1.87792,6.31251l6.08269,16.58323l6.00207,17.30419l2.14494,3.61956l-0.54363,2.4741l-5.39762,1.96984l-1.8556,-6.26972l-6.22449,-18.16309l-5.53881,-16.20197z" fill="#264780"/><path d="M258.55111,163.87489l0.87106,3.42135l2.10747,3.51687l-0.44872,2.73413l-12.41428,4.53053l-2.34187,-7.10434l9.63159,-4.44905z" fill="#6b7880"/><path d="M259.46002,167.34929l2.0782,3.42387l-0.44127,2.75455l-12.42168,4.56795l-0.65971,-1.60895z" fill="#4f5863"/></g><path d="M248.45629,127.97285l-15.40647,2.4333l-0.75933,-32.86594l7.0829,-5.31728l8.04213,1.62924z" fill="#7a8799" stroke="#113c86" stroke-width="0" stroke-linecap="round"/><path d="M239.09904,122.33468l-0.38849,7.16515l-4.78726,0.69167l-0.28542,-7.38301l-0.1987,-13.54651l3.00981,-7.83642l2.72089,9.84766z" fill="#626b7a" stroke="#113c86" stroke-width="0" stroke-linecap="round"/><path d="" fill="#340000" stroke="none" stroke-width="0" stroke-linecap="round"/><path d="" fill="#340000" stroke="none" stroke-width="0" stroke-linecap="round"/><path d="M245.02289,128.4593c0,0 0.11779,-17.44233 -0.05148,-23.80944c-0.15723,-5.91472 -0.69459,-10.76602 -0.69459,-10.76602h0.82452c0,0 0.53759,4.86027 0.69489,10.7771c0.16922,6.36554 0.05118,23.67932 0.05118,23.67932z" fill="#c8c8c8" stroke="none" stroke-width="0" stroke-linecap="butt"/><g stroke="#113c86" stroke-width="0" stroke-linecap="round"><path d="M227.79429,129.00151l0.04643,1.02284l-2.29771,3.5537l-4.25817,-1.61725l-0.49153,-3.31014l0.46498,-0.78213z" data-paper-data="{&quot;index&quot;:null}" fill="#f7e5b4"/><path d="M237.36265,104.63854l-3.38308,7.87887l-5.30351,16.50972l-4.97094,-0.44524l-3.0566,-1.13234l2.09583,-8.92296l6.0471,-16.33078l4.63547,-6.44425l6.31166,-0.23714z" data-paper-data="{&quot;index&quot;:null}" fill="#234175"/><path d="M237.36265,104.63854l-3.38308,7.87887l-5.18178,16.60567l-3.93268,-0.42477l5.1917,-17.23319l6.21746,-13.7569l3.60897,-0.97504z" data-paper-data="{&quot;index&quot;:null}" fill="#264780"/></g><path d="M234.76973,75.34625l7.69737,0.39593l7.7915,7.16773l-1.81592,7.6097l-1.28169,-5.74594l-0.37585,7.20471l-0.75303,-0.56905l-0.19488,1.41768l-1.33491,-0.88306l-0.76103,1.56374l-2.99596,-0.83078l-3.9093,-0.59251l-0.92671,-1.09323l-0.21395,0.9939l-0.96452,-1.60382l0.0861,1.25009l-1.03345,-1.36379l-0.28636,0.24367l-0.48169,-0.99644l-0.2591,-0.84734l-0.44432,0.79717l-0.74728,-2.86425l0.35911,-4.08368z" data-paper-data="{&quot;index&quot;:null}" fill-opacity="0.65098" fill="#332c23" stroke="#000000" stroke-width="0" stroke-linecap="round"/><path d="M236.79906,93.46795v-2.33889h6.28501v2.33889z" data-paper-data="{&quot;index&quot;:null}" fill="#eddcae" stroke="#000000" stroke-width="0" stroke-linecap="butt"/><g stroke="#eb0095" stroke-width="0" stroke-linecap="round"><path d="M239.30267,92.99016l5.5827,-0.66987l1.17565,0.19504l0.11386,0.98387l-3.81516,2.25881l-4.62753,5.5751l-4.14277,2.44528l-5.57251,5.0478l0.8849,-5.03325z" fill="url(#color-1)"/><path d="M239.30267,92.99025l5.56681,-0.67999l-5.3411,3.16773l-3.10151,3.89148l-3.85189,2.17593l-4.53317,7.28857l1.62731,-10.2369l3.46808,-4.61651l3.72108,-1.51649z" fill="url(#color-2)"/></g><path d="M242.20555,70.27781l5.00146,1.91589l2.26155,3.71634l0.78427,4.57134l-1.58205,8.2252l-1.74257,2.57748l-3.10408,2.18884l-7.07846,-2.11654l-3.72228,-3.57686l-2.00265,-5.22929l0.7411,-6.33239l2.1441,-2.81711l3.34341,-2.34151z" data-paper-data="{&quot;index&quot;:null}" fill="url(#color-3)" stroke="#000000" stroke-width="0" stroke-linecap="round"/><path d="M243.8158,90.81412h1.19599" data-paper-data="{&quot;index&quot;:null}" fill="none" stroke="#000000" stroke-width="0.15" stroke-linecap="round"/><path d="M245.22916,88.89373v-0.3384" data-paper-data="{&quot;index&quot;:null}" fill="none" stroke-opacity="0.45098" stroke="#332c23" stroke-width="0.15" stroke-linecap="round"/><path d="M246.45024,84.01093l2.43136,0.01281l0.45652,0.1211l-3.36787,0.00516z" data-paper-data="{&quot;index&quot;:null}" fill-opacity="0.70196" fill="#332c23" stroke="none" stroke-width="0" stroke-linecap="round"/><path d="M246.22755,84.89713l3.04911,-0.01219l-0.45652,2.26936l-2.57238,0.18508z" data-paper-data="{&quot;index&quot;:null}" fill="#fafafa" stroke="none" stroke-width="0" stroke-linecap="round"/><path d="M246.68114,86.13432l0.04425,-1.22118l1.69527,-0.0087l-0.05737,1.25593l-0.135,1.03856l-1.49165,0.08596z" data-paper-data="{&quot;index&quot;:null}" fill="#3f0000" stroke="none" stroke-width="0" stroke-linecap="round"/><path d="M243.31766,84.14999l-5.02496,-0.00516l0.68115,-0.1211l3.62766,-0.0128z" data-paper-data="{&quot;index&quot;:null}" fill-opacity="0.70196" fill="#332c23" stroke="none" stroke-width="0" stroke-linecap="round"/><path d="M243.14777,87.33937l-4.17391,-0.12178l-0.68115,-2.33266l5.02496,0.01219z" data-paper-data="{&quot;index&quot;:null}" fill="#fafafa" stroke="none" stroke-width="0" stroke-linecap="round"/><path d="M242.44286,87.28493l-2.16346,-0.05431l-0.20147,-1.07021l0.06708,-1.25593l2.26909,0.0087l0.11149,1.22118z" data-paper-data="{&quot;index&quot;:null}" fill="#3f0000" stroke="none" stroke-width="0" stroke-linecap="round"/><path d="M248.54319,71.75937l-0.68099,0.19204l2.86118,4.19515l-0.44568,0.11167l1.19312,5.20953l-0.44707,-0.7764l-0.32174,3.06398l-0.11594,2.16602l-0.46999,-0.84277l-0.21474,0.8847l-0.71283,-1.87327l-0.20499,0.7951l-0.66475,-2.43904l-0.37002,0.63872l-1.41428,-0.6339l-0.64033,0.986l-0.76191,-1.08306l-0.17595,1.08502l0.00801,0.7165l-0.62771,-0.71515l0.17534,1.32366l-1.96877,-1.95378l-0.32162,0.46256l-1.24502,-0.77376l-1.69726,0.85488l-1.04403,-1.32041l0.4272,2.00034l-0.82618,6.53997l-1.47201,-5.17779l-0.70445,-0.25711l-0.08029,3.69313l-0.42817,-0.55867l0.04237,2.84831l-3.35443,-3.72931l-0.42384,0.92334l-0.67941,-3.87808l-0.35029,0.77264l0.25561,-5.76822l-0.78772,0.12303l1.80146,-4.237l1.11711,-1.64761l-0.46707,-0.17372l4.28127,-3.05471l-0.55559,-0.32715l6.17372,-0.62154z" data-paper-data="{&quot;index&quot;:null}" fill="#332c23" stroke="#a8ccff" stroke-width="0" stroke-linecap="round"/><path d="M236.92802,89.02374l-1.59078,-1.96252l-0.57152,-1.75779l1.43809,0.09924z" data-paper-data="{&quot;index&quot;:null}" fill="#dccca1" stroke="#000000" stroke-width="0" stroke-linecap="round"/><path d="M243.24584,84.89326l-4.82781,0.13992l0.57798,2.18093l-0.86134,-2.3513z" data-paper-data="{&quot;index&quot;:null}" fill="url(#color-4)" stroke-opacity="0.50196" stroke="#332c23" stroke-width="0" stroke-linecap="round"/><path d="M249.31295,84.8605l-0.48314,2.2899l0.3448,-2.18093l-2.88007,-0.07624z" fill="url(#color-5)" stroke-opacity="0.50196" stroke="#332c23" stroke-width="0" stroke-linecap="round"/></g></g></svg>