<svg version="1.1" xmlns="http://www.w3.org/2000/svg" xmlns:xlink="http://www.w3.org/1999/xlink" width="21.96475" height="107.84806" viewBox="0,0,21.96475,107.84806"><defs><linearGradient x1="213.63483" y1="129.8134" x2="214.66263" y2="153.45198" gradientUnits="userSpaceOnUse" id="color-1"><stop offset="0" stop-color="#998e70"/><stop offset="1" stop-color="#f2e0b1"/></linearGradient><linearGradient x1="238.27181" y1="92.78636" x2="240.31624" y2="109.18331" gradientUnits="userSpaceOnUse" id="color-2"><stop offset="0" stop-color="#396fbf"/><stop offset="1" stop-color="#8e2e99"/></linearGradient><linearGradient x1="240.37017" y1="70.31873" x2="240.37017" y2="93.28124" gradientUnits="userSpaceOnUse" id="color-3"><stop offset="0" stop-color="#b3a788"/><stop offset="1" stop-color="#f2e2b8"/></linearGradient><linearGradient x1="245.98985" y1="84.48214" x2="245.98985" y2="86.74728" gradientUnits="userSpaceOnUse" id="color-4"><stop offset="0" stop-color="#332c23" stop-opacity="0.70196"/><stop offset="1" stop-color="#332c23" stop-opacity="0"/></linearGradient></defs><g transform="translate(-229.38047,-69.24669)"><g data-paper-data="{&quot;isPaintingLayer&quot;:true}" fill-rule="nonzero" stroke-linejoin="miter" stroke-miterlimit="10" stroke-dasharray="" stroke-dashoffset="0" style="mix-blend-mode: normal"><g data-paper-data="{&quot;index&quot;:null}" stroke="#113c86" stroke-width="0" stroke-linecap="round"><path d="M246.92048,97.99893l0.96754,5.36298l-0.01591,10.76823l0.19083,13.34038l-3.86323,1.34497l-3.13184,0.51054l-1.07511,-7.53101l-0.4759,-17.63491l1.58578,-9.20163l4.93888,-1.62153z" fill="#193f80"/><path d="M243.14193,104.2149l0.39556,17.16064l0.66222,7.43997l-3.13184,0.51054l-1.07511,-7.53101l-0.4759,-17.63491l1.50313,-9.91111l5.02154,-0.91205z" fill="#264780"/><path d="M247.34064,128.01157l0.31367,0.38578l-0.55219,3.73811l-3.86472,-0.19185l-1.67479,-2.13789l0.0969,-0.53261z" data-paper-data="{&quot;index&quot;:null}" fill="#f7e5b4"/></g><g stroke="#113c86" stroke-width="0" stroke-linecap="round"><path d="M247.61085,151.80432l0.95666,18.26772l1.95308,4.17477l-1.47413,2.3803h-12.6l-0.39552,-23.97024l-1.53781,-24.85363l12,-1.23258z" data-paper-data="{&quot;index&quot;:null}" fill="#113c86"/><path d="M247.44415,151.80432l1.12332,18.26772l1.95308,4.17477l-1.47413,2.3803h-5.80831l-0.34163,-6.08676l-0.64788,-17.65833l-0.71607,-25.75868l4.98058,-0.55267z" data-paper-data="{&quot;index&quot;:null}" fill="#264780"/><path d="M249.00211,166.91697l0.37261,3.44444l1.77407,3.75351l-1.81342,2.96006h-13.30606l-0.61285,-7.47665l8.98981,-0.82063z" fill="#6b7880"/><path d="M249.40838,170.41054l1.74698,3.70818l-1.75855,2.96461l-13.34616,-0.02174l-0.12248,-1.68323z" fill="#4f5863"/></g><g stroke="#113c86" stroke-width="0" stroke-linecap="round"><path d="M233.9131,126.15985l12,1.84887l-0.4,9.84649l-0.13782,14.39085l-0.46072,18.3132l0.77407,4.13555l-1.35888,2.13779h-12.7l0.29094,-6.84913l0.86136,-18.58993z" fill="#234175"/><path d="M240.5424,127.20689l5.3707,0.8018l-0.4,6.57376l-0.13782,17.66357l-0.46072,18.3132l0.77407,4.13555l-1.35888,2.13779h-5.74583l0.4063,-6.52591l0.54623,-19.1963l0.51803,-17.11896z" fill="#264780"/><path d="M245.67637,167.12154l-0.35466,3.51263l0.77407,4.02624l-1.35887,2.4146h-13.21515l0.23563,-7.47667l10.57315,-0.87744z" fill="#6b7880"/><path d="M245.33906,170.69696l0.77846,3.92884l-1.35887,2.43634l-13.23492,0.03261l-0.06813,-1.73761z" fill="#4f5863"/></g><path d="M246.78972,128.30629l-13.57314,2.09996l-0.926,-32.86594l7.0829,-5.31728l6.7088,1.62924l0.95058,7.49421z" fill="#7a8799" stroke="#113c86" stroke-width="0" stroke-linecap="round"/><path d="" fill="#340000" stroke="none" stroke-width="0" stroke-linecap="round"/><path d="" fill="#340000" stroke="none" stroke-width="0" stroke-linecap="round"/><path d="M245.02298,128.45938c0,0 0.11779,-17.44233 -0.05148,-23.80944c-0.15723,-5.91472 -0.69459,-10.76602 -0.69459,-10.76602h0.82452c0,0 0.53759,4.86027 0.69489,10.7771c0.16922,6.36554 0.05118,23.67932 0.05118,23.67932z" fill="#c8c8c8" stroke="none" stroke-width="0" stroke-linecap="butt"/><g stroke="#113c86" stroke-width="0" stroke-linecap="round"><path d="M241.03,129.21107l0.37152,0.95411l-1.03874,4.10234l-4.55182,-0.16853l-1.52562,-2.97845l0.19003,-0.88985z" data-paper-data="{&quot;index&quot;:null}" fill="#f7e5b4"/><path d="M241.93248,103.06695l-0.32144,8.54732l0.26251,17.33867l-4.85177,1.17l-3.25825,-0.09392l-0.71134,-9.0641l-0.22182,-17.40726l5.44575,-8.40483l4.10518,-1.96498z" data-paper-data="{&quot;index&quot;:null}" fill="#234175"/><path d="M241.93248,103.06695l-0.32144,8.54732l0.40857,17.39057l-3.86162,0.85693l-0.60011,-17.98823l1.48482,-15.02346l3.22972,-2.3548z" data-paper-data="{&quot;index&quot;:null}" fill="#264780"/></g><g data-paper-data="{&quot;index&quot;:null}" stroke="#113c86" stroke-width="0" stroke-linecap="round"><path d="" fill="#193f80"/><path d="" fill="#264780"/><path d="" data-paper-data="{&quot;index&quot;:null}" fill="#f7e5b4"/></g><path d="" data-paper-data="{&quot;index&quot;:null}" fill="#7a8799" stroke="#113c86" stroke-width="0" stroke-linecap="round"/><path d="" data-paper-data="{&quot;index&quot;:null}" fill="#c8c8c8" stroke="none" stroke-width="0" stroke-linecap="butt"/><g data-paper-data="{&quot;index&quot;:null}" stroke="#113c86" stroke-width="0" stroke-linecap="round"><path d="" data-paper-data="{&quot;index&quot;:null}" fill="#f7e5b4"/><path d="" data-paper-data="{&quot;index&quot;:null}" fill="#234175"/><path d="" data-paper-data="{&quot;index&quot;:null}" fill="#264780"/></g><path d="" data-paper-data="{&quot;index&quot;:null}" fill="#eddcae" stroke="#000000" stroke-width="0" stroke-linecap="butt"/><path d="" data-paper-data="{&quot;index&quot;:null}" fill="#665c52" stroke="#000000" stroke-width="0" stroke-linecap="round"/><path d="" data-paper-data="{&quot;index&quot;:null}" fill="url(#color-1)" stroke="#000000" stroke-width="0" stroke-linecap="round"/><path d="" data-paper-data="{&quot;index&quot;:null}" fill="#332c23" stroke="#000000" stroke-width="0" stroke-linecap="round"/><path d="" data-paper-data="{&quot;index&quot;:null}" fill="none" stroke="#000000" stroke-width="0.15" stroke-linecap="round"/><path d="" data-paper-data="{&quot;index&quot;:null}" fill-opacity="0.50196" fill="#332c23" stroke="none" stroke-width="0" stroke-linecap="round"/><path d="" data-paper-data="{&quot;index&quot;:null}" fill="#fafafa" stroke="none" stroke-width="0" stroke-linecap="round"/><path d="" data-paper-data="{&quot;index&quot;:null}" fill="#3f0000" stroke="none" stroke-width="0" stroke-linecap="round"/><path d="" data-paper-data="{&quot;index&quot;:null}" fill="#dccca1" stroke="#000000" stroke-width="0" stroke-linecap="round"/><path d="M235.46255,86.92145l0.01937,4.99255l-0.73663,-0.98746l-0.03676,1.00796l-0.81653,-1.48987l0.19129,1.23072l-0.83695,-1.24464l-0.16543,0.27152l-0.42869,-0.93791l-0.2639,-0.81327l-0.21185,0.8369l-0.80607,-2.76249l-0.23712,-4.05445z" data-paper-data="{&quot;index&quot;:null}" fill-opacity="0.65098" fill="#332c23" stroke="#000000" stroke-width="0" stroke-linecap="round"/><path d="M236.52145,93.64918v-2.62475h6.28501v3.85354z" data-paper-data="{&quot;index&quot;:null}" fill="#eddcae" stroke="#000000" stroke-width="0" stroke-linecap="butt"/><path d="M242.48733,92.41903l2.88678,0.28136l-0.11627,1.40248l-2.46134,5.16931l-3.11754,4.23378l-1.25783,-0.06312l-3.81312,5.25277l-2.88078,-6.94347l0.67376,-5.56838l4.25049,-3.79454l1.04666,0.0116l1.4931,1.48629z" fill="url(#color-2)" stroke="#eb0095" stroke-width="0" stroke-linecap="round"/><path d="M246.85291,80.15892l3.45583,2.67727l-1.18311,2.57282l-5.45823,1.33387z" data-paper-data="{&quot;index&quot;:null}" fill="#665c52" stroke="#000000" stroke-width="0" stroke-linecap="round"/><path d="M241.32546,70.6222l5.08624,1.46759l2.42115,3.53122l1.19047,5.56873l-1.29325,5.54397l0.9851,2.13437l-1.43096,1.55355l-1.85652,2.85961l-9.52987,-1.77646l-3.78367,-3.31226l-2.39716,-5.12263l0.69189,-6.28474l1.99761,-3.08714l3.1886,-2.2509z" data-paper-data="{&quot;index&quot;:null}" fill="url(#color-3)" stroke="#000000" stroke-width="0" stroke-linecap="round"/><path d="M236.37231,92.06984l-2.17645,-1.83883l-0.16057,0.70063l-2.71736,-3.47091l-0.46019,0.64771l-0.85813,-4.3327l-0.61913,0.35021l0.9835,-5.77294l-0.5318,-0.10193l2.03687,-4.53308l3.03094,-2.56623l-0.55233,-0.19905l5.6579,-1.70603l6.71951,1.64303l-0.18741,0.2498l3.5092,3.16113l-0.38469,0.01672l1.68306,6.03547l-0.55656,-0.16851l-0.39108,3.73683l-0.36575,-1.00109l-0.98224,1.22532l-0.08596,-0.87938l-1.23058,0.29549l-0.13293,-1.85131l-1.94594,1.44557l-0.27894,-0.83456l-1.59646,1.68793l-0.35375,-1.65221l-1.27403,6.34764l-0.29333,-0.56182l-0.44825,2.4265l-1.25273,-5.28924l-0.87666,-0.27069l-0.81274,3.6769l-0.32226,-0.33394l-0.33454,2.43501z" data-paper-data="{&quot;index&quot;:null}" fill="#332c23" stroke="#000000" stroke-width="0" stroke-linecap="round"/><path d="M246.46436,90.75911l0.84802,0.04493" data-paper-data="{&quot;index&quot;:null}" fill="none" stroke="#000000" stroke-width="0.15" stroke-linecap="round"/><path d="M248.44901,84.14497l-4.89407,-0.53931l0.68943,-0.00319l3.61334,0.22895z" data-paper-data="{&quot;index&quot;:null}" fill-opacity="0.70196" fill="#332c23" stroke="none" stroke-width="0" stroke-linecap="round"/><path d="M239.71058,88.97418l-1.50051,-1.78197l-0.4993,-1.75779l1.80973,-0.08131z" data-paper-data="{&quot;index&quot;:null}" fill="#dccca1" stroke="#000000" stroke-width="0" stroke-linecap="round"/><path d="M247.90772,87.41109l-3.3937,-0.56381l-0.60804,-2.29133l4.39649,0.28434z" data-paper-data="{&quot;index&quot;:null}" fill="#fafafa" stroke="none" stroke-width="0" stroke-linecap="round"/><path d="M247.54534,87.2877l-1.58617,-0.19295l-0.05762,-1.14684l0.12644,-1.22734l1.70829,0.10663l-0.00179,1.22381z" data-paper-data="{&quot;index&quot;:null}" fill="#3f0000" stroke="none" stroke-width="0" stroke-linecap="round"/><path d="M248.30247,84.8403l-4.34458,-0.18052l0.55613,2.18751l-0.83677,-2.36515z" data-paper-data="{&quot;index&quot;:null}" fill="url(#color-4)" stroke="none" stroke-width="0" stroke-linecap="round"/></g></g></svg>