<svg version="1.1" xmlns="http://www.w3.org/2000/svg" xmlns:xlink="http://www.w3.org/1999/xlink" width="41.98914" height="108.58211" viewBox="0,0,41.98914,108.58211"><defs><linearGradient x1="238.2718" y1="92.78636" x2="240.31624" y2="109.18332" gradientUnits="userSpaceOnUse" id="color-1"><stop offset="0" stop-color="#396fbf"/><stop offset="1" stop-color="#8e2e99"/></linearGradient><linearGradient x1="240.37016" y1="70.31874" x2="240.37016" y2="93.28125" gradientUnits="userSpaceOnUse" id="color-2"><stop offset="0" stop-color="#b3a788"/><stop offset="1" stop-color="#f2e2b8"/></linearGradient><linearGradient x1="245.98985" y1="84.48214" x2="245.98985" y2="86.74729" gradientUnits="userSpaceOnUse" id="color-3"><stop offset="0" stop-color="#332c23" stop-opacity="0.70196"/><stop offset="1" stop-color="#332c23" stop-opacity="0"/></linearGradient></defs><g transform="translate(-218.4962,-69.24669)"><g data-paper-data="{&quot;isPaintingLayer&quot;:true}" fill-rule="nonzero" stroke-linejoin="miter" stroke-miterlimit="10" stroke-dasharray="" stroke-dashoffset="0" style="mix-blend-mode: normal"><g data-paper-data="{&quot;index&quot;:null}" stroke="#113c86" stroke-width="0" stroke-linecap="round"><path d="M249.03143,102.59838l2.9103,10.36751l3.80809,12.78674l-3.3525,2.34398l-2.87533,1.34222l-3.08076,-6.95564l-5.24921,-16.84228l-0.97385,-9.28635l5.72955,-2.90238z" fill="#193f80"/><path d="M244.69561,104.70873l5.04304,16.40767l2.65867,6.9802l-2.87533,1.34222l-3.08076,-6.95564l-5.24921,-16.84228l-1.24615,-9.94669l4.58486,-2.24204z" fill="#264780"/><path d="M255.20165,126.46952l0.40668,0.28605l0.48418,3.74753l-3.77147,0.86537l-2.19263,-1.60245l-0.05145,-0.5389z" data-paper-data="{&quot;index&quot;:null}" fill="#f7e5b4"/></g><g stroke="#113c86" stroke-width="0" stroke-linecap="round"><path d="M238.44984,152.04776l-5.72976,17.37224l0.30707,4.5988l-2.23666,1.68412l-11.74318,-4.56703l8.3197,-22.48358l7.57528,-23.72094l11.63074,3.20079z" data-paper-data="{&quot;index&quot;:null}" fill="#113c86"/><path d="M238.29447,151.98733l-5.57444,17.43264l0.30707,4.5988l-2.23666,1.68412l-5.41333,-2.1053l1.88783,-5.79668l5.79666,-16.69236l8.66919,-24.26659l4.84221,1.29019z" data-paper-data="{&quot;index&quot;:null}" fill="#264780"/><path d="M234.26873,166.637l-0.90121,3.34527l0.29292,4.1413l-2.76302,2.10147l-12.40122,-4.82295l2.13883,-7.19036l8.67593,2.49365z" fill="#6b7880"/><path d="M233.38108,170.04025l0.28411,4.08923l-2.71353,2.1256l-12.43072,-4.85775l0.49596,-1.61316z" fill="#4f5863"/></g><g stroke="#113c86" stroke-width="0" stroke-linecap="round"><path d="M233.16064,128.89313l11.94784,-2.16045l2.8289,9.43985l4.55692,13.65101l5.52917,17.46465l2.07884,3.65792l-0.58848,2.46382l-12.00747,4.1365l-1.95574,-6.57041l-5.24051,-17.85678z" fill="#234175"/><path d="M239.76947,127.72383l5.33899,-0.9912l1.76294,6.34558l5.62287,16.74527l5.52917,17.46465l2.07884,3.65792l-0.58848,2.46382l-5.43251,1.87147l-1.7414,-6.30239l-5.73595,-18.32744l-5.08601,-16.35419z" fill="#264780"/><path d="M257.62404,163.78978l0.80877,3.4366l2.04324,3.55457l-0.49832,2.72553l-12.49453,4.30429l-2.21243,-7.14572l9.71081,-4.27336z" fill="#6b7880"/><path d="M258.46967,167.28011l2.01567,3.46105l-0.49123,2.74608l-12.5026,4.34156l-0.63037,-1.62067z" fill="#4f5863"/></g><path d="M246.78962,128.30625l-13.57314,2.09996l-0.926,-32.86594l7.0829,-5.31728l6.7088,1.62924l0.95058,7.49421z" fill="#7a8799" stroke="#113c86" stroke-width="0" stroke-linecap="round"/><path d="M240.65953,122.1447l-0.27041,7.16515l-5.51338,0.81044l-0.29621,-7.50178l-0.05977,-13.54651l2.01068,-7.6699l3.92198,9.68114z" fill="#626b7a" stroke="#113c86" stroke-width="0" stroke-linecap="round"/><path d="" fill="#340000" stroke="none" stroke-width="0" stroke-linecap="round"/><path d="" fill="#340000" stroke="none" stroke-width="0" stroke-linecap="round"/><path d="M245.02288,128.45931c0,0 0.11779,-17.44233 -0.05148,-23.80944c-0.15723,-5.91472 -0.69459,-10.76602 -0.69459,-10.76602h0.82452c0,0 0.53759,4.86027 0.69489,10.7771c0.16922,6.36554 0.05118,23.67932 0.05118,23.67932z" fill="#c8c8c8" stroke="none" stroke-width="0" stroke-linecap="butt"/><g stroke="#113c86" stroke-width="0" stroke-linecap="round"><path d="M231.51013,129.61493l0.0539,1.02247l-2.27169,3.57038l-4.26986,-1.58611l-0.51568,-3.30647l0.45925,-0.78552z" data-paper-data="{&quot;index&quot;:null}" fill="#f7e5b4"/><path d="M240.4955,105.18271l-2.9206,7.90336l-5.18283,16.54801l-4.97407,-0.40894l-3.06479,-1.10999l1.91559,-9.113l5.72526,-16.3745l4.53467,-7.23124l5.32385,0.43223z" data-paper-data="{&quot;index&quot;:null}" fill="#234175"/><path d="M240.4955,105.18271l-2.9206,7.90336l-5.06038,16.64306l-3.93568,-0.39604l5.06573,-17.27064l3.89013,-13.80193l4.61459,-1.62925z" data-paper-data="{&quot;index&quot;:null}" fill="#264780"/></g><path d="M235.46255,86.92146l0.01937,4.99255l-0.73663,-0.98746l-0.03676,1.00796l-0.81653,-1.48987l0.19129,1.23072l-0.83695,-1.24464l-0.16543,0.27152l-0.42869,-0.93791l-0.2639,-0.81327l-0.21185,0.8369l-0.80607,-2.76249l-0.23712,-4.05445z" data-paper-data="{&quot;index&quot;:null}" fill-opacity="0.65098" fill="#332c23" stroke="#000000" stroke-width="0" stroke-linecap="round"/><path d="M236.52145,93.64918v-2.62475h6.28501v3.85354z" data-paper-data="{&quot;index&quot;:null}" fill="#eddcae" stroke="#000000" stroke-width="0" stroke-linecap="butt"/><path d="M242.48733,92.41904l2.88678,0.28136l-0.11627,1.40248l-2.46134,5.16931l-3.11754,4.23378l-1.25783,-0.06312l-3.81312,5.25277l-2.88078,-6.94347l0.67376,-5.56838l4.25049,-3.79454l1.04666,0.0116l1.4931,1.48629z" fill="url(#color-1)" stroke="#eb0095" stroke-width="0" stroke-linecap="round"/><path d="M246.8529,80.15893l3.45583,2.67727l-1.18311,2.57282l-5.45823,1.33387z" data-paper-data="{&quot;index&quot;:null}" fill="#665c52" stroke="#000000" stroke-width="0" stroke-linecap="round"/><path d="M241.32546,70.62221l5.08624,1.46759l2.42115,3.53122l1.19047,5.56873l-1.29325,5.54397l0.9851,2.13437l-1.43096,1.55355l-1.85652,2.85961l-9.52987,-1.77646l-3.78367,-3.31226l-2.39716,-5.12263l0.69189,-6.28474l1.99761,-3.08714l3.1886,-2.2509z" data-paper-data="{&quot;index&quot;:null}" fill="url(#color-2)" stroke="#000000" stroke-width="0" stroke-linecap="round"/><path d="M236.3723,92.06984l-2.17645,-1.83883l-0.16057,0.70063l-2.71736,-3.47091l-0.46019,0.64771l-0.85813,-4.3327l-0.61913,0.35021l0.9835,-5.77294l-0.5318,-0.10193l2.03687,-4.53308l3.03094,-2.56623l-0.55233,-0.19905l5.6579,-1.70603l6.71951,1.64303l-0.18741,0.2498l3.5092,3.16113l-0.38469,0.01672l1.68306,6.03547l-0.55656,-0.16851l-0.39108,3.73683l-0.36575,-1.00109l-0.98224,1.22532l-0.08596,-0.87938l-1.23058,0.29549l-0.13293,-1.85131l-1.94594,1.44557l-0.27894,-0.83456l-1.59646,1.68793l-0.35375,-1.65221l-1.27403,6.34764l-0.29333,-0.56182l-0.44825,2.4265l-1.25273,-5.28924l-0.87666,-0.27069l-0.81274,3.6769l-0.32226,-0.33394l-0.33454,2.43501z" data-paper-data="{&quot;index&quot;:null}" fill="#332c23" stroke="#000000" stroke-width="0" stroke-linecap="round"/><path d="M246.46435,90.75911l0.84802,0.04493" data-paper-data="{&quot;index&quot;:null}" fill="none" stroke="#000000" stroke-width="0.15" stroke-linecap="round"/><path d="M248.44901,84.14497l-4.89407,-0.53931l0.68943,-0.00319l3.61334,0.22895z" data-paper-data="{&quot;index&quot;:null}" fill-opacity="0.70196" fill="#332c23" stroke="none" stroke-width="0" stroke-linecap="round"/><path d="M239.71058,88.97419l-1.50051,-1.78197l-0.4993,-1.75779l1.80973,-0.08131z" data-paper-data="{&quot;index&quot;:null}" fill="#dccca1" stroke="#000000" stroke-width="0" stroke-linecap="round"/><path d="M247.90771,87.41109l-3.3937,-0.56381l-0.60804,-2.29133l4.39649,0.28434z" data-paper-data="{&quot;index&quot;:null}" fill="#fafafa" stroke="none" stroke-width="0" stroke-linecap="round"/><path d="M247.54533,87.2877l-1.58617,-0.19295l-0.05762,-1.14684l0.12644,-1.22734l1.70829,0.10663l-0.00179,1.22381z" data-paper-data="{&quot;index&quot;:null}" fill="#3f0000" stroke="none" stroke-width="0" stroke-linecap="round"/><path d="M248.30246,84.84031l-4.34458,-0.18052l0.55613,2.18751l-0.83677,-2.36515z" data-paper-data="{&quot;index&quot;:null}" fill="url(#color-3)" stroke="none" stroke-width="0" stroke-linecap="round"/></g></g></svg>