<svg version="1.1" xmlns="http://www.w3.org/2000/svg" xmlns:xlink="http://www.w3.org/1999/xlink" width="35.31086" height="108.84348" viewBox="0,0,35.31086,108.84348"><defs><linearGradient x1="235.91041" y1="92.08001" x2="235.91041" y2="102.4371" gradientUnits="userSpaceOnUse" id="color-1"><stop offset="0" stop-color="#396fbf"/><stop offset="1" stop-color="#8e2e99"/></linearGradient><linearGradient x1="237.95771" y1="92.25381" x2="237.95771" y2="99.72292" gradientUnits="userSpaceOnUse" id="color-2"><stop offset="0" stop-color="#396fbf"/><stop offset="1" stop-color="#8e2e99"/></linearGradient><linearGradient x1="239.57716" y1="69.9628" x2="239.57716" y2="93.45412" gradientUnits="userSpaceOnUse" id="color-3"><stop offset="0" stop-color="#b3a788"/><stop offset="1" stop-color="#f2e2b8"/></linearGradient><linearGradient x1="239.50983" y1="84.83703" x2="239.50983" y2="87.18834" gradientUnits="userSpaceOnUse" id="color-4"><stop offset="0" stop-color="#332c23" stop-opacity="0.70196"/><stop offset="1" stop-color="#332c23" stop-opacity="0"/></linearGradient><linearGradient x1="232.58979" y1="84.86046" x2="232.58979" y2="87.15035" gradientUnits="userSpaceOnUse" id="color-5"><stop offset="0" stop-color="#332c23" stop-opacity="0.70196"/><stop offset="1" stop-color="#332c23" stop-opacity="0"/></linearGradient></defs><g transform="translate(-222.96877,-69.28063)"><g data-paper-data="{&quot;isPaintingLayer&quot;:true}" fill-rule="nonzero" stroke-linejoin="miter" stroke-miterlimit="10" stroke-dasharray="" stroke-dashoffset="0" style="mix-blend-mode: normal"><path d="M230.22849,127.4116l-0.13898,1.1994l-1.39923,2.87643l-2.96887,0.84737l-1.00335,-1.98118l-0.65816,0.15317l-0.60352,-2.4769l0.14849,-0.97944z" data-paper-data="{&quot;index&quot;:null}" fill="#f7e5b4" stroke="#113c86" stroke-width="0" stroke-linecap="round"/><path d="M256.81806,128.25974l0.06595,1.20562l-0.89237,3.0717l-2.78269,1.33749l-1.3241,-1.78285l-0.62275,0.26231l-1.01391,-2.33907l-0.01937,-0.99044z" data-paper-data="{&quot;index&quot;:null}" fill="#f7e5b4" stroke="#113c86" stroke-width="0" stroke-linecap="round"/><g data-paper-data="{&quot;index&quot;:null}" stroke="#113c86" stroke-width="0" stroke-linecap="round"><path d="M239.91866,100.36278l-2.31003,4.85377l-3.96993,10.00972l-2.92736,12.47012l-4.64211,0.32964l-3.10046,-0.67547l1.4369,-7.85235l5.64202,-16.61397l5.11147,-7.66993l5.18926,0.30584z" fill="#1c458c"/><path d="M232.88099,104.26665l-5.54255,16.14335l-1.2692,7.61602l-3.10046,-0.67547l1.4369,-7.85235l5.64202,-16.61397l5.29519,-8.36019l5.00554,0.9961z" fill="#234175"/></g><g data-paper-data="{&quot;index&quot;:null}" stroke="#113c86" stroke-width="0" stroke-linecap="round"><path d="M232.7023,127.80119l11.77533,-2.61932l6.22993,24.12045l7.03487,22.92159l-11.95547,3.97829l-2.15027,-1.7931l0.53504,-4.57788l-4.70193,-17.68794z" data-paper-data="{&quot;index&quot;:null}" fill="#264780"/><path d="M232.70234,127.80119l4.90031,-1.04816l7.29539,24.71975l4.80251,17.01223l1.59766,5.88327l-5.5112,1.8339l-2.15027,-1.7931l0.53504,-4.57788l-4.5438,-17.74056z" data-paper-data="{&quot;index&quot;:null}" fill="#234175"/><path d="M247.71142,167.28919l8.78905,-2.05977l1.77916,7.28769l-12.62541,4.20122l-2.65526,-2.23608l0.4982,-4.12165l-0.73399,-3.38589z" fill="#6b7880"/><path d="M257.83987,170.87539l0.41524,1.6358l-12.65659,4.23451l-2.60463,-2.25772l0.48681,-4.07008z" fill="#4f5863"/></g><g data-paper-data="{&quot;index&quot;:null}" stroke="#113c86" stroke-width="0" stroke-linecap="round"><path d="M242.29211,153.02687l-4.17518,18.12832l-1.50449,6.68818l-12.26093,-3.31052l-0.75464,-2.4181l1.82533,-3.7908l4.48983,-17.75672l3.77913,-13.88581l2.18052,-9.61034l12.06708,1.3431z" fill="#264780"/><path d="M239.96825,134.37411l-4.1232,16.61871l-4.63748,18.63158l-1.30886,6.40621l-5.54718,-1.49777l-0.75464,-2.4181l1.82533,-3.7908l4.48983,-17.75672l4.63223,-17.04538l1.32742,-6.45076l5.39403,0.6259z" fill="#234175"/><path d="M228.39608,167.22273l9.97889,3.60322l-1.72147,7.27961l-12.75827,-3.4448l-0.68248,-2.68534l1.79683,-3.68527l0.57324,-3.48364z" fill="#6b7880"/><path d="M237.16513,176.46433l-0.51872,1.65978l-12.76886,-3.48144l-0.67681,-2.70633l1.77568,-3.59009z" fill="#4f5863"/></g><path d="M233.52942,93.85199l8.04213,-1.62924l3.7252,1.47478l3.3577,3.8425l-0.75933,32.86594l-15.40647,-2.4333z" data-paper-data="{&quot;index&quot;:null}" fill="#7a8799" stroke="#113c86" stroke-width="0" stroke-linecap="round"/><path d="M242.02121,111.27319l2.38581,-9.84766l2.63915,7.83642l-0.17423,13.54651l-0.25026,7.38301l-4.19771,-0.69167l-0.34064,-7.16515z" data-paper-data="{&quot;index&quot;:null}" fill="#626b7a" stroke="#113c86" stroke-width="0" stroke-linecap="round"/><path d="" fill="#340000" stroke="none" stroke-width="0" stroke-linecap="round"/><path d="" fill="#340000" stroke="none" stroke-width="0" stroke-linecap="round"/><path d="M235.09754,128.34022c0,0 -0.11804,-17.31378 0.05118,-23.67932c0.1573,-5.91683 0.69489,-10.7771 0.69489,-10.7771h0.82452c0,0 -0.53736,4.8513 -0.69459,10.76602c-0.16927,6.36711 -0.05148,23.80944 -0.05148,23.80944z" data-paper-data="{&quot;index&quot;:null}" fill="#c8c8c8" stroke="none" stroke-width="0" stroke-linecap="butt"/><g data-paper-data="{&quot;index&quot;:null}" stroke="#113c86" stroke-width="0" stroke-linecap="round"><path d="M241.91555,96.57933l3.88451,-1.36675l1.89071,1.35882l3.58356,6.097l4.74414,16.71852l1.63277,8.78907l-3.12921,0.91272l-4.99,0.09159l-4.11932,-16.84428l-2.81581,-8.09894z" data-paper-data="{&quot;index&quot;:null}" fill="#264780"/><path d="M241.50361,96.57199l4.11958,-1.38253l2.19739,7.81571l3.80598,12.83176l1.73012,13.28569l-3.9529,0.14479l-3.99107,-16.93134l-2.81581,-8.09894z" data-paper-data="{&quot;index&quot;:null}" fill="#234175"/></g><path d="M248.39919,82.35343l0.35911,4.22817l-0.74728,2.86425l-0.44432,-0.79717l-0.2591,0.84734l-0.48169,0.99644l-0.28636,-0.24367l-1.03345,1.36379l0.0861,-1.25009l-0.96452,1.60382l-0.21395,-0.9939l-0.92671,1.09323l-3.9093,0.59251l-2.99596,0.83078l-0.76103,-1.56374l-1.33491,0.88306l-0.19488,-1.41768l-0.75303,0.56905l-0.37585,-7.20471l-1.28169,5.74594l-1.81592,-7.6097l7.7915,-7.16773l7.9936,-0.68491z" data-paper-data="{&quot;index&quot;:null}" fill-opacity="0.65098" fill="#332c23" stroke="#000000" stroke-width="0" stroke-linecap="round"/><path d="M237.23898,93.44922v-2.33889h6.28501v2.33889z" data-paper-data="{&quot;index&quot;:null}" fill="#eddcae" stroke="#000000" stroke-width="0" stroke-linecap="butt"/><path d="M238.2993,95.4371l-5.5,4.28572l-3.02896,2.66496l1.10039,-6.45068l2.42857,-3.21429l2.21429,-0.64285l2.21428,0.5l5.86507,-0.33517z" fill="url(#color-1)" stroke="#000000" stroke-width="0" stroke-linecap="round"/><path d="M244.1161,92.31909l0.13026,1.03128l-5.84885,2.18502l-3.45535,3.75893l-2.14285,0.42858l4.50987,-5.06762l6.50655,-3.11307z" fill="url(#color-2)" stroke="#000000" stroke-width="0" stroke-linecap="round"/><path d="M243.07369,70.75143l3.49515,2.20427l2.13686,2.95435l0.59661,6.62137l-2.00265,5.22929l-3.72228,3.57686l-7.07846,2.11654l-3.10408,-2.18884l-1.74257,-2.57748l-1.80025,-8.2252l0.85798,-4.57135l2.40604,-3.57185l5.00146,-2.20487z" data-paper-data="{&quot;index&quot;:null}" fill="url(#color-3)" stroke="#000000" stroke-width="0" stroke-linecap="round"/><path d="M235.31126,90.79537h1.19599" data-paper-data="{&quot;index&quot;:null}" fill="none" stroke="#000000" stroke-width="0.15" stroke-linecap="round"/><path d="M235.09389,88.53654v0.3384" data-paper-data="{&quot;index&quot;:null}" fill="none" stroke-opacity="0.45098" stroke="#332c23" stroke-width="0.15" stroke-linecap="round"/><path d="M234.38182,84.13123l-3.3184,-0.00516l0.44981,-0.1211l2.39565,-0.01281z" data-paper-data="{&quot;index&quot;:null}" fill-opacity="0.70196" fill="#332c23" stroke="none" stroke-width="0" stroke-linecap="round"/><path d="M234.10839,87.32061l-2.5346,-0.18508l-0.44981,-2.26936l3.00432,0.01219z" data-paper-data="{&quot;index&quot;:null}" fill="#fafafa" stroke="none" stroke-width="0" stroke-linecap="round"/><path d="M233.62671,87.26616l-1.46974,-0.08596l-0.13303,-1.03856l-0.05653,-1.25593l1.67978,0.0087l0.03417,1.22118z" data-paper-data="{&quot;index&quot;:null}" fill="#3f0000" stroke="none" stroke-width="0" stroke-linecap="round"/><path d="M237.58051,83.99217l3.62766,0.0128l0.68115,0.1211l-5.02496,0.00516z" data-paper-data="{&quot;index&quot;:null}" fill-opacity="0.70196" fill="#332c23" stroke="none" stroke-width="0" stroke-linecap="round"/><path d="M236.86435,84.87835l5.02496,-0.01219l-0.68115,2.33266l-4.17391,0.12178z" data-paper-data="{&quot;index&quot;:null}" fill="#fafafa" stroke="none" stroke-width="0" stroke-linecap="round"/><path d="M237.65643,86.11558l0.11149,-1.22118l2.26909,-0.0087l0.06708,1.25593l-0.20147,1.07021l-2.16346,0.05431z" data-paper-data="{&quot;index&quot;:null}" fill="#3f0000" stroke="none" stroke-width="0" stroke-linecap="round"/><path d="M238.13186,69.28063l5.87393,0.66263l-0.54499,0.32715l4.80261,2.74791l-0.45816,0.17372l1.27418,1.95441l1.32056,4.237l-0.475,-0.27477l0.14495,6.02336l-0.34361,-0.77264l-1.01116,3.87808l-0.41576,-0.92334l-3.29045,3.72931l0.04156,-2.84831l-0.42,0.55867l-0.07876,-3.69313l-0.69101,0.25711l-1.44393,5.17779l-0.81042,-6.53997l-1.64326,-1.92525l0.30165,1.24532l-2.32778,-0.85488l0.17816,0.77376l-1.93588,-0.38747l-0.1543,1.87869l-0.85916,-1.48323l0.05175,1.03428l-0.75632,-0.87607l-0.30608,-1.08502l-0.08449,1.08306l-0.84908,-1.06109l-0.87173,0.70899l-0.21566,-0.63872l-0.734,2.52256l-0.11915,-0.87862l-1.03085,1.87327l-0.20775,-0.8847l-0.41697,0.84277l-0.11373,-2.16602l-0.34535,-3.06398l-0.55053,0.7764l1.13773,-5.20953l-0.28544,-0.11167l2.97217,-4.19515l-0.668,-0.19204z" data-paper-data="{&quot;index&quot;:null}" fill="#332c23" stroke="#a8ccff" stroke-width="0" stroke-linecap="round"/><path d="M244.09475,85.38394l1.4381,-0.09924l-0.57152,1.75779l-1.59078,1.96252z" data-paper-data="{&quot;index&quot;:null}" fill="#dccca1" stroke="#000000" stroke-width="0" stroke-linecap="round"/><path d="M242.06542,84.83703l-0.86134,2.3513l0.57798,-2.18093l-4.82781,-0.15376z" data-paper-data="{&quot;index&quot;:null}" fill="url(#color-4)" stroke-opacity="0.50196" stroke="#332c23" stroke-width="0" stroke-linecap="round"/><path d="M234.099,84.87935l-2.88007,0.09008l0.3448,2.18093l-0.48314,-2.2899z" data-paper-data="{&quot;index&quot;:null}" fill="url(#color-5)" stroke-opacity="0.50196" stroke="#332c23" stroke-width="0" stroke-linecap="round"/></g></g></svg>