<svg version="1.1" xmlns="http://www.w3.org/2000/svg" xmlns:xlink="http://www.w3.org/1999/xlink" width="43.32171" height="108.44165" viewBox="0,0,43.32171,108.44165"><defs><linearGradient x1="237.09589" y1="92.32029" x2="237.09589" y2="108.82635" gradientUnits="userSpaceOnUse" id="color-1"><stop offset="0" stop-color="#396fbf"/><stop offset="1" stop-color="#8e2e99"/></linearGradient><linearGradient x1="236.45564" y1="92.31026" x2="236.45564" y2="108.83413" gradientUnits="userSpaceOnUse" id="color-2"><stop offset="0" stop-color="#396fbf"/><stop offset="1" stop-color="#8e2e99"/></linearGradient><linearGradient x1="240.7849" y1="69.98155" x2="240.7849" y2="93.47287" gradientUnits="userSpaceOnUse" id="color-3"><stop offset="0" stop-color="#b3a788"/><stop offset="1" stop-color="#f2e2b8"/></linearGradient><linearGradient x1="240.69025" y1="84.86279" x2="240.69025" y2="87.21409" gradientUnits="userSpaceOnUse" id="color-4"><stop offset="0" stop-color="#332c23" stop-opacity="0.70196"/><stop offset="1" stop-color="#332c23" stop-opacity="0"/></linearGradient><linearGradient x1="247.80374" y1="84.86048" x2="247.80374" y2="87.15039" gradientUnits="userSpaceOnUse" id="color-5"><stop offset="0" stop-color="#332c23" stop-opacity="0.70196"/><stop offset="1" stop-color="#332c23" stop-opacity="0"/></linearGradient></defs><g transform="translate(-221.06197,-69.50319)"><g data-paper-data="{&quot;isPaintingLayer&quot;:true}" fill-rule="nonzero" stroke-linejoin="miter" stroke-miterlimit="10" stroke-dasharray="" stroke-dashoffset="0" style="mix-blend-mode: normal"><g stroke="#113c86" stroke-width="0" stroke-linecap="round"><path d="M243.4914,93.65881l4.49031,2.61898l0.44038,9.50411l-4.15501,17.14504l-3.9308,6.86043l-2.95571,-1.15449l-3.68281,-2.84514l4.46803,-12.00459l2.23741,-10.53323l0.76437,-5.32082z" fill="#193f80"/><path d="M243.4914,93.65881l4.71958,1.94248l0.21111,10.1806l-4.15501,17.14504l-3.9308,6.86043l-2.95571,-1.15449l3.508,-6.85779l3.97722,-16.69808z" fill="#264780"/><path d="M239.76886,129.61171l-0.01668,0.5411l-2.08502,1.74017l-4.07555,-1.01668l0.31187,-4.09687l0.38745,-0.31162z" data-paper-data="{&quot;index&quot;:null}" fill="#f7e5b4"/></g><g stroke="#113c86" stroke-width="0" stroke-linecap="round"><path d="M255.24864,150.63141l5.62354,17.41687l2.92841,3.55916l-0.83701,2.67176l-12.2055,3.12824l-6.49575,-23.08016l-7.8216,-23.65229l11.31827,-4.17326z" data-paper-data="{&quot;index&quot;:null}" fill="#113c86"/><path d="M255.08715,150.67278l5.78498,17.37549l2.92841,3.55916l-0.83701,2.67176l-5.62645,1.44205l-1.84211,-5.81137l-5.17313,-16.90322l-7.25028,-24.73302l4.68743,-1.77191z" data-paper-data="{&quot;index&quot;:null}" fill="#264780"/><path d="M260.50986,164.88409l1.2161,3.24409l2.65042,3.19553l-1.02174,3.3176l-12.88945,3.30353l-2.44991,-7.0904l8.5046,-3.02686z" fill="#6b7880"/><path d="M261.77076,168.16731l2.61292,3.15835l-0.96746,3.30839l-12.93369,3.29243l-0.53655,-1.60012z" fill="#4f5863"/></g><g stroke="#113c86" stroke-width="0" stroke-linecap="round"><path d="M234.44455,125.64011l11.28371,4.48287l-2.58953,9.5083l-3.1867,14.03361l-4.37767,17.78471l-0.16935,4.20396l-1.80211,1.7802l-12.37905,-2.8371l1.81364,-6.61105l4.83,-17.96494z" fill="#234175"/><path d="M240.67242,128.14162l5.05586,1.98132l-1.85843,6.31827l-3.9178,17.22363l-4.37767,17.78471l-0.16935,4.20396l-1.80211,1.7802l-5.60062,-1.28358l1.85388,-6.27022l4.6583,-18.62639l4.16674,-16.60784z" fill="#264780"/><path d="M237.08491,168.26894l-1.1304,3.34463l-0.14493,4.09741l-1.86393,2.05002l-12.88118,-2.95218l1.89991,-7.23508l10.50196,1.50671z" fill="#6b7880"/><path d="M235.95739,171.67869l-0.11889,4.00345l-1.86879,2.07121l-12.90774,-2.92481l0.32176,-1.70892z" fill="#4f5863"/></g><path d="M248.45628,127.97283l-15.40647,2.4333l-0.75933,-32.86594l7.0829,-5.31728l8.04213,1.62924z" fill="#7a8799" stroke="#113c86" stroke-width="0" stroke-linecap="round"/><path d="M239.09904,122.33467l-0.38848,7.16515l-4.78726,0.69167l-0.28541,-7.38301l-0.1987,-13.54651l3.00981,-7.83642l2.72089,9.84766z" fill="#626b7a" stroke="#113c86" stroke-width="0" stroke-linecap="round"/><path d="" fill="#340000" stroke="none" stroke-width="0" stroke-linecap="round"/><path d="" fill="#340000" stroke="none" stroke-width="0" stroke-linecap="round"/><path d="M245.02288,128.45922c0,0 0.11779,-17.44233 -0.05148,-23.80944c-0.15723,-5.91472 -0.69459,-10.76602 -0.69459,-10.76602h0.82452c0,0 0.53759,4.86027 0.69489,10.7771c0.16922,6.36554 0.05118,23.67932 0.05118,23.67932z" fill="#c8c8c8" stroke="none" stroke-width="0" stroke-linecap="butt"/><g stroke="#113c86" stroke-width="0" stroke-linecap="round"><path d="M247.74712,128.27458l0.67535,0.76957l0.42655,4.21025l-4.3351,1.39799l-2.45206,-2.27729l-0.12568,-0.9012z" data-paper-data="{&quot;index&quot;:null}" fill="#f7e5b4"/><path d="M239.99478,103.27441l2.28165,8.26533l6.17515,16.20389l-4.15929,2.75841l-3.09399,1.02581l-3.71335,-8.14666l-5.66382,-17.06879l-0.4672,-7.21159l6.26944,-5.52386z" data-paper-data="{&quot;index&quot;:null}" fill="#234175"/><path d="M239.99478,103.27441l2.28165,8.26533l6.33016,16.20271l-3.33587,2.12566l-6.7145,-16.69886l-3.74152,-14.62567l3.1534,-3.7008z" data-paper-data="{&quot;index&quot;:null}" fill="#264780"/></g><path d="M234.76973,75.34623l7.69737,0.39593l7.7915,7.16773l-1.81592,7.6097l-1.28169,-5.74594l-0.37585,7.20471l-0.75303,-0.56905l-0.19488,1.41768l-1.33491,-0.88306l-0.76103,1.56374l-2.99596,-0.83078l-3.9093,-0.59251l-0.92671,-1.09323l-0.21395,0.9939l-0.96452,-1.60382l0.0861,1.25009l-1.03345,-1.36379l-0.28636,0.24367l-0.48169,-0.99644l-0.2591,-0.84734l-0.44432,0.79717l-0.74728,-2.86425l0.35911,-4.08368z" data-paper-data="{&quot;index&quot;:null}" fill-opacity="0.65098" fill="#332c23" stroke="#000000" stroke-width="0" stroke-linecap="round"/><path d="M236.79906,93.46794v-2.33889h6.28501v2.33889z" data-paper-data="{&quot;index&quot;:null}" fill="#eddcae" stroke="#000000" stroke-width="0" stroke-linecap="butt"/><g stroke="#eb0095" stroke-width="0" stroke-linecap="round"><path d="M239.30267,92.99015l5.5827,-0.66987l1.17565,0.19504l0.11386,0.98387l-3.81516,2.25881l-4.62753,5.5751l-4.14277,2.44528l-5.57251,5.0478l0.8849,-5.03325z" fill="url(#color-1)"/><path d="M239.30267,92.99024l5.56681,-0.67999l-5.3411,3.16773l-3.10151,3.89148l-3.85189,2.17593l-4.53317,7.28857l1.62731,-10.2369l3.46808,-4.61651l3.72108,-1.51649z" fill="url(#color-2)"/></g><path d="M242.20555,70.27779l5.00146,1.91589l2.26155,3.71634l0.78427,4.57134l-1.58205,8.2252l-1.74257,2.57748l-3.10408,2.18884l-7.07846,-2.11654l-3.72228,-3.57686l-2.00265,-5.22929l0.7411,-6.33239l2.1441,-2.81711l3.34341,-2.34151z" data-paper-data="{&quot;index&quot;:null}" fill="url(#color-3)" stroke="#000000" stroke-width="0" stroke-linecap="round"/><path d="M243.8158,90.81411h1.19599" data-paper-data="{&quot;index&quot;:null}" fill="none" stroke="#000000" stroke-width="0.15" stroke-linecap="round"/><path d="M245.22916,88.55531v0.3384" data-paper-data="{&quot;index&quot;:null}" fill="none" stroke-opacity="0.45098" stroke="#332c23" stroke-width="0.15" stroke-linecap="round"/><path d="M246.45024,84.01092l2.43136,0.01281l0.45652,0.1211l-3.36787,0.00516z" data-paper-data="{&quot;index&quot;:null}" fill-opacity="0.70196" fill="#332c23" stroke="none" stroke-width="0" stroke-linecap="round"/><path d="M246.22755,84.89712l3.04911,-0.01219l-0.45652,2.26936l-2.57238,0.18508z" data-paper-data="{&quot;index&quot;:null}" fill="#fafafa" stroke="none" stroke-width="0" stroke-linecap="round"/><path d="M246.68114,86.13431l0.04425,-1.22118l1.69527,-0.0087l-0.05737,1.25593l-0.135,1.03856l-1.49165,0.08596z" data-paper-data="{&quot;index&quot;:null}" fill="#3f0000" stroke="none" stroke-width="0" stroke-linecap="round"/><path d="M243.31766,84.14998l-5.02496,-0.00516l0.68115,-0.1211l3.62766,-0.0128z" data-paper-data="{&quot;index&quot;:null}" fill-opacity="0.70196" fill="#332c23" stroke="none" stroke-width="0" stroke-linecap="round"/><path d="M243.14777,87.33936l-4.17391,-0.12178l-0.68115,-2.33266l5.02496,0.01219z" data-paper-data="{&quot;index&quot;:null}" fill="#fafafa" stroke="none" stroke-width="0" stroke-linecap="round"/><path d="M242.44286,87.28492l-2.16346,-0.05431l-0.20147,-1.07021l0.06708,-1.25593l2.26909,0.0087l0.11149,1.22118z" data-paper-data="{&quot;index&quot;:null}" fill="#3f0000" stroke="none" stroke-width="0" stroke-linecap="round"/><path d="M248.54319,71.75935l-0.68099,0.19204l2.86118,4.19515l-0.44568,0.11167l1.19312,5.20953l-0.44707,-0.7764l-0.32174,3.06398l-0.11594,2.16602l-0.46999,-0.84277l-0.21474,0.8847l-0.71283,-1.87327l-0.20499,0.7951l-0.66475,-2.43904l-0.37002,0.63872l-1.41428,-0.6339l-0.64033,0.986l-0.76191,-1.08306l-0.17595,1.08502l0.00801,0.7165l-0.62771,-0.71515l0.17534,1.32366l-1.96877,-1.95378l-0.32162,0.46256l-1.24502,-0.77376l-1.69726,0.85488l-1.04403,-1.32041l0.4272,2.00034l-0.82618,6.53997l-1.47201,-5.17779l-0.70445,-0.25711l-0.08029,3.69313l-0.42817,-0.55867l0.04237,2.84831l-3.35443,-3.72931l-0.42384,0.92334l-0.67941,-3.87808l-0.35029,0.77264l0.25561,-5.76822l-0.78772,0.12303l1.80146,-4.237l1.11711,-1.64761l-0.46707,-0.17372l4.28127,-3.05471l-0.55559,-0.32715l6.17372,-0.62154z" data-paper-data="{&quot;index&quot;:null}" fill="#332c23" stroke="#a8ccff" stroke-width="0" stroke-linecap="round"/><path d="M236.92802,89.02373l-1.59078,-1.96252l-0.57152,-1.75779l1.43809,0.09924z" data-paper-data="{&quot;index&quot;:null}" fill="#dccca1" stroke="#000000" stroke-width="0" stroke-linecap="round"/><path d="M243.24584,84.89324l-4.82781,0.13992l0.57798,2.18093l-0.86134,-2.3513z" data-paper-data="{&quot;index&quot;:null}" fill="url(#color-4)" stroke-opacity="0.50196" stroke="#332c23" stroke-width="0" stroke-linecap="round"/><path d="M249.31295,84.86048l-0.48314,2.2899l0.3448,-2.18093l-2.88007,-0.07624z" fill="url(#color-5)" stroke-opacity="0.50196" stroke="#332c23" stroke-width="0" stroke-linecap="round"/></g></g></svg>