<svg version="1.1" xmlns="http://www.w3.org/2000/svg" xmlns:xlink="http://www.w3.org/1999/xlink" width="238.3211" height="226.90733" viewBox="0,0,238.3211,226.90733"><g transform="translate(-181.05413,-45.40439)"><g data-paper-data="{&quot;isPaintingLayer&quot;:true}" fill-rule="nonzero" stroke-linecap="butt" stroke-linejoin="miter" stroke-miterlimit="10" stroke-dasharray="" stroke-dashoffset="0" style="mix-blend-mode: normal"><path d="M181.42913,59.88879c0,-2.76692 0,-8.1293 0,-9.75176c0,-1.81509 1.6537,-4.35764 3.31118,-4.35764c3.86967,0 59.97734,0 66.95647,0c2.03004,0 3.30341,2.01734 3.30341,4.40898c0,3.34855 0,9.43084 0,9.73726c0,1.79566 -1.26304,4.29521 -3.2755,4.29521c-7.15241,0 -63.95636,0 -66.98437,0c-1.65748,0 -3.31118,-1.9443 -3.31118,-4.33205z" fill-opacity="0.05098" fill="#ffffff" stroke="#ebebeb" stroke-width="0.75"/><path d="M263.42895,59.88879c0,-2.76692 0,-8.1293 0,-9.75176c0,-1.81509 1.6537,-4.35764 3.31117,-4.35764c3.86967,0 59.97734,0 66.95647,0c2.03003,0 3.30341,2.01734 3.30341,4.40898c0,3.34855 0,9.43084 0,9.73726c0,1.79566 -1.26304,4.29521 -3.27551,4.29521c-7.15241,0 -63.95636,0 -66.98437,0c-1.65748,0 -3.31117,-1.9443 -3.31117,-4.33205z" fill-opacity="0.30196" fill="#ffffff" stroke="#ebebeb" stroke-width="0.75"/><text transform="translate(280.60141,58.45514) scale(0.28792,0.28792)" font-size="40" xml:space="preserve" data-paper-data="{&quot;index&quot;:null}" fill="#ebebeb" fill-rule="nonzero" stroke="#e6e6e6" stroke-width="0" stroke-linecap="butt" stroke-linejoin="miter" stroke-miterlimit="10" stroke-dasharray="" stroke-dashoffset="0" font-family="Sans Serif" font-weight="normal" text-anchor="start" style="mix-blend-mode: normal"><tspan x="0" dy="0">Dvorak</tspan></text><path d="M345.42918,59.88879c0,-2.76692 0,-8.1293 0,-9.75176c0,-1.81509 1.6537,-4.35764 3.31117,-4.35764c3.86967,0 59.97734,0 66.95647,0c2.03003,0 3.30341,2.01734 3.30341,4.40898c0,3.34855 0,9.43084 0,9.73726c0,1.79566 -1.26304,4.29521 -3.27551,4.29521c-7.15241,0 -63.95636,0 -66.98437,0c-1.65748,0 -3.31117,-1.9443 -3.31117,-4.33205z" fill-opacity="0.05098" fill="#ffffff" stroke="#ebebeb" stroke-width="0.75"/><text transform="translate(358.21374,58.45514) scale(0.28792,0.28792)" font-size="40" xml:space="preserve" data-paper-data="{&quot;index&quot;:null}" fill="#ebebeb" fill-rule="nonzero" stroke="#e6e6e6" stroke-width="0" stroke-linecap="butt" stroke-linejoin="miter" stroke-miterlimit="10" stroke-dasharray="" stroke-dashoffset="0" font-family="Sans Serif" font-weight="normal" text-anchor="start" style="mix-blend-mode: normal"><tspan x="0" dy="0">Colemak</tspan></text><text transform="translate(194.88168,58.45514) scale(0.28792,0.28792)" font-size="40" xml:space="preserve" data-paper-data="{&quot;index&quot;:null}" fill="#ebebeb" fill-rule="nonzero" stroke="#e6e6e6" stroke-width="0" stroke-linecap="butt" stroke-linejoin="miter" stroke-miterlimit="10" stroke-dasharray="" stroke-dashoffset="0" font-family="Sans Serif" font-weight="normal" text-anchor="start" style="mix-blend-mode: normal"><tspan x="0" dy="0">QWERTY</tspan></text><path d="M234.14457,110.20631c0,-1.25699 1.63099,-3.01776 3.26572,-3.01776c3.81654,0 8.3042,0 15.1875,0c2.00217,0 3.25806,1.39705 3.25806,3.05332c0,2.31894 0,15.18621 0,15.39841c0,1.24354 -1.2457,2.97453 -3.23053,2.97453c-7.0542,0 -12.22859,0 -15.21503,0c-1.63472,0 -3.26571,-1.34647 -3.26571,-3.00004z" fill-opacity="0.30196" fill="#333333" stroke-opacity="0.6" stroke="#ebebeb" stroke-width="0.75"/><path d="M260.14441,123.70631c0,-1.25699 1.63099,-3.01776 3.26572,-3.01776c3.81654,0 8.3042,0 15.1875,0c2.00217,0 3.25806,1.39705 3.25806,3.05332c0,2.31894 0,15.18621 0,15.39841c0,1.24354 -1.2457,2.97453 -3.23053,2.97453c-7.0542,0 -12.22859,0 -15.21503,0c-1.63472,0 -3.26571,-1.34647 -3.26571,-3.00004z" fill-opacity="0.30196" fill="#333333" stroke-opacity="0.6" stroke="#ebebeb" stroke-width="0.75"/><path d="M208.14457,123.70631c0,-1.25699 1.63099,-3.01776 3.26572,-3.01776c3.81654,0 8.3042,0 15.1875,0c2.00217,0 3.25806,1.39705 3.25806,3.05332c0,2.31894 0,15.18621 0,15.39841c0,1.24354 -1.2457,2.97453 -3.23053,2.97453c-7.0542,0 -12.22859,0 -15.21503,0c-1.63472,0 -3.26571,-1.34647 -3.26571,-3.00004z" fill-opacity="0.30196" fill="#333333" stroke-opacity="0.6" stroke="#ebebeb" stroke-width="0.75"/><path d="M234.14457,137.20621c0,-1.25699 1.63099,-3.01776 3.26572,-3.01776c3.81654,0 8.3042,0 15.1875,0c2.00217,0 3.25806,1.39705 3.25806,3.05332c0,2.31894 0,15.18621 0,15.39841c0,1.24354 -1.2457,2.97453 -3.23053,2.97453c-7.0542,0 -12.22859,0 -15.21503,0c-1.63472,0 -3.26571,-1.34647 -3.26571,-3.00004z" fill-opacity="0.30196" fill="#333333" stroke-opacity="0.6" stroke="#ebebeb" stroke-width="0.75"/><path d="M344.14462,110.20631c0,-1.25699 1.63099,-3.01776 3.26572,-3.01776c3.81654,0 8.3042,0 15.1875,0c2.00217,0 3.25806,1.39705 3.25806,3.05332c0,2.31894 0,15.18621 0,15.39841c0,1.24354 -1.2457,2.97453 -3.23053,2.97453c-7.0542,0 -12.22859,0 -15.21503,0c-1.63472,0 -3.26571,-1.34647 -3.26571,-3.00004z" fill-opacity="0.30196" fill="#333333" stroke-opacity="0.6" stroke="#ebebeb" stroke-width="0.75"/><path d="M370.14462,123.70631c0,-1.25699 1.63099,-3.01776 3.26572,-3.01776c3.81654,0 8.3042,0 15.1875,0c2.00217,0 3.25806,1.39705 3.25806,3.05332c0,2.31894 0,15.18621 0,15.39841c0,1.24354 -1.2457,2.97453 -3.23053,2.97453c-7.0542,0 -12.22859,0 -15.21503,0c-1.63472,0 -3.26571,-1.34647 -3.26571,-3.00004z" fill-opacity="0.30196" fill="#333333" stroke-opacity="0.6" stroke="#ebebeb" stroke-width="0.75"/><path d="M318.14441,123.70631c0,-1.25699 1.63099,-3.01776 3.26572,-3.01776c3.81654,0 8.3042,0 15.1875,0c2.00217,0 3.25806,1.39705 3.25806,3.05332c0,2.31894 0,15.18621 0,15.39841c0,1.24354 -1.2457,2.97453 -3.23053,2.97453c-7.0542,0 -12.22859,0 -15.21503,0c-1.63472,0 -3.26571,-1.34647 -3.26571,-3.00004z" fill-opacity="0.30196" fill="#333333" stroke-opacity="0.6" stroke="#ebebeb" stroke-width="0.75"/><path d="M344.14462,137.20621c0,-1.25699 1.63099,-3.01776 3.26572,-3.01776c3.81654,0 8.3042,0 15.1875,0c2.00217,0 3.25806,1.39705 3.25806,3.05332c0,2.31894 0,15.18621 0,15.39841c0,1.24354 -1.2457,2.97453 -3.23053,2.97453c-7.0542,0 -12.22859,0 -15.21503,0c-1.63472,0 -3.26571,-1.34647 -3.26571,-3.00004z" fill-opacity="0.30196" fill="#333333" stroke-opacity="0.6" stroke="#ebebeb" stroke-width="0.75"/><path d="M284.14441,227.70628c0,-1.25699 1.63099,-3.01776 3.26572,-3.01776c3.81654,0 30.3042,0 37.1875,0c2.00217,0 3.25806,1.39705 3.25806,3.05332c0,2.31894 0,15.18621 0,15.39841c0,1.24354 -1.2457,2.97453 -3.23053,2.97453c-7.0542,0 -34.22859,0 -37.21503,0c-1.63472,0 -3.26571,-1.34647 -3.26571,-3.00004z" fill-opacity="0.30196" fill="#333333" stroke-opacity="0.6" stroke="#ebebeb" stroke-width="0.75"/><path d="M221.14457,227.20635c0,-1.25699 1.63099,-3.01776 3.26572,-3.01776c3.81654,0 30.3042,0 37.1875,0c2.00217,0 3.25806,1.39705 3.25806,3.05332c0,2.31894 0,15.18621 0,15.39841c0,1.24354 -1.2457,2.97453 -3.23053,2.97453c-7.0542,0 -34.22859,0 -37.21503,0c-1.63472,0 -3.26571,-1.34647 -3.26571,-3.00004z" fill-opacity="0.30196" fill="#333333" stroke-opacity="0.6" stroke="#ebebeb" stroke-width="0.75"/><path d="M358.14462,227.20635c0,-1.25699 1.63099,-3.01776 3.26572,-3.01776c3.81654,0 8.3042,0 15.1875,0c2.00217,0 3.25806,1.39705 3.25806,3.05332c0,2.31894 0,15.18621 0,15.39841c0,1.24354 -1.2457,2.97453 -3.23053,2.97453c-7.0542,0 -12.22859,0 -15.21503,0c-1.63472,0 -3.26571,-1.34647 -3.26571,-3.00004z" fill-opacity="0.30196" fill="#333333" stroke-opacity="0.6" stroke="#ebebeb" stroke-width="0.75"/><text transform="translate(227.72498,178.35673) scale(0.28792,0.28792)" font-size="40" xml:space="preserve" data-paper-data="{&quot;index&quot;:null}" fill-opacity="0.70196" fill="#ebebeb" fill-rule="nonzero" stroke="#e6e6e6" stroke-width="0" stroke-linecap="butt" stroke-linejoin="miter" stroke-miterlimit="10" stroke-dasharray="" stroke-dashoffset="0" font-family="Sans Serif" font-weight="normal" text-anchor="start" style="mix-blend-mode: normal"><tspan x="0" dy="0">方向键</tspan></text><text transform="translate(337.72502,178.35673) scale(0.28792,0.28792)" font-size="40" xml:space="preserve" data-paper-data="{&quot;index&quot;:null}" fill-opacity="0.70196" fill="#ebebeb" fill-rule="nonzero" stroke="#e6e6e6" stroke-width="0" stroke-linecap="butt" stroke-linejoin="miter" stroke-miterlimit="10" stroke-dasharray="" stroke-dashoffset="0" font-family="Sans Serif" font-weight="normal" text-anchor="start" style="mix-blend-mode: normal"><tspan x="0" dy="0">功能键</tspan></text><text transform="translate(241.47605,121.85674) scale(0.28792,0.28792)" font-size="40" xml:space="preserve" data-paper-data="{&quot;index&quot;:null}" fill-opacity="0.70196" fill="#ebebeb" fill-rule="nonzero" stroke="#e6e6e6" stroke-width="0" stroke-linecap="butt" stroke-linejoin="miter" stroke-miterlimit="10" stroke-dasharray="" stroke-dashoffset="0" font-family="Sans Serif" font-weight="normal" text-anchor="start" style="mix-blend-mode: normal"><tspan x="0" dy="0">P</tspan></text><text transform="translate(240.7505,148.85665) scale(0.28792,0.28792)" font-size="40" xml:space="preserve" data-paper-data="{&quot;index&quot;:null}" fill-opacity="0.70196" fill="#ebebeb" fill-rule="nonzero" stroke="#e6e6e6" stroke-width="0" stroke-linecap="butt" stroke-linejoin="miter" stroke-miterlimit="10" stroke-dasharray="" stroke-dashoffset="0" font-family="Sans Serif" font-weight="normal" text-anchor="start" style="mix-blend-mode: normal"><tspan x="0" dy="0">U</tspan></text><text transform="translate(215.79276,135.35665) scale(0.28792,0.28792)" font-size="40" xml:space="preserve" data-paper-data="{&quot;index&quot;:null}" fill-opacity="0.70196" fill="#ebebeb" fill-rule="nonzero" stroke="#e6e6e6" stroke-width="0" stroke-linecap="butt" stroke-linejoin="miter" stroke-miterlimit="10" stroke-dasharray="" stroke-dashoffset="0" font-family="Sans Serif" font-weight="normal" text-anchor="start" style="mix-blend-mode: normal"><tspan x="0" dy="0">E</tspan></text><text transform="translate(268.96155,135.35665) scale(0.28792,0.28792)" font-size="40" xml:space="preserve" data-paper-data="{&quot;index&quot;:null}" fill-opacity="0.70196" fill="#ebebeb" fill-rule="nonzero" stroke="#e6e6e6" stroke-width="0" stroke-linecap="butt" stroke-linejoin="miter" stroke-miterlimit="10" stroke-dasharray="" stroke-dashoffset="0" font-family="Sans Serif" font-weight="normal" text-anchor="start" style="mix-blend-mode: normal"><tspan x="0" dy="0">I</tspan></text><text transform="translate(351.35513,121.85674) scale(0.28792,0.28792)" font-size="40" xml:space="preserve" data-paper-data="{&quot;index&quot;:null}" fill-opacity="0.70196" fill="#ebebeb" fill-rule="nonzero" stroke="#e6e6e6" stroke-width="0" stroke-linecap="butt" stroke-linejoin="miter" stroke-miterlimit="10" stroke-dasharray="" stroke-dashoffset="0" font-family="Sans Serif" font-weight="normal" text-anchor="start" style="mix-blend-mode: normal"><tspan x="0" dy="0">R</tspan></text><text transform="translate(325.7582,135.35665) scale(0.28792,0.28792)" font-size="40" xml:space="preserve" data-paper-data="{&quot;index&quot;:null}" fill-opacity="0.70196" fill="#ebebeb" fill-rule="nonzero" stroke="#e6e6e6" stroke-width="0" stroke-linecap="butt" stroke-linejoin="miter" stroke-miterlimit="10" stroke-dasharray="" stroke-dashoffset="0" font-family="Sans Serif" font-weight="normal" text-anchor="start" style="mix-blend-mode: normal"><tspan x="0" dy="0">T</tspan></text><text transform="translate(350.53172,148.85665) scale(0.28792,0.28792)" font-size="40" xml:space="preserve" data-paper-data="{&quot;index&quot;:null}" fill-opacity="0.70196" fill="#ebebeb" fill-rule="nonzero" stroke="#e6e6e6" stroke-width="0" stroke-linecap="butt" stroke-linejoin="miter" stroke-miterlimit="10" stroke-dasharray="" stroke-dashoffset="0" font-family="Sans Serif" font-weight="normal" text-anchor="start" style="mix-blend-mode: normal"><tspan x="0" dy="0">N</tspan></text><text transform="translate(377.83314,135.35665) scale(0.28792,0.28792)" font-size="40" xml:space="preserve" data-paper-data="{&quot;index&quot;:null}" fill-opacity="0.70196" fill="#ebebeb" fill-rule="nonzero" stroke="#e6e6e6" stroke-width="0" stroke-linecap="butt" stroke-linejoin="miter" stroke-miterlimit="10" stroke-dasharray="" stroke-dashoffset="0" font-family="Sans Serif" font-weight="normal" text-anchor="start" style="mix-blend-mode: normal"><tspan x="0" dy="0">S</tspan></text><text transform="translate(289.842,239.35671) scale(0.28792,0.28792)" font-size="40" xml:space="preserve" data-paper-data="{&quot;index&quot;:null}" fill-opacity="0.70196" fill="#ebebeb" fill-rule="nonzero" stroke="#e6e6e6" stroke-width="0" stroke-linecap="butt" stroke-linejoin="miter" stroke-miterlimit="10" stroke-dasharray="" stroke-dashoffset="0" font-family="Sans Serif" font-weight="normal" text-anchor="start" style="mix-blend-mode: normal"><tspan x="0" dy="0">Space</tspan></text><text transform="translate(230.37783,238.85678) scale(0.28792,0.28792)" font-size="40" xml:space="preserve" data-paper-data="{&quot;index&quot;:null}" fill-opacity="0.70196" fill="#ebebeb" fill-rule="nonzero" stroke="#e6e6e6" stroke-width="0" stroke-linecap="butt" stroke-linejoin="miter" stroke-miterlimit="10" stroke-dasharray="" stroke-dashoffset="0" font-family="Sans Serif" font-weight="normal" text-anchor="start" style="mix-blend-mode: normal"><tspan x="0" dy="0">Shift</tspan></text><text transform="translate(231.4834,268.35668) scale(0.28792,0.28792)" font-size="40" xml:space="preserve" data-paper-data="{&quot;index&quot;:null}" fill-opacity="0.70196" fill="#ebebeb" fill-rule="nonzero" stroke="#e6e6e6" stroke-width="0" stroke-linecap="butt" stroke-linejoin="miter" stroke-miterlimit="10" stroke-dasharray="" stroke-dashoffset="0" font-family="Sans Serif" font-weight="normal" text-anchor="start" style="mix-blend-mode: normal"><tspan x="0" dy="0">选项</tspan></text><text transform="translate(294.48321,268.85668) scale(0.28792,0.28792)" font-size="40" xml:space="preserve" data-paper-data="{&quot;index&quot;:null}" fill-opacity="0.70196" fill="#ebebeb" fill-rule="nonzero" stroke="#e6e6e6" stroke-width="0" stroke-linecap="butt" stroke-linejoin="miter" stroke-miterlimit="10" stroke-dasharray="" stroke-dashoffset="0" font-family="Sans Serif" font-weight="normal" text-anchor="start" style="mix-blend-mode: normal"><tspan x="0" dy="0">确认</tspan></text><text transform="translate(357.48344,268.35668) scale(0.28792,0.28792)" font-size="40" xml:space="preserve" data-paper-data="{&quot;index&quot;:null}" fill-opacity="0.70196" fill="#ebebeb" fill-rule="nonzero" stroke="#e6e6e6" stroke-width="0" stroke-linecap="butt" stroke-linejoin="miter" stroke-miterlimit="10" stroke-dasharray="" stroke-dashoffset="0" font-family="Sans Serif" font-weight="normal" text-anchor="start" style="mix-blend-mode: normal"><tspan x="0" dy="0">关闭</tspan></text><text transform="translate(365.64309,238.85673) scale(0.28792,0.28792)" font-size="40" xml:space="preserve" data-paper-data="{&quot;index&quot;:null}" fill-opacity="0.70196" fill="#ebebeb" fill-rule="nonzero" stroke="#e6e6e6" stroke-width="0" stroke-linecap="butt" stroke-linejoin="miter" stroke-miterlimit="10" stroke-dasharray="" stroke-dashoffset="0" font-family="Sans Serif" font-weight="normal" text-anchor="start" style="mix-blend-mode: normal"><tspan x="0" dy="0">Y</tspan></text></g></g></svg>