<svg version="1.1" xmlns="http://www.w3.org/2000/svg" xmlns:xlink="http://www.w3.org/1999/xlink" width="189.10643" height="204.19133" viewBox="0,0,189.10643,204.19133"><g transform="translate(-181.05418,-45.40446)"><g data-paper-data="{&quot;isPaintingLayer&quot;:true}" fill-rule="nonzero" stroke-linecap="butt" stroke-linejoin="miter" stroke-miterlimit="10" stroke-dasharray="" stroke-dashoffset="0" style="mix-blend-mode: normal"><path d="M366.47445,249.22079c-3.02801,0 -115.83196,0 -122.98437,0c-2.01247,0 -3.27551,-2.49955 -3.27551,-4.29521c0,-0.30642 0,-86.38871 0,-89.73726c0,-2.39164 1.27338,-4.40898 3.30341,-4.40898c6.97913,0 119.0868,0 122.95647,0c1.65747,0 3.31117,2.54255 3.31117,4.35764c0,1.62246 0,86.98484 0,89.75176c0,2.38775 -1.65369,4.33205 -3.31117,4.33205z" data-paper-data="{&quot;index&quot;:null}" fill="none" stroke="#ebebeb" stroke-width="0.75"/><path d="M181.42919,59.88886c0,-2.76692 0,-8.1293 0,-9.75176c0,-1.81509 1.6537,-4.35764 3.31118,-4.35764c3.86967,0 59.97734,0 66.95647,0c2.03004,0 3.30341,2.01734 3.30341,4.40898c0,3.34855 0,9.43084 0,9.73726c0,1.79566 -1.26304,4.29521 -3.2755,4.29521c-7.15241,0 -63.95636,0 -66.98437,0c-1.65748,0 -3.31118,-1.9443 -3.31118,-4.33205z" fill-opacity="0.05098" fill="#ffffff" stroke="#ebebeb" stroke-width="0.75"/><path d="M263.42895,59.88886c0,-2.76692 0,-8.1293 0,-9.75176c0,-1.81509 1.6537,-4.35764 3.31117,-4.35764c3.86967,0 59.97734,0 66.95647,0c2.03003,0 3.30341,2.01734 3.30341,4.40898c0,3.34855 0,9.43084 0,9.73726c0,1.79566 -1.26304,4.29521 -3.27551,4.29521c-7.15241,0 -63.95636,0 -66.98437,0c-1.65748,0 -3.31117,-1.9443 -3.31117,-4.33205z" fill-opacity="0.30196" fill="#ffffff" stroke="#ebebeb" stroke-width="0.75"/><text transform="translate(274.16355,58.45523) scale(0.28792,0.28792)" font-size="40" xml:space="preserve" data-paper-data="{&quot;index&quot;:null}" fill="#ebebeb" fill-rule="nonzero" stroke="#e6e6e6" stroke-width="0" stroke-linecap="butt" stroke-linejoin="miter" stroke-miterlimit="10" stroke-dasharray="" stroke-dashoffset="0" font-family="Sans Serif" font-weight="normal" text-anchor="start" style="mix-blend-mode: normal"><tspan x="0" dy="0">480 × 360</tspan></text><text transform="translate(192.16379,58.45523) scale(0.28792,0.28792)" font-size="40" xml:space="preserve" data-paper-data="{&quot;index&quot;:null}" fill="#ebebeb" fill-rule="nonzero" stroke="#e6e6e6" stroke-width="0" stroke-linecap="butt" stroke-linejoin="miter" stroke-miterlimit="10" stroke-dasharray="" stroke-dashoffset="0" font-family="Sans Serif" font-weight="normal" text-anchor="start" style="mix-blend-mode: normal"><tspan x="0" dy="0">640 × 360</tspan></text><path d="M244.78558,245.16096v-90.32173h120.42898v90.32173z" fill-opacity="0.2" fill="#ffffff" stroke="none" stroke-width="0"/><text transform="translate(293.84605,203.4551) scale(0.28792,0.28792)" font-size="40" xml:space="preserve" data-paper-data="{&quot;index&quot;:null}" fill="#ebebeb" fill-rule="nonzero" stroke="#e6e6e6" stroke-width="0" stroke-linecap="butt" stroke-linejoin="miter" stroke-miterlimit="10" stroke-dasharray="" stroke-dashoffset="0" font-family="Sans Serif" font-weight="normal" text-anchor="start" style="mix-blend-mode: normal"><tspan x="0" dy="0">4 : 3</tspan></text></g></g></svg>